<?xml version="1.0" encoding="iso-8859-1"?>
<!-- Generator: Adobe Illustrator 19.0.0, SVG Export Plug-In . SVG Version: 6.00 Build 0)  -->
<svg xmlns="http://www.w3.org/2000/svg" xmlns:xlink="http://www.w3.org/1999/xlink" version="1.1" id="Layer_1" x="0px" y="0px" viewBox="0 0 512 512" style="enable-background:new 0 0 512 512;" xml:space="preserve">
<path style="fill:#FF9811;" d="M319.07,92.024c-7.006,0-12.738,5.732-12.738,12.738v14.037c0,7.006,5.732,12.738,12.738,12.738  s12.738-5.732,12.738-12.738v-14.037C331.807,97.755,326.076,92.024,319.07,92.024z"/>
<path style="fill:#91DC5A;" d="M17.378,276.291l0.744-62.208c0.216-18.086,14.939-32.633,33.026-32.633h54.381  c18.734,0,36.629-7.771,49.418-21.461l29.048-31.092c9.815-10.506,23.548-16.47,37.926-16.47h108.002  c13.029,0,23.592,10.562,23.592,23.592v40.712h108.522c19.978,0,36.174,16.196,36.174,36.174v63.818  c0,19.978-16.196,36.174-36.174,36.174H53.549C33.402,312.898,17.137,296.437,17.378,276.291z"/>
<path style="fill:#4E901E;" d="M329.924,112.427h-89.649v200.47h113.241V176.731v-40.712  C353.516,122.989,342.954,112.427,329.924,112.427z"/>
<path style="fill:#5EAC24;" d="M145.122,312.897h145.483v-200.47h-68.683c-14.377,0-28.111,5.964-37.926,16.47l-29.048,31.092  c-3.008,3.22-6.308,6.1-9.826,8.641L145.122,312.897L145.122,312.897z"/>
<path style="fill:#57565C;" d="M186.434,171.028l23.188-26.642c2.987-3.432,7.314-5.402,11.864-5.402h35.303  c2.606,0,4.718,2.112,4.718,4.718v33.028c0,2.606-2.112,4.718-4.718,4.718h-65.61C185.783,181.449,182.891,175.099,186.434,171.028z  "/>
<path style="fill:#3E3D42;" d="M232.961,160.217h28.547v-16.514c0-2.606-2.113-4.718-4.718-4.718h-35.303  c-4.55,0-8.877,1.97-11.864,5.402l-23.188,26.642c-3.543,4.071-0.652,10.421,4.745,10.421h16.139l13.778-15.83  C224.084,162.187,228.411,160.217,232.961,160.217z"/>
<path style="fill:#57565C;" d="M319.06,181.449h-25.456c-1.657,0-3-1.343-3-3v-36.465c0-1.657,1.343-3,3-3h25.456  c1.657,0,3,1.343,3,3v36.465C322.06,180.106,320.717,181.449,319.06,181.449z"/>
<path style="fill:#C6C5CA;" d="M485.176,274.244H26.83c-10.63,0-19.327,8.697-19.327,19.327s8.697,19.327,19.327,19.327h458.346  c10.63,0,19.327-8.697,19.327-19.327C504.503,282.941,495.806,274.244,485.176,274.244z"/>
<path style="fill:#FFE477;" d="M17.56,261.113h23.223c5.082,0,9.504-3.479,10.7-8.419l2.533-10.461  c1.678-6.929-3.572-13.6-10.7-13.6H17.948L17.56,261.113z"/>
<path style="fill:#5EAC24;" d="M498.212,212.905c0-5.637-1.291-10.972-3.59-15.728H23.052c-3.042,4.929-4.856,10.698-4.93,16.905  h480.09V212.905z"/>
<rect x="240.28" y="197.18" style="fill:#47821C;" width="113.24" height="16.905"/>
<rect x="145.12" y="197.18" style="fill:#4E901E;" width="145.48" height="16.905"/>
<g>
	<path style="fill:#ACABB1;" d="M18.499,311.058c2.484,1.167,5.241,1.839,8.154,1.839h201.839   c-2.599-14.031-7.945-27.108-15.458-38.654H33.604C26.42,285.284,21.214,297.723,18.499,311.058z"/>
	<path style="fill:#ACABB1;" d="M272.983,312.897H483.33c-2.599-14.031-7.945-27.108-15.458-38.654H288.44   C280.927,285.789,275.581,298.867,272.983,312.897z"/>
</g>
<path style="fill:#2D2D30;" d="M211.048,163.82c-7.006,0-12.738,5.732-12.738,12.738v14.037c0,7.006,5.732,12.738,12.738,12.738  s12.738-5.732,12.738-12.738v-14.037C223.785,169.552,218.054,163.82,211.048,163.82z"/>
<path style="fill:#1D1D1F;" d="M211.048,190.595v-14.037c0-4.687,2.573-8.794,6.369-11.005c-1.878-1.094-4.05-1.732-6.369-1.732  c-7.006,0-12.738,5.732-12.738,12.738v14.037c0,7.006,5.732,12.738,12.738,12.738c2.319,0,4.491-0.638,6.369-1.732  C213.62,199.389,211.048,195.282,211.048,190.595z"/>
<path style="fill:#FF9811;" d="M465.708,250.604h-13.623c-4.021,0-7.28-3.259-7.28-7.28s3.259-7.28,7.28-7.28h13.623  c4.021,0,7.28,3.259,7.28,7.28S469.729,250.604,465.708,250.604z"/>
<path style="fill:#3E3D42;" d="M319.148,138.984h-25.632c-1.608,0-2.912,1.304-2.912,2.912v18.32h31.456v-18.32  C322.06,140.288,320.756,138.984,319.148,138.984z"/>
<circle style="fill:#2D2D30;" cx="123.5" cy="332.43" r="87.55"/>
<path style="fill:#1D1D1F;" d="M123.497,395.709c-34.895,0-63.284-28.389-63.284-63.284c0-34.894,28.389-63.283,63.284-63.283  c34.894,0,63.283,28.389,63.283,63.283S158.391,395.709,123.497,395.709z"/>
<path style="fill:#C6C5CA;" d="M123.497,371.441c-21.514,0-39.017-17.503-39.017-39.017c0-21.514,17.503-39.016,39.017-39.016  s39.016,17.502,39.016,39.016S145.01,371.441,123.497,371.441z"/>
<path style="fill:#ACABB1;" d="M145.122,305.626c2.514,0,4.969,0.248,7.352,0.704c-7.146-7.928-17.489-12.922-28.978-12.922  c-21.514,0-39.017,17.502-39.017,39.016c0,19,13.655,34.863,31.665,38.312c-6.236-6.918-10.039-16.07-10.039-26.095  C106.106,323.128,123.609,305.626,145.122,305.626z"/>
<circle style="fill:#2D2D30;" cx="378.16" cy="332.43" r="87.55"/>
<path style="fill:#1D1D1F;" d="M378.156,395.709c-34.895,0-63.284-28.389-63.284-63.284c0-34.894,28.389-63.283,63.284-63.283  s63.284,28.389,63.284,63.283C441.441,367.319,413.051,395.709,378.156,395.709z"/>
<path style="fill:#C6C5CA;" d="M378.156,371.441c-21.514,0-39.017-17.503-39.017-39.017c0-21.514,17.503-39.016,39.017-39.016  s39.017,17.502,39.017,39.016S399.67,371.441,378.156,371.441z"/>
<path style="fill:#ACABB1;" d="M399.782,305.626c2.514,0,4.969,0.248,7.352,0.704c-7.146-7.928-17.489-12.922-28.978-12.922  c-21.514,0-39.017,17.502-39.017,39.016c0,19,13.655,34.863,31.665,38.312c-6.236-6.918-10.039-16.07-10.039-26.095  C360.765,323.128,378.268,305.626,399.782,305.626z"/>
<path d="M123.496,285.909c-25.649,0-46.517,20.867-46.517,46.516s20.867,46.517,46.517,46.517c25.648,0,46.516-20.867,46.516-46.517  C170.012,306.776,149.145,285.909,123.496,285.909z M123.496,363.941c-17.378,0-31.517-14.139-31.517-31.517  s14.139-31.516,31.517-31.516s31.516,14.138,31.516,31.516S140.874,363.941,123.496,363.941z"/>
<path d="M451.762,380.441c-3.261-2.553-7.975-1.979-10.529,1.281c-2.638,3.369-5.566,6.551-8.704,9.456  c-3.039,2.813-3.09,7.442-0.407,10.599c3.882,4.568,9.155,1.743,10.599,0.407c3.722-3.445,7.194-7.219,10.323-11.214  C455.597,387.708,455.023,382.995,451.762,380.441z"/>
<path d="M331.64,332.424c0,25.649,20.867,46.517,46.517,46.517s46.517-20.867,46.517-46.517c0-25.648-20.867-46.516-46.517-46.516  S331.64,306.776,331.64,332.424z M409.673,332.424c0,17.378-14.139,31.517-31.517,31.517s-31.517-14.139-31.517-31.517  s14.139-31.516,31.517-31.516S409.673,315.046,409.673,332.424z"/>
<path d="M505.709,276.334v-63.429c0-24.082-19.592-43.674-43.674-43.674h-58.89l-10.863-33.143c-2.688-8.194-10.286-13.7-18.91-13.7  h-15.513c-3.71-7.574-10.41-13.426-18.553-16.01c0,0-0.805-21.854-20.238-21.854c-11.159,0-20.237,9.078-20.237,20.237v0.166h-76.91  c-16.395,0-32.216,6.87-43.406,18.85l-29.048,31.092c-11.329,12.126-27.345,19.081-43.938,19.081H51.146  c-22.082,0-40.263,17.963-40.525,40.043l-0.703,58.771C3.871,277.686,0,285.184,0,293.571c0,14.793,12.034,26.827,26.827,26.827  h2.372c-0.5,3.94-0.758,7.953-0.758,12.026c0,52.412,42.64,95.052,95.052,95.052s95.052-42.64,95.052-95.052  c0-4.073-0.258-8.087-0.758-12.026h66.072c-0.5,3.94-0.758,7.953-0.758,12.026c0,52.412,42.64,95.052,95.052,95.052  c16.623,0,32.986-4.356,47.319-12.599c3.591-2.065,4.828-6.649,2.764-10.24c-2.066-3.592-6.652-4.829-10.24-2.764  c-12.063,6.937-25.84,10.603-39.843,10.603c-44.141,0-80.052-35.911-80.052-80.052s35.911-80.052,80.052-80.052  s80.052,35.911,80.052,80.052c0,11.673-2.454,22.923-7.295,33.438c-1.732,3.763-0.087,8.217,3.676,9.949  c3.765,1.731,8.217,0.086,9.949-3.676c5.753-12.496,8.67-25.856,8.67-39.711c0-4.073-0.258-8.087-0.758-12.026h12.726  c14.793,0,26.827-12.034,26.827-26.827C512,287.013,509.631,281,505.709,276.334z M378.445,140.623l9.377,28.608h-26.809v-32.283  h12.359C375.686,136.948,377.725,138.425,378.445,140.623z M313.829,104.761c0-2.888,2.35-5.237,5.237-5.237  c2.889,0,5.238,2.35,5.238,5.237v0.166h-10.476v-0.166H313.829z M298.102,146.484h16.455v27.466h-16.455V146.484z M160.426,165.109  l29.048-31.092c8.365-8.954,20.19-14.09,32.445-14.09h61.183v146.816h-90.964c-10.792-11.274-24.327-19.899-39.519-24.801v-69.618  C155.373,170.113,157.992,167.714,160.426,165.109z M25.355,236.133h17.956c1.483,0,2.365,0.839,2.759,1.339  c0.394,0.501,1.001,1.555,0.652,2.996l-2.532,10.461c-0.975,4.026,1.499,8.08,5.524,9.054c0.593,0.144,7.285,1.13,9.054-5.524  l2.532-10.461c1.345-5.552,0.09-11.311-3.442-15.8s-8.834-7.064-14.547-7.064H25.535l0.083-6.961  c0.166-13.908,11.618-25.223,25.527-25.223h54.381c11.179,0,22.138-2.547,32.093-7.25v56.724c-4.61-0.69-9.327-1.051-14.126-1.051  c-26.958,0-51.33,11.282-68.645,29.371L25.25,266.47L25.355,236.133z M26.827,305.398c-6.521,0-11.827-5.306-11.827-11.827  s5.306-11.827,11.827-11.827h16.288c-4.606,7.279-8.249,15.224-10.754,23.654H26.827z M123.493,412.476  c-44.141,0-80.052-35.911-80.052-80.052s35.911-80.052,80.052-80.052s80.052,35.911,80.052,80.052S167.634,412.476,123.493,412.476z   M214.625,305.398c-2.505-8.431-6.147-16.375-10.754-23.654h93.904c-4.606,7.279-8.249,15.224-10.753,23.654H214.625z   M378.153,237.373c-26.958,0-51.33,11.282-68.645,29.371h-11.407V188.95h20.955c5.79,0,10.5-4.71,10.5-10.5v-36.466  c0-5.79-4.71-10.5-10.5-10.5h-20.955v-11.557h31.819c8.873,0,16.092,7.219,16.092,16.092v40.712v47.708c0,4.143,3.357,7.5,7.5,7.5  s7.5-3.357,7.5-7.5v-40.208h101.022c15.811,0,28.674,12.863,28.674,28.674v54.416c-1.787-0.376-3.638-0.577-5.536-0.577h-38.375  C429.483,248.655,405.112,237.373,378.153,237.373z M485.173,305.398h-15.888c-2.505-8.431-6.147-16.375-10.753-23.654h26.642  c6.521,0,11.827,5.306,11.827,11.827S491.694,305.398,485.173,305.398z"/>
<path d="M190.81,188.937c0,0-1.182,21.897,20.238,21.897c21.455,0,20.237-21.884,20.237-21.884h25.504  c6.737,0,12.219-5.481,12.219-12.219v-33.028c0-6.737-5.481-12.219-12.219-12.219h-35.303c-6.722,0-13.107,2.908-17.521,7.979  l-23.188,26.642c-3.594,4.128-4.417,9.788-2.149,14.77C180.845,185.742,185.491,188.8,190.81,188.937z M216.285,190.595  c0,2.889-2.35,5.238-5.237,5.238c-2.84,0-5.238-2.398-5.238-5.238v-14.037c0-2.888,2.35-5.237,5.238-5.237s5.237,2.35,5.237,5.237  V190.595z M221.487,146.484h32.521v27.466h-22.91c-3.97-17.479-21.361-17.592-22.006-17.53l6.188-7.109  C216.843,147.514,219.106,146.484,221.487,146.484z"/>
<g>
</g>
<g>
</g>
<g>
</g>
<g>
</g>
<g>
</g>
<g>
</g>
<g>
</g>
<g>
</g>
<g>
</g>
<g>
</g>
<g>
</g>
<g>
</g>
<g>
</g>
<g>
</g>
<g>
</g>
</svg>
