<?xml version="1.0" encoding="iso-8859-1"?>
<!-- Generator: Adobe Illustrator 19.0.0, SVG Export Plug-In . SVG Version: 6.00 Build 0)  -->
<svg xmlns="http://www.w3.org/2000/svg" xmlns:xlink="http://www.w3.org/1999/xlink" version="1.1" id="Layer_1" x="0px" y="0px" viewBox="0 0 512 512" style="enable-background:new 0 0 512 512;" xml:space="preserve">
<path style="fill:#D80027;" d="M256,405.409c-35.943,0-64.459-40.073-89.743-126.113c-17.696-60.219-28.27-125.479-28.27-153.783  C137.987,60.441,190.927,7.5,256,7.5c65.072,0,118.013,52.941,118.013,118.013c0,28.303-10.575,93.563-28.27,153.783  C320.46,365.337,291.943,405.409,256,405.409z M256,57.395c-37.561,0-68.119,30.558-68.119,68.119  c0,22.132,9.095,78.561,23.787,131.133c19.416,69.471,37.389,93.493,44.332,98.299c6.943-4.807,24.917-28.828,44.331-98.299  c14.693-52.572,23.788-109.001,23.788-131.133C324.119,87.953,293.561,57.395,256,57.395z"/>
<path style="fill:#FF0C38;" d="M256,7.5c-65.073,0-118.014,52.941-118.014,118.013c0,10.767,1.534,26.89,4.404,46.041  C137.832,42.146,256,57.395,256,57.395c37.561,0,68.119,30.558,68.119,68.119c0,22.132-9.095,78.561-23.788,131.133  c-19.415,69.471-37.388,93.493-44.331,98.299c-0.001-0.001-0.002-0.001-0.002-0.001l-0.001,50.465c0.001,0,0.002,0,0.003,0  c35.943,0,64.46-40.073,89.743-126.113c17.696-60.219,28.27-125.479,28.27-153.783C374.013,60.442,321.072,7.5,256,7.5z"/>
<path style="fill:#EEBF00;" d="M287.319,396.007h-62.638c-7.333,0-13.333-6-13.333-13.333v-43.29c0-7.333,6-13.333,13.333-13.333  h62.638c7.333,0,13.333,6,13.333,13.333v43.29C300.652,390.007,294.652,396.007,287.319,396.007z"/>
<path style="fill:#DDB200;" d="M252.764,383.064v-44.071c0-7.119,5.824-12.943,12.943-12.943H224.29  c-7.118,0-12.943,5.824-12.943,12.943v44.071c0,7.119,5.824,12.943,12.943,12.943h41.417  C258.588,396.007,252.764,390.182,252.764,383.064z"/>
<circle style="fill:#FFD422;" cx="256" cy="425.29" r="79.21"/>
<path style="fill:#EEBF00;" d="M221.445,425.292c0-35.989,24.011-66.352,56.881-75.995c-7.083-2.078-14.57-3.212-22.325-3.212  c-43.745,0-79.208,35.462-79.208,79.208S212.255,504.5,256,504.5c7.756,0,15.243-1.135,22.327-3.213  C245.456,491.646,221.445,461.282,221.445,425.292z"/>
<path style="fill:#FFE477;" d="M256,480.232c-30.294,0-54.94-24.646-54.94-54.94c0-30.295,24.646-54.94,54.94-54.94  c30.295,0,54.94,24.646,54.94,54.94C310.94,455.587,286.295,480.232,256,480.232z"/>
<path style="fill:#FFD422;" d="M241.878,372.201c-23.472,6.249-40.818,27.679-40.818,53.092c0,25.412,17.346,46.841,40.818,53.091  c-12.697-14.047-20.433-32.665-20.433-53.091C221.445,404.866,229.181,386.249,241.878,372.201z"/>
<path style="fill:#FFCD00;" d="M257.845,460.308c-4.021,0-7.28-3.259-7.28-7.28v-37.895l-6.793,6.793  c-2.843,2.842-7.453,2.842-10.296,0c-2.843-2.844-2.843-7.453,0-10.297l19.221-19.221c2.081-2.082,5.213-2.705,7.934-1.577  c2.721,1.126,4.494,3.781,4.494,6.726v55.471C265.125,457.049,261.866,460.308,257.845,460.308z"/>
<path d="M323.134,468.01c-3.267-2.545-7.979-1.961-10.525,1.307c-3.152,4.046-6.746,7.763-10.682,11.048  c-3.18,2.654-3.605,7.385-0.951,10.564c1.483,1.776,6.358,4.25,10.564,0.951c4.872-3.821,9.094-8.458,12.9-13.345  C326.986,475.268,326.401,470.555,323.134,468.01z"/>
<path d="M381.514,125.514C381.514,56.306,325.209,0,256,0c-69.208,0-125.514,56.306-125.514,125.514  c0,28.833,10.688,95.029,28.575,155.897c8.536,29.046,17.238,52.39,26.603,71.366c1.833,3.714,6.327,5.237,10.045,3.406  c3.714-1.833,5.239-6.33,3.406-10.045c-8.854-17.94-17.488-41.141-25.663-68.956c-10.819-36.816-18.942-75.438-23.573-106.134  c-1.278-37.549,8.069-65.723,27.788-83.743c7.673-7.011,16.329-11.923,25.001-15.348c-13.759,13.702-22.289,32.65-22.289,53.556  c0,22.626,9.2,79.967,24.064,133.151c6.505,23.275,13.369,43.359,20.453,59.886h-0.607c-11.272,0-20.443,9.171-20.443,20.442v17.076  c-20.974,15.841-34.555,40.975-34.555,69.224C169.292,473.104,208.189,512,256,512c11.578,0,22.822-2.246,33.42-6.677  c3.822-1.598,5.625-5.991,4.027-9.813c-1.599-3.821-5.989-5.622-9.813-4.027C274.879,495.144,265.581,497,256,497  c-39.54,0-71.708-32.168-71.708-71.707c0-39.54,32.168-71.708,71.708-71.708s71.708,32.168,71.708,71.708  c0,8.939-1.622,17.657-4.822,25.91c-1.497,3.862,0.42,8.207,4.282,9.704c3.859,1.494,8.206-0.421,9.704-4.282  c3.872-9.989,5.836-20.531,5.836-31.332c0-22.888-8.919-43.73-23.459-59.244c12.013-20.699,23.056-48.453,33.689-84.638  C370.825,220.541,381.514,154.345,381.514,125.514z M218.891,254.628c-14.521-51.962-23.51-107.478-23.51-129.114  c0-33.426,27.194-60.619,60.619-60.619c33.426,0,60.619,27.193,60.619,60.619c0,21.638-8.989,77.154-23.512,129.114  c-7.144,25.565-14.673,47.042-22.402,63.923h-29.404C233.565,301.652,226.03,280.171,218.891,254.628z M218.848,346.959v-7.966  c0-3.001,2.442-5.442,5.443-5.442h63.419c3.001,0,5.442,2.441,5.442,5.442v7.966c-11.267-5.365-23.865-8.374-37.152-8.374  C242.712,338.585,230.115,341.593,218.848,346.959z M308.152,355.194v-16.201c0-11.271-9.17-20.442-20.442-20.442h-0.606  c7.08-16.516,13.941-36.593,20.451-59.886c14.864-53.184,24.064-110.524,24.064-133.151c0-41.543-33.677-75.36-75.162-75.608  c0,0-54.415-5.095-88.806,26.234c-7.984,7.274-14.517,15.859-19.604,25.704C158.914,52.243,203.186,15,256,15  c60.938,0,110.514,49.576,110.514,110.514c0,27.771-10.461,92.095-27.966,151.669C328.819,310.288,318.837,335.91,308.152,355.194z"/>
<g>
</g>
<g>
</g>
<g>
</g>
<g>
</g>
<g>
</g>
<g>
</g>
<g>
</g>
<g>
</g>
<g>
</g>
<g>
</g>
<g>
</g>
<g>
</g>
<g>
</g>
<g>
</g>
<g>
</g>
</svg>
