<?xml version="1.0" encoding="iso-8859-1"?>
<!-- Generator: Adobe Illustrator 19.0.0, SVG Export Plug-In . SVG Version: 6.00 Build 0)  -->
<svg xmlns="http://www.w3.org/2000/svg" xmlns:xlink="http://www.w3.org/1999/xlink" version="1.1" id="Layer_1" x="0px" y="0px" viewBox="0 0 512.001 512.001" style="enable-background:new 0 0 512.001 512.001;" xml:space="preserve">
<path style="fill:#2D2D30;" d="M143.912,297.276L14.126,340.847c-8.078,2.712-9.001,13.768-1.484,17.782L78.4,393.742  c16.568,8.847,35.618,11.901,54.121,8.677l156.042-27.192L143.912,297.276z"/>
<path style="fill:#1D1D1F;" d="M183.116,318.402L33.86,369.959l44.54,23.784c16.568,8.847,35.618,11.901,54.121,8.677  l156.042-27.192L183.116,318.402z"/>
<path style="fill:#FFDA44;" d="M146.758,373.945c-18.503,3.224-37.553,0.17-54.121-8.677L34.25,334.091l-20.124,6.756  c-8.078,2.712-9.001,13.768-1.484,17.782L78.4,393.742c16.568,8.847,35.618,11.901,54.121,8.677l156.042-27.192l-36.448-19.642  L146.758,373.945z"/>
<path style="fill:#FFCD00;" d="M252.115,355.586l-105.357,18.359c-18.503,3.224-37.553,0.17-54.121-8.677l-17.754-9.48  L33.86,369.959l44.54,23.784c16.568,8.847,35.618,11.901,54.121,8.677l156.042-27.192L252.115,355.586z"/>
<circle style="fill:#2D2D30;" cx="329.119" cy="131.02" r="22.672"/>
<path style="fill:#57565C;" d="M329.249,131.147c-96.027-6.698-181.869,77.989-204.246,194.833  c-2.334,12.186,5.683,23.963,17.85,26.397l56.748,11.351c27.064,5.413,54.447,9.092,81.98,11.012l61.443,4.286  c27.534,1.92,55.162,2.079,82.715,0.475l57.392-3.341c12.385-0.721,21.959-11.269,21.342-23.66  C498.552,233.657,425.29,137.846,329.249,131.147z"/>
<g>
	<path style="fill:#3E3D42;" d="M287.131,354.448c-11.497-83.872,4.973-163.693,42.404-223.276c-0.096-0.007-0.19-0.017-0.286-0.024   c-96.027-6.698-181.869,77.989-204.246,194.833c-2.334,12.186,5.683,23.963,17.85,26.397l56.748,11.351   c27.064,5.414,54.447,9.092,81.98,11.012l21.168,1.476C294.562,372.098,288.466,364.184,287.131,354.448z"/>
	<path style="fill:#3E3D42;" d="M218.267,367.167c20.965,3.558,42.094,6.094,63.314,7.574l61.443,4.286   c15.659,1.092,31.349,1.594,47.039,1.546c0.07-0.26,41.307-154.37-60.814-249.425C329.249,131.147,217.052,191.999,218.267,367.167   z"/>
</g>
<path style="fill:#2D2D30;" d="M287.131,354.448c-11.487-83.799,42.182-223.241,42.118-223.301c0,0-112.197,60.852-110.982,236.019  c20.965,3.558,42.094,6.094,63.314,7.574l21.168,1.476C294.562,372.098,288.466,364.184,287.131,354.448z"/>
<g>
	<path style="fill:#3E3D42;" d="M450.118,271.261c-7.418-18.197-16.877-34.697-28.116-49.042c-2.48-3.165-1.924-7.741,1.241-10.221   c3.165-2.477,7.741-1.923,10.221,1.242c12.071,15.407,22.211,33.079,30.138,52.525c1.518,3.724-0.247,8.03-3.994,9.49   C454.995,277.051,451.269,274.085,450.118,271.261z"/>
	<path style="fill:#3E3D42;" d="M461.609,307.552c-1.154-4.949-2.468-9.902-3.907-14.721c-1.15-3.852,1.04-7.908,4.893-9.059   c3.853-1.153,7.909,1.04,9.059,4.893c1.523,5.101,2.915,10.344,4.135,15.582c0.913,3.916-1.472,8.077-5.437,8.743   C465.673,313.776,462.392,310.913,461.609,307.552z"/>
</g>
<path style="fill:#FFE477;" d="M131.567,298.594l36.752,8.75c9.703,2.31,19.653-2.74,23.516-11.937l37.369-88.974  c5.192-12.362-2.757-26.283-16.042-28.092c-2.625-0.357-5.387-0.734-8.248-1.123C171.887,206.92,145.877,249.107,131.567,298.594z"/>
<path style="fill:#FFDA44;" d="M225.786,185.16c-3.094-3.569-7.451-6.114-12.624-6.818c-2.625-0.357-5.387-0.734-8.248-1.123  c-33.028,29.702-59.038,71.889-73.347,121.376l20.643,4.915C167.782,255.779,193.588,214.916,225.786,185.16z"/>
<circle style="fill:#FFE477;" cx="314.549" cy="296.78" r="41.1"/>
<path style="fill:#FFDA44;" d="M273.452,296.772c0,11.374,4.622,21.668,12.089,29.109c0.236-20.276,2.938-42.184,6.896-63.743  C281.024,269.441,273.452,282.218,273.452,296.772z"/>
<path d="M511.964,352.127c-2.96-59.408-22.636-115.159-55.404-156.983c-26.563-33.904-60.405-56.874-97.374-66.603  c-1.265-15.482-14.259-27.695-30.061-27.695c-14.375,0-26.427,10.108-29.44,23.587c-39.581,4.779-77.888,24.407-109.517,56.487  c-36.03,36.544-61.789,87.56-72.531,143.65c-3.093,16.15,7.559,31.924,23.745,35.161l20.136,4.028l-16.047,2.796  c-16.773,2.924-34.282,0.117-49.301-7.903l-43.046-22.986l57.75-19.388c3.927-1.318,6.041-5.57,4.723-9.497  s-5.568-6.039-9.497-4.724l-94.36,31.679c-6.622,2.224-11.096,7.928-11.677,14.888c-0.582,6.961,2.885,13.329,9.047,16.621  l65.758,35.113c13.323,7.113,28.284,10.797,43.308,10.797c5.226,0,10.459-0.446,15.634-1.348l155.146-27.035l53.547,3.734  c15.106,1.054,30.445,1.589,45.593,1.589c0.001,0,0.002,0,0.003,0c12.641,0,25.453-0.373,38.077-1.107l57.392-3.341  C500.043,382.688,512.781,368.548,511.964,352.127z M329.125,115.846c6.294,0,11.703,3.854,13.997,9.325  c-4.418-0.688-8.87-1.192-13.351-1.504c-3.704-0.259-12.849-0.368-13.692-0.355C318.723,118.852,323.574,115.846,329.125,115.846z   M207.558,185.148l4.592,0.625c4.002,0.545,7.446,2.869,9.449,6.376c2.003,3.508,2.255,7.655,0.69,11.38l-37.369,88.975  c-2.452,5.839-8.702,9.013-14.863,7.545l-28.985-6.901C155.03,249.447,178.449,212.172,207.558,185.148z M132.369,327.392  c1.288-6.726,2.795-13.337,4.504-19.825l29.71,7.073c2.184,0.521,4.372,0.771,6.53,0.771c11.013,0,21.201-6.532,25.638-17.099  l37.369-88.975c3.386-8.06,2.841-17.036-1.494-24.627c-2.99-5.236-7.466-9.253-12.797-11.629  c25.135-19.308,53.653-31.393,83.515-34.176c-10.683,8.781-24.365,21.872-38.036,40.057c-16.674,22.18-29.9,47.415-39.311,75.007  c-10.852,31.816-16.615,66.857-17.183,104.272c-3.255-0.598-66.49-13.218-66.49-13.218  C136.182,343.394,130.819,335.485,132.369,327.392z M131.234,395.031c-16.771,2.925-34.281,0.116-49.301-7.904l-65.757-35.112  c-1.063-0.568-1.22-1.478-1.165-2.141s0.361-1.533,1.503-1.916l17.057-5.726l55.534,29.654  c13.322,7.113,28.281,10.796,43.306,10.796c5.226,0,10.461-0.446,15.636-1.348l53.83-9.38l-0.027-0.158  c10.562,2.048,21.21,3.839,31.905,5.37L131.234,395.031z M282.103,367.259c-18.787-1.311-37.64-3.491-56.314-6.467  c0.79-84.408,29.08-140.09,53.021-172.165c20.134-26.975,40.578-42.183,49.446-48.047c38.241,37.663,59.169,88.466,62.226,151.104  c1.846,37.821-3.737,69.109-6.37,81.377c-13.504-0.085-27.126-0.58-40.565-1.517L282.103,367.259z M482.695,368.673l-57.392,3.341  c-8.564,0.498-17.214,0.815-25.836,0.968c2.985-14.76,7.791-45.247,5.996-82.03c-1.466-30.048-7.059-58.13-16.623-83.466  c-9.288-24.607-22.357-46.638-38.958-65.752c80.081,17.997,141.786,104.506,147.099,211.139  C497.392,361.103,490.983,368.191,482.695,368.673z"/>
<path d="M314.55,248.186c-16.709,0-32.046,8.426-41.027,22.539c-2.224,3.494-1.193,8.13,2.301,10.354  c3.495,2.226,8.13,1.193,10.354-2.301c6.212-9.763,16.819-15.592,28.372-15.592c18.526,0,33.598,15.072,33.598,33.598  s-15.072,33.599-33.598,33.599c-6.706,0-13.177-1.968-18.714-5.689c-3.438-2.312-8.098-1.397-10.409,2.041  s-1.397,8.098,2.041,10.408c8.02,5.391,17.385,8.24,27.082,8.24c26.797,0,48.598-21.801,48.598-48.599  C363.148,269.987,341.347,248.186,314.55,248.186z"/>
<path d="M283.652,310.007c-1.792-4.181-2.7-8.63-2.7-13.224c0-4.143-3.358-7.5-7.5-7.5s-7.5,3.357-7.5,7.5  c0,6.637,1.369,13.052,3.913,19.132c2.485,5.938,8.885,4.353,9.848,3.939C283.52,318.223,285.284,313.814,283.652,310.007z"/>
<g>
</g>
<g>
</g>
<g>
</g>
<g>
</g>
<g>
</g>
<g>
</g>
<g>
</g>
<g>
</g>
<g>
</g>
<g>
</g>
<g>
</g>
<g>
</g>
<g>
</g>
<g>
</g>
<g>
</g>
</svg>
