<?xml version="1.0" encoding="iso-8859-1"?>
<!-- Generator: Adobe Illustrator 19.0.0, SVG Export Plug-In . SVG Version: 6.00 Build 0)  -->
<svg xmlns="http://www.w3.org/2000/svg" xmlns:xlink="http://www.w3.org/1999/xlink" version="1.1" id="Layer_1" x="0px" y="0px" viewBox="0 0 512 512" style="enable-background:new 0 0 512 512;" xml:space="preserve">
<g>
	<path style="fill:#ACABB1;" d="M194.012,325.707c-7.611,0-24.26-6.509-46.13-24.849c-20.435-17.137-35.287-35.988-40.939-47.069   C95.318,231,104.4,203.002,127.189,191.378c6.611-3.373,13.685-5.083,21.023-5.083c17.56,0,33.419,9.705,41.389,25.328   c6.571,12.882,13.656,40.679,14.482,68.885C205.019,312.488,198.848,325.707,194.012,325.707z M215.541,198.39   c-18.952-37.152-64.434-51.905-101.586-32.953S62.05,229.871,81.002,267.023s90.712,103.418,127.864,84.465   C246.018,332.536,234.493,235.542,215.541,198.39z"/>
	<path style="fill:#ACABB1;" d="M307.918,280.508c0.826-28.205,7.911-56.003,14.482-68.885c7.97-15.623,23.829-25.328,41.389-25.328   c7.338,0,14.411,1.71,21.023,5.083c22.789,11.625,31.871,39.623,20.246,62.411c-5.652,11.081-20.503,29.932-40.939,47.069   c-21.871,18.34-38.519,24.849-46.13,24.849C313.152,325.707,306.981,312.488,307.918,280.508z M303.134,351.488   c37.152,18.952,108.911-47.314,127.864-84.465c18.952-37.152,4.199-82.633-32.953-101.586   c-37.152-18.952-82.633-4.199-101.586,32.953C277.507,235.542,265.982,332.536,303.134,351.488z"/>
</g>
<path style="fill:#C6C5CA;" d="M277.156,375.287h-42.312c0,0,3.906,33.849-24.736,58.585h91.784  C273.25,409.136,277.156,375.287,277.156,375.287z"/>
<path style="fill:#ACABB1;" d="M277.156,375.287h-42.312c0,0,3.906,33.849-24.736,58.585H256  c14.047-12.131,20.256-26.447,22.946-37.895C276.151,384.084,277.156,375.287,277.156,375.287z"/>
<g>
	<path style="fill:#898890;" d="M128.911,159.714v30.848c6.114-2.821,12.594-4.266,19.301-4.266c17.56,0,33.419,9.705,41.389,25.328   c6.571,12.882,13.656,40.679,14.482,68.885c0.937,31.979-5.235,45.198-10.071,45.198c-7.611,0-24.26-6.509-46.13-24.849   c-4.339-3.638-8.408-7.353-12.209-11.056c4.598,18.307,11.5,35.972,20.525,52.572c19.356,11.183,38.522,16.33,52.668,9.113   c37.152-18.952,25.627-115.946,6.675-153.098C199.072,166.108,162.572,150.752,128.911,159.714z"/>
	<path style="fill:#898890;" d="M383.089,159.714v30.848c-6.114-2.821-12.594-4.266-19.301-4.266   c-17.56,0-33.419,9.705-41.389,25.328c-6.571,12.882-13.656,40.679-14.482,68.885c-0.937,31.979,5.235,45.198,10.071,45.198   c7.611,0,24.26-6.509,46.13-24.849c4.339-3.638,8.408-7.353,12.209-11.056c-4.598,18.307-11.5,35.972-20.525,52.572   c-19.356,11.183-38.522,16.33-52.668,9.113c-37.152-18.952-25.627-115.946-6.675-153.098   C312.928,166.108,349.428,150.752,383.089,159.714z"/>
</g>
<path style="fill:#E0E0E2;" d="M158.032,146.153v89.012c0,46.727,16.755,91.906,47.223,127.333l24.834,28.877  c13.636,15.855,38.186,15.855,51.822,0l24.834-28.877c30.468-35.428,47.223-80.606,47.223-127.333v-89.012L158.032,146.153  L158.032,146.153z"/>
<g>
	<path style="fill:#D8D7DA;" d="M315.171,291.493c-3.728-1.507-5.982-5.276-4.787-9.116c1.61-5.17,2.969-10.484,4.042-15.794   c0.796-3.942,4.637-6.493,8.578-5.695c3.941,0.796,6.491,4.636,5.695,8.577c-1.171,5.797-2.655,11.596-4.412,17.24   C323.316,289.825,319.449,293.222,315.171,291.493z"/>
	<path style="fill:#D8D7DA;" d="M279.919,349.03c-3.031-2.641-3.394-7.219-0.773-10.267c9.758-11.345,17.858-24.008,24.076-37.637   c1.669-3.658,5.988-5.273,9.645-3.601c3.658,1.669,5.27,5.987,3.601,9.645c-6.788,14.877-15.631,28.701-26.283,41.087   C288.746,349.932,283.827,352.435,279.919,349.03z"/>
	<path style="fill:#D8D7DA;" d="M216.944,235.165v-89.012h-58.912v89.012c0,46.727,16.755,91.906,47.223,127.333l24.834,28.877   c13.636,15.855,38.186,15.855,51.822,0l3.545-4.122l-21.289-24.755C233.699,327.071,216.944,281.892,216.944,235.165z"/>
	<rect x="158.03" y="146.15" style="fill:#D8D7DA;" width="195.94" height="46.12"/>
</g>
<path style="fill:#C6C5CA;" d="M256,7.5L256,7.5c-7.161,0-13.019,5.859-13.019,13.019v24.085c0,7.16,5.859,13.019,13.019,13.019l0,0  c7.16,0,13.019-5.859,13.019-13.019V20.519C269.019,13.359,263.16,7.5,256,7.5z"/>
<path style="fill:#ACABB1;" d="M256.932,44.604V20.519c0-4.596,2.421-8.647,6.044-10.965C260.954,8.261,258.564,7.5,256,7.5l0,0  c-7.16,0-13.019,5.859-13.019,13.019v24.085c0,7.16,5.859,13.019,13.019,13.019l0,0c2.564,0,4.954-0.761,6.975-2.054  C259.352,53.251,256.932,49.201,256.932,44.604z"/>
<path style="fill:#C6C5CA;" d="M283.01,61.529h-54.026c0,0-4.557,31.246-37.755,42.312h129.536  C287.566,92.775,283.01,61.529,283.01,61.529z"/>
<path style="fill:#ACABB1;" d="M228.984,61.529c0,0-4.557,31.246-37.755,42.312H248.5c23.848-7.949,32.916-26.311,36.132-36.024  c-1.261-3.808-1.623-6.287-1.623-6.287h-54.025V61.529z"/>
<path style="fill:#E0E0E2;" d="M313.875,96.68H198.119c-13.779,0-26.359,7.838-32.431,20.207l-7.656,15.595h195.93l-7.656-15.595  C340.234,104.519,327.654,96.68,313.875,96.68z"/>
<path style="fill:#D8D7DA;" d="M269.951,96.68h-71.832c-13.779,0-26.359,7.838-32.431,20.207l-7.656,15.595h71.832l7.656-15.595  C243.592,104.518,256.171,96.68,269.951,96.68z"/>
<path style="fill:#C6C5CA;" d="M350.058,170.238H161.942c-7.7,0-14-6.3-14-14v-20.17c0-7.7,6.3-14,14-14h188.115c7.7,0,14,6.3,14,14  v20.17C364.058,163.938,357.758,170.238,350.058,170.238z"/>
<path style="fill:#ACABB1;" d="M223.146,156.648v-20.991c0-7.474,6.115-13.59,13.59-13.59h-75.203c-7.474,0-13.59,6.115-13.59,13.59  v20.991c0,7.474,6.115,13.59,13.59,13.59h75.203C229.261,170.238,223.146,164.122,223.146,156.648z"/>
<path style="fill:#E0E0E2;" d="M255.997,27.029c-17.182,0-31.866,10.694-37.76,25.789c-2.764,7.078,2.38,14.732,9.978,14.732h55.564  c7.599,0,12.742-7.654,9.978-14.732C287.863,37.723,273.179,27.029,255.997,27.029z"/>
<path style="fill:#D8D7DA;" d="M218.237,52.818c-2.764,7.078,2.38,14.732,9.978,14.732h35.431c-7.599,0-12.742-7.654-9.978-14.732  c3.715-9.514,10.923-17.275,20.045-21.717c-5.352-2.606-11.362-4.072-17.715-4.072C238.815,27.029,224.13,37.723,218.237,52.818z"/>
<circle style="fill:#ACABB1;" cx="256" cy="146.15" r="12.01"/>
<g>
	<path style="fill:#898890;" d="M256,145.164c4.645,0,8.666,2.641,10.664,6.499c0.855-1.652,1.346-3.522,1.346-5.51   c0-6.633-5.377-12.01-12.01-12.01s-12.01,5.377-12.01,12.01c0,1.988,0.491,3.859,1.346,5.51   C247.334,147.805,251.355,145.164,256,145.164z"/>
	<path style="fill:#898890;" d="M148.032,134.147c-0.056,0.497-0.09,0.999-0.09,1.51v20.991c0,0.511,0.034,1.013,0.09,1.51   c6.591-0.049,11.92-5.403,11.92-12.005C159.952,139.55,154.623,134.196,148.032,134.147z"/>
	<circle style="fill:#898890;" cx="201.97" cy="146.15" r="12.01"/>
</g>
<g>
	<circle style="fill:#ACABB1;" cx="309.56" cy="146.15" r="12.01"/>
	<path style="fill:#ACABB1;" d="M364.058,156.648v-20.991c0-0.511-0.034-1.013-0.09-1.51c-6.591,0.049-11.92,5.403-11.92,12.005   c0,6.603,5.329,11.957,11.92,12.005C364.023,157.661,364.058,157.159,364.058,156.648z"/>
</g>
<path style="fill:#787680;" d="M201.971,145.164c4.645,0,8.666,2.641,10.664,6.499c0.855-1.652,1.346-3.522,1.346-5.51  c0-6.633-5.377-12.01-12.01-12.01s-12.01,5.377-12.01,12.01c0,1.988,0.491,3.859,1.346,5.51  C193.306,147.805,197.327,145.164,201.971,145.164z"/>
<g>
	<path style="fill:#898890;" d="M309.564,145.164c4.645,0,8.666,2.641,10.664,6.499c0.855-1.652,1.346-3.522,1.346-5.51   c0-6.633-5.377-12.01-12.01-12.01s-12.01,5.377-12.01,12.01c0,1.988,0.491,3.859,1.346,5.51   C300.899,147.805,304.92,145.164,309.564,145.164z"/>
	<path style="fill:#898890;" d="M363.968,134.147c-6.591,0.049-11.92,5.403-11.92,12.005c0,1.988,0.491,3.859,1.346,5.51   c1.998-3.858,6.019-6.499,10.664-6.499v-9.511C364.058,135.144,364.023,134.642,363.968,134.147z"/>
</g>
<path style="fill:#787680;" d="M148.032,134.147c6.591,0.049,11.92,5.403,11.92,12.005c0,1.988-0.491,3.859-1.346,5.51  c-1.998-3.858-6.019-6.499-10.664-6.499v-9.511C147.942,135.144,147.977,134.642,148.032,134.147z"/>
<path style="fill:#FFE477;" d="M301.578,504.5h-91.157c-7.333,0-13.333-6-13.333-13.333v-53.4c0-7.333,6-13.333,13.333-13.333  h91.157c7.333,0,13.333,6,13.333,13.333v53.4C314.912,498.5,308.912,504.5,301.578,504.5z"/>
<path style="fill:#FFDA44;" d="M252.764,491.558v-54.181c0-7.118,5.824-12.943,12.943-12.943h-55.676  c-7.118,0-12.943,5.824-12.943,12.943v54.181c0,7.119,5.824,12.943,12.943,12.943h55.676  C258.589,504.5,252.764,498.676,252.764,491.558z"/>
<path d="M115.383,300.056c-2.086-2.161-4.132-4.363-6.083-6.543c-2.762-3.087-7.504-3.353-10.59-0.59  c-3.087,2.762-3.352,7.503-0.59,10.59c2.076,2.32,4.132,4.784,6.468,6.959c4.161,3.874,9.149,1.594,10.605,0.189  C118.175,307.784,118.26,303.036,115.383,300.056z"/>
<path d="M442.694,207.052c-6.842-21.092-21.489-38.258-41.242-48.334c-9.449-4.821-19.484-7.739-29.895-8.714v-13.937  c0-10.617-7.743-19.438-17.874-21.17c0,0-12.934-25.717-39.809-25.717h-6.033l0.272-0.353c-6.83-5.279-11.123-11.564-13.819-17.122  c1.743-1.233,3.281-2.776,4.52-4.589c3.417-5.003,4.138-11.367,1.928-17.025c-7.249-18.565-24.813-30.562-44.747-30.562  c-1.846,0-3.67,0.104-5.469,0.305C250.867,17.113,253.189,15,256,15c1.041,0,2.057,0.298,2.938,0.861  c3.487,2.231,8.126,1.212,10.359-2.277c2.231-3.489,1.212-8.127-2.277-10.359C263.722,1.115,259.911,0,256,0  c-11.314,0-20.519,9.205-20.519,20.52v3.558c-10.876,5.104-19.631,14.233-24.23,26.013c-2.209,5.658-1.489,12.023,1.928,17.025  c1.239,1.814,2.777,3.357,4.521,4.591c-2.76,5.689-7.209,12.135-14.306,17.474h-5.275c-25.452,0-39.809,25.718-39.809,25.718  c-10.128,1.734-17.867,10.554-17.867,21.169v13.976c-10.411,0.974-20.446,3.893-29.895,8.714  C90.795,168.834,76.149,186,69.306,207.092c-6.842,21.093-5.061,43.587,5.016,63.34c2.716,5.325,6.328,11.213,10.948,17.34  c3.355,4.45,9.147,2.58,10.486,1.596c3.336-2.455,4.05-7.15,1.595-10.486c-4.067-5.527-7.32-10.663-9.667-15.266  c-8.256-16.184-9.715-34.613-4.109-51.895s17.606-31.346,33.79-39.602c7.88-4.02,16.25-6.431,24.931-7.187  c1.745,3.927,4.632,7.226,8.237,9.496l0.091,4.549c-8.535,0-19.167,1.803-26.843,5.72c-12.806,6.532-22.307,17.679-26.754,31.386  c-4.446,13.707-3.297,28.309,3.235,41.113c5.996,11.755,21.555,31.592,42.801,49.409c10.217,8.567,20.037,15.246,29.223,19.915  c3.352,6.645,7.074,13.115,11.154,19.377c-15.531-3.858-34.907-15.412-54.572-32.896c-3.095-2.752-7.836-2.473-10.588,0.622  c-2.752,3.096-2.38,7.733,0.622,10.589c40.432,38.467,75.969,38.097,76.446,38.083c1.381,1.716,29.491,34.448,29.708,34.689  c-2.029,7.262-5.223,13.948-9.53,19.95h-5.104c-11.487,0-20.833,9.346-20.833,20.833v53.4c0,11.487,9.346,20.833,20.833,20.833  h91.157c11.487,0,20.833-9.346,20.833-20.833v-53.4c0-11.487-9.346-20.833-20.833-20.833h-5.085  c-4.307-6.002-7.512-12.693-9.543-19.956c0.215-0.238,28.345-32.995,29.738-34.726c0.401,0.01,0.798,0.031,1.202,0.031  c43.101,0,102.592-58.182,119.788-91.891C447.755,250.639,449.537,228.145,442.694,207.052z M361.25,193.721  c6.142,0,14.607,1.471,20.153,4.299c19.105,9.746,26.719,33.218,16.973,52.323c-5.135,10.066-19.553,28.357-39.077,44.729  c-3.13,2.625-6.243,5.057-9.312,7.312c7.534-21.439,11.481-44.154,11.481-67.219L361.25,193.721z M225.223,55.546  c4.984-12.767,17.064-21.017,30.774-21.017c13.709,0,25.789,8.25,30.774,21.017c0.564,1.444,0.028,2.568-0.342,3.109  c-0.356,0.521-1.174,1.396-2.65,1.396h-55.564c-1.477,0-2.294-0.874-2.65-1.396C225.195,58.114,224.659,56.99,225.223,55.546z   M232.641,75.051h46.707c1.841,4.374,4.456,9.273,8.157,14.13h-63.026C228.178,84.325,230.799,79.427,232.641,75.051z   M198.119,104.181h115.756c8.565,0,16.65,3.937,22.026,10.387H176.092C181.468,108.118,189.553,104.181,198.119,104.181z   M155.442,136.067c0-3.584,2.916-6.5,6.5-6.5h188.115c3.584,0,6.5,2.916,6.5,6.5v20.171c0,3.584-2.916,6.5-6.5,6.5H161.942  c-3.584,0-6.5-2.916-6.5-6.5V136.067z M152.701,295.111c-19.525-16.374-33.943-34.665-39.077-44.73  c-4.712-9.236-5.539-19.773-2.329-29.669c3.21-9.896,10.065-17.941,19.302-22.653c5.546-2.829,13.886-4.088,20.028-4.088  l-0.093,41.194c0,23.084,3.954,45.817,11.5,67.271C158.957,300.178,155.838,297.742,152.701,295.111z M307.412,437.767v53.4  c0,3.217-2.617,5.833-5.833,5.833h-91.157c-3.216,0-5.833-2.616-5.833-5.833v-53.4c0-3.217,2.617-5.833,5.833-5.833h91.157  C304.795,431.934,307.412,434.55,307.412,437.767z M233.149,416.934c1.775-3.332,3.309-6.799,4.595-10.39  c5.622,2.74,11.847,4.223,18.257,4.223c6.413,0,12.642-1.485,18.267-4.229c1.287,3.59,2.807,7.063,4.582,10.396L233.149,416.934  L233.149,416.934z M301.059,357.607l-24.834,28.877c-5.073,5.899-12.444,9.282-20.224,9.282s-15.152-3.383-20.225-9.282  l-24.834-28.877c-29.283-34.049-45.409-77.533-45.409-122.442v-57.427h180.936v57.427  C346.468,280.074,330.341,323.559,301.059,357.607z M424.316,263.575c-8.37,16.409-27.872,38.772-48.525,55.648  c-17.222,14.072-33.685,23.288-47.211,26.643c4.084-6.269,7.808-12.747,11.162-19.4c9.181-4.668,18.992-11.343,29.196-19.9  c21.244-17.815,36.804-37.651,42.8-49.407c13.504-26.474,2.954-58.997-23.52-72.502c-7.677-3.915-18.185-5.687-26.719-5.687  l-0.032-4.543c3.617-2.277,6.512-5.59,8.255-9.533c8.675,0.758,17.039,3.167,24.913,7.185c16.184,8.256,28.184,22.32,33.79,39.602  S432.573,247.392,424.316,263.575z"/>
<g>
</g>
<g>
</g>
<g>
</g>
<g>
</g>
<g>
</g>
<g>
</g>
<g>
</g>
<g>
</g>
<g>
</g>
<g>
</g>
<g>
</g>
<g>
</g>
<g>
</g>
<g>
</g>
<g>
</g>
</svg>
