<?xml version="1.0" encoding="iso-8859-1"?>
<!-- Generator: Adobe Illustrator 19.0.0, SVG Export Plug-In . SVG Version: 6.00 Build 0)  -->
<svg xmlns="http://www.w3.org/2000/svg" xmlns:xlink="http://www.w3.org/1999/xlink" version="1.1" id="Layer_1" x="0px" y="0px" viewBox="0 0 511.999 511.999" style="enable-background:new 0 0 511.999 511.999;" xml:space="preserve">
<g>
	<path style="fill:#FFDAAA;" d="M480.193,115.134c5.665-1.127,11.072-3.883,15.463-8.274c11.815-11.815,11.814-30.969,0-42.784   c-8.704-8.704-21.39-10.987-32.192-6.866c-1.652-5.043-4.473-9.785-8.48-13.794c-13.636-13.636-35.744-13.636-49.378,0   c-13.636,13.636-13.636,35.744,0,49.378c0.002,0.002,0.003,0.003,0.005,0.005c-0.066,0.066-0.136,0.126-0.202,0.192   c-17.332,17.332-17.332,45.434,0,62.766s45.434,17.332,62.766,0C479.204,144.728,483.202,129.337,480.193,115.134z"/>
	<circle style="fill:#FFDAAA;" cx="395.122" cy="217.419" r="23.58"/>
	<circle style="fill:#FFDAAA;" cx="458.077" cy="228.748" r="13.735"/>
	<circle style="fill:#FFDAAA;" cx="427.549" cy="292.132" r="16.79"/>
</g>
<path style="fill:#5EAC24;" d="M371.157,149.696l43.173-43.173L397.046,89.24l-17.283-17.283l-43.173,43.173  c-17.701,17.701-39.045,31.335-62.548,39.952l-45.189,16.569c-29.993,10.998-57.231,28.395-79.82,50.984L21.175,350.494  c-14.298,14.298-17.773,36.278-8.327,54.155c12.64,23.921,29.281,39.507,29.281,39.507s15.587,16.641,39.507,29.281  c17.877,9.446,39.857,5.97,54.155-8.327l127.858-127.858c22.589-22.589,39.987-49.826,50.984-79.82l16.569-45.189  C339.822,188.742,353.456,167.398,371.157,149.696z"/>
<g>
	<path style="fill:#4E901E;" d="M65.749,395.068l127.858-127.858c22.589-22.589,49.826-39.987,79.82-50.984l45.189-16.569   c7.941-2.912,15.629-6.409,23.02-10.43c7.878-14.484,17.802-27.808,29.523-39.529l43.173-43.173L397.048,89.24l-17.283-17.283   l-43.173,43.173c-17.701,17.701-39.045,31.335-62.548,39.952l-45.189,16.569c-29.993,10.998-57.231,28.395-79.82,50.984   L21.177,350.494c-14.298,14.298-17.773,36.278-8.327,54.155c12.64,23.921,29.281,39.507,29.281,39.507s9.242,9.861,24.406,20.167   c-3.083-4.536-6.204-9.594-9.114-15.102C47.975,431.345,51.451,409.365,65.749,395.068z"/>
	<path style="fill:#4E901E;" d="M60.202,425.814c0,0-15.398-15.76-24.606-33.186c-4.106-7.77-2.554-17.614,3.773-23.941   l127.858-127.858c19.809-19.809,44.183-35.378,70.484-45.02l45.19-16.571c19.819-7.267,38.565-17.833,55.155-31.006   c-13.172,16.588-23.739,35.335-31.006,55.155l-16.569,45.188c-9.644,26.302-25.212,50.675-45.021,70.485L117.601,446.917   c-6.326,6.326-16.172,7.877-23.942,3.772C76.232,441.482,60.202,425.814,60.202,425.814z"/>
</g>
<g>
	<path style="fill:#47821C;" d="M193.607,267.209c22.589-22.589,49.826-39.987,79.82-50.984l33.406-12.249l0.216-0.589   c7.268-19.82,17.834-38.566,31.006-55.155c-16.588,13.172-35.335,23.739-55.155,31.006l-45.19,16.571   c-26.301,9.643-50.674,25.211-70.484,45.02L39.368,368.688c-6.326,6.326-7.877,16.172-3.773,23.941   c5.195,9.831,12.359,19.13,17.617,25.37c1.856-8.484,6.092-16.488,12.535-22.931L193.607,267.209z"/>
	<path style="fill:#47821C;" d="M210.946,326.657c-1.912,0-3.796-0.776-5.145-2.126c-1.359-1.359-2.135-3.233-2.135-5.145   c0-1.922,0.776-3.796,2.135-5.154c1.349-1.349,3.223-2.126,5.145-2.126c1.912,0,3.795,0.776,5.145,2.126   c1.359,1.359,2.136,3.233,2.136,5.154c0,1.912-0.777,3.786-2.136,5.145C214.741,325.881,212.858,326.657,210.946,326.657z"/>
	<path style="fill:#47821C;" d="M198.883,298.661c-1.912,0-3.796-0.776-5.145-2.126c-1.359-1.359-2.135-3.233-2.135-5.145   c0-1.922,0.776-3.796,2.135-5.154c1.349-1.349,3.223-2.126,5.145-2.126c1.912,0,3.795,0.776,5.145,2.126   c1.359,1.359,2.136,3.233,2.136,5.154c0,1.912-0.777,3.786-2.136,5.145C202.678,297.886,200.795,298.661,198.883,298.661z"/>
	<path style="fill:#47821C;" d="M85.717,415.136c-1.912,0-3.796-0.776-5.145-2.126c-1.359-1.359-2.135-3.233-2.135-5.145   c0-1.922,0.776-3.796,2.135-5.154c1.349-1.349,3.223-2.126,5.145-2.126c1.912,0,3.795,0.776,5.145,2.126   c1.359,1.359,2.136,3.233,2.136,5.154c0,1.912-0.777,3.786-2.136,5.145C89.512,414.359,87.629,415.136,85.717,415.136z"/>
	<path style="fill:#47821C;" d="M117.783,418.412c-1.912,0-3.796-0.776-5.145-2.126c-1.359-1.359-2.135-3.233-2.135-5.145   c0-1.922,0.776-3.796,2.135-5.154c1.349-1.349,3.223-2.126,5.145-2.126c1.912,0,3.795,0.776,5.145,2.126   c1.359,1.359,2.136,3.233,2.136,5.154c0,1.912-0.777,3.786-2.136,5.145C121.577,417.636,119.695,418.412,117.783,418.412z"/>
</g>
<path style="fill:#FFE477;" d="M397.046,89.24l-17.283-17.283l-43.173,43.173c-17.701,17.701-39.045,31.335-62.548,39.952  l-45.189,16.569c-12.985,4.762-25.451,10.727-37.25,17.789l105.241,105.241c7.062-11.799,13.028-24.264,17.789-37.25l16.569-45.189  c8.618-23.503,22.252-44.847,39.952-62.548l43.173-43.173L397.046,89.24z"/>
<path style="fill:#FFDA44;" d="M318.615,199.656c7.941-2.912,15.629-6.409,23.02-10.43c7.878-14.484,17.802-27.808,29.522-39.529  l43.173-43.173l-17.284-17.282l-17.283-17.283L336.59,115.13c-17.701,17.701-39.045,31.335-62.548,39.952l-45.189,16.569  c-12.985,4.762-25.451,10.727-37.25,17.789l44.573,44.573c11.799-7.062,24.264-13.028,37.25-17.789L318.615,199.656z"/>
<path style="fill:#3E3D42;" d="M308.009,273.49l-20.448-20.448c3.53-14.737-0.441-30.919-11.919-42.397  c-11.478-11.478-27.661-15.449-42.397-11.919l-20.448-20.448c-14.718,6.757-28.633,15.111-41.497,24.908l28.742,28.742  c-3.53,14.737,0.441,30.919,11.919,42.397c11.478,11.478,27.661,15.449,42.397,11.919l28.742,28.742  C292.899,302.122,301.252,288.206,308.009,273.49z"/>
<path style="fill:#2D2D30;" d="M278.844,214.238c-0.999-1.238-2.052-2.446-3.201-3.595c-11.478-11.478-27.661-15.449-42.397-11.919  l-20.448-20.448c-14.717,6.757-28.633,15.111-41.497,24.908l28.742,28.742c-2.164,9.032-1.496,18.604,1.978,27.306  c20.818-18.731,45.046-33.344,71.405-43.009L278.844,214.238z"/>
<circle style="fill:#FFDA44;" cx="243.806" cy="242.487" r="27.364"/>
<g>
	<path style="fill:#FFCD00;" d="M224.559,223.028c-6.505,6.505-9.027,15.469-7.611,23.9c13.658-10.284,28.483-18.948,44.184-25.814   C250.384,212.388,234.563,213.024,224.559,223.028z"/>
	<path style="fill:#FFCD00;" d="M425.915,79.903l-19.531-19.531c-5.85-5.85-14.532-7.995-22.353-5.297   c-9.561,3.3-19.942,11.371-18.367,30.981l34.567,34.567c19.61,1.575,27.681-8.805,30.981-18.367   C433.91,94.435,431.765,85.753,425.915,79.903z"/>
</g>
<rect x="61.293" y="299.557" transform="matrix(-0.7071 -0.7071 0.7071 -0.7071 -0.2106 687.7872)" style="fill:#DDFFFB;" width="162.094" height="88.761"/>
<rect x="62.941" y="277.408" transform="matrix(-0.7071 0.7071 -0.7071 -0.7071 401.6517 451.481)" style="fill:#AAFFF5;" width="88.761" height="63.034"/>
<g>
	
		<rect x="82.898" y="308.508" transform="matrix(-0.7071 -0.7071 0.7071 -0.7071 51.945 666.1906)" style="fill:#3E3D42;" width="162.094" height="27.658"/>
	
		<rect x="39.693" y="351.715" transform="matrix(-0.7071 -0.7071 0.7071 -0.7071 -52.3623 709.3983)" style="fill:#3E3D42;" width="162.094" height="27.658"/>
</g>
<g>
	
		<rect x="115.09" y="255.8" transform="matrix(-0.7071 0.7071 -0.7071 -0.7071 423.2417 399.3211)" style="fill:#2D2D30;" width="27.658" height="63.034"/>
	
		<rect x="71.888" y="299.013" transform="matrix(-0.7071 0.7071 -0.7071 -0.7071 380.0482 503.6395)" style="fill:#2D2D30;" width="27.658" height="63.034"/>
</g>
<path d="M276.623,162.123c4.33-1.588,8.654-3.366,12.853-5.285c3.768-1.722,5.425-6.17,3.704-9.938  c-1.721-3.766-6.168-5.424-9.937-3.704c-3.85,1.759-7.813,3.389-11.783,4.845c-3.889,1.426-6.037,5.793-4.46,9.622  C269.871,164.632,275.771,162.436,276.623,162.123z"/>
<path d="M500.959,58.773c-8.771-8.771-21.204-12.563-33.159-10.495c-1.963-3.725-4.477-7.126-7.514-10.165  c-16.537-16.537-43.447-16.537-59.984,0c-2.555,2.556-4.756,5.397-6.569,8.475c-4.06-0.403-8.205,0.038-12.147,1.398  c-9.174,3.166-23.975,11.895-23.562,35.105l-26.736,26.736c-9.184,9.184-19.458,17.277-30.538,24.058  c-3.533,2.162-4.696,6.809-2.483,10.311c3.436,5.438,9.089,3.23,10.311,2.483c12.088-7.395,23.298-16.227,33.317-26.246l23.77-23.77  l11.893,11.892c2.928,2.93,7.676,2.929,10.605,0s2.929-7.677-0.001-10.605l-15.158-15.159c-0.203-10.812,4.123-17.399,13.474-20.626  c5.01-1.729,10.743-0.351,14.604,3.51l19.531,19.531c3.861,3.861,5.239,9.593,3.51,14.604c-3.483,10.096-10.88,14.337-23.291,13.338  c-2.281-0.178-34.976,31.246-34.976,31.246c-18.343,18.343-32.76,40.913-41.691,65.269l-16.569,45.189  c-0.676,1.844-1.381,3.68-2.11,5.506l-9.792-9.792c2.602-16.589-2.755-33.233-14.746-45.224  c-11.99-11.992-28.636-17.346-45.224-14.745l-9.793-9.793c1.827-0.729,31.211-11.536,31.211-11.536  c3.889-1.426,5.885-5.733,4.46-9.623c-1.427-3.888-5.734-5.884-9.623-4.459l-25.705,9.425  c-30.802,11.294-59.345,29.525-82.541,52.723L15.873,345.192c-16.797,16.798-20.677,42.1-9.653,62.961  c12.519,23.691,28.625,39.42,30.606,41.308c1.882,1.974,17.611,18.085,41.309,30.607c7.916,4.183,16.468,6.219,24.956,6.219  c13.881,0,27.581-5.45,38.006-15.874l127.858-127.858c23.198-23.199,41.43-51.74,52.723-82.54l16.568-45.189  c8.187-22.326,21.401-43.014,38.216-59.828l11.922-11.923c2.577,6.694,6.528,12.792,11.721,17.984  c9.8,9.799,22.828,15.196,36.686,15.196c13.858,0,26.887-5.397,36.685-15.196c10.815-10.814,16.201-25.615,15.042-40.627  c4.63-1.884,8.852-4.681,12.442-8.27C515.678,97.443,515.678,73.493,500.959,58.773z M227.942,204.028  c1.846,1.844,4.515,2.598,7.05,1.99c12.84-3.074,26.056,0.635,35.348,9.928c9.293,9.293,13.005,22.507,9.929,35.348  c-0.607,2.536,0.146,5.206,1.99,7.049l16.693,16.693c-4.844,9.877-10.467,19.39-16.774,28.419l-22.515-22.515  c-1.846-1.845-4.517-2.6-7.05-1.99c-12.844,3.074-26.055-0.637-35.348-9.929c-9.292-9.292-13.004-22.507-9.929-35.349  c0.607-2.536-0.146-5.206-1.99-7.049l-22.516-22.516c9.028-6.307,18.541-11.93,28.418-16.774L227.942,204.028z M154.336,227.939  c5.187-5.187,10.665-10.098,16.383-14.728l7.634,7.634c-5.759,4.612-11.275,9.525-16.43,14.682l-27.313,27.312l-7.587-7.587  L154.336,227.939z M220.428,369.868l-8.952,8.952l-104.01-104.01l8.952-8.952L220.428,369.868z M139.469,414.442l-27.174,27.174  c-4.021,4.022-10.246,5.028-15.136,2.444c-15.688-8.289-30.562-22.495-31.653-23.547c-1.049-1.088-14.996-15.707-23.28-31.387  c-2.584-4.889-1.578-11.112,2.445-15.135l27.174-27.173L139.469,414.442z M64.258,318.018l8.952-8.952l104.01,104.01l-8.952,8.952  L64.258,318.018z M83.815,298.46l13.045-13.045l104.01,104.01l-13.045,13.045L83.815,298.46z M130.488,459.809  c-12.115,12.116-30.339,14.931-45.348,6.999c-22.427-11.851-37.394-27.625-37.537-27.777c-0.108-0.116-0.226-0.233-0.341-0.342  c-0.158-0.148-15.934-15.116-27.783-37.543c-7.93-15.008-5.118-33.232,6.999-45.349l27.174-27.173l7.587,7.587l-27.173,27.172  c-8.632,8.631-10.728,22.098-5.101,32.748c9.603,18.177,25.212,34.248,25.872,34.923c0.04,0.042,0.081,0.082,0.122,0.122  c0.687,0.671,17.016,16.538,35.193,26.144c3.996,2.112,8.387,3.136,12.771,3.136c7.302,0,14.585-2.843,19.977-8.235l27.173-27.173  l7.586,7.586L130.488,459.809z M258.347,331.949l-27.312,27.312l-7.586-7.586c0,0,31.877-31.993,34.073-34.417  c2.78-3.07,2.545-7.812-0.525-10.593c-3.069-2.78-7.812-2.547-10.593,0.524c-2.029,2.242-33.561,33.88-33.561,33.88l-67.625-67.625  l27.312-27.313c5.154-5.155,10.705-10.04,16.508-14.603l2.875,2.875c-2.601,16.589,2.756,33.233,14.746,45.224  s28.634,17.345,45.224,14.746l21.192,21.193C268.445,321.284,263.533,326.764,258.347,331.949z M490.353,101.557  c-3.193,3.193-7.212,5.345-11.623,6.221c-1.967,0.391-3.695,1.554-4.799,3.228s-1.491,3.721-1.075,5.682  c2.604,12.287-1.129,24.91-9.986,33.767c-14.38,14.379-37.779,14.382-52.16,0c-5.368-5.367-8.878-12.084-10.211-19.494l2.696-2.696  c0.319,0.006,25.996,3.537,35.106-23.562c3.505-10.425,0.808-22.213-7.081-30.102l-19.532-19.532  c-1.122-1.121-2.33-2.127-3.595-3.039c0.848-1.168,1.782-2.278,2.816-3.312c10.688-10.689,28.083-10.689,38.771,0  c3.071,3.07,5.311,6.712,6.656,10.825c0.639,1.95,2.048,3.553,3.899,4.436c1.854,0.883,3.984,0.969,5.9,0.237  c8.38-3.198,17.885-1.17,24.217,5.163C499.225,78.251,499.225,92.685,490.353,101.557z"/>
<path d="M426.201,217.417c0-17.137-13.942-31.079-31.079-31.079c-17.136,0-31.078,13.942-31.078,31.079s13.942,31.079,31.078,31.079  S426.201,234.554,426.201,217.417z M395.121,233.497c-8.866,0-16.08-7.213-16.08-16.081s7.213-16.081,16.08-16.081  s16.081,7.213,16.081,16.081S403.988,233.497,395.121,233.497z"/>
<path d="M458.074,207.516c-11.709,0-21.234,9.525-21.234,21.234s9.525,21.234,21.234,21.234c11.708,0,21.233-9.525,21.233-21.234  C479.307,217.041,469.781,207.516,458.074,207.516z M458.074,234.985c-3.438,0-6.235-2.798-6.235-6.235s2.798-6.235,6.235-6.235  c3.438,0,6.234,2.797,6.234,6.235S461.511,234.985,458.074,234.985z"/>
<path d="M427.547,267.841c-13.394,0-24.29,10.896-24.29,24.29c0,2.146,0.281,4.278,0.837,6.336c1.079,3.999,5.195,6.365,9.194,5.286  c3.999-1.079,6.365-5.196,5.286-9.194c-0.212-0.785-0.319-1.602-0.319-2.429c0-5.124,4.168-9.291,9.291-9.291  c5.124,0,9.291,4.168,9.291,9.291c0,5.124-4.168,9.291-9.291,9.291c-4.143,0-7.499,3.358-7.499,7.499  c0,4.142,3.357,7.499,7.499,7.499c13.394,0,24.29-10.896,24.29-24.29C451.837,278.737,440.941,267.841,427.547,267.841z"/>
<path d="M243.802,269.849c7.003,0,14.007-2.672,19.349-8.015c10.687-10.686,10.687-28.012,0-38.699  c-5.344-5.344-12.347-8.015-19.349-8.015c-7.002,0-14.007,2.672-19.349,8.015c-10.687,10.687-10.687,28.012,0,38.699  C229.796,267.177,236.799,269.849,243.802,269.849z M235.058,233.74c2.336-2.336,5.441-3.622,8.744-3.622  c3.303,0,6.408,1.286,8.744,3.622c4.822,4.822,4.822,12.667,0,17.488c-2.336,2.336-5.441,3.622-8.744,3.622  c-3.303,0-6.408-1.286-8.744-3.622C230.237,246.407,230.237,238.562,235.058,233.74z"/>
<g>
</g>
<g>
</g>
<g>
</g>
<g>
</g>
<g>
</g>
<g>
</g>
<g>
</g>
<g>
</g>
<g>
</g>
<g>
</g>
<g>
</g>
<g>
</g>
<g>
</g>
<g>
</g>
<g>
</g>
</svg>
