<?xml version="1.0" encoding="iso-8859-1"?>
<!-- Generator: Adobe Illustrator 19.0.0, SVG Export Plug-In . SVG Version: 6.00 Build 0)  -->
<svg xmlns="http://www.w3.org/2000/svg" xmlns:xlink="http://www.w3.org/1999/xlink" version="1.1" id="Layer_1" x="0px" y="0px" viewBox="0 0 512 512" style="enable-background:new 0 0 512 512;" xml:space="preserve">
<path style="fill:#FFC477;" d="M490.5,392.868H323.389c-7.7,0-14-6.3-14-14V181.142c0-7.7,6.3-14,14-14H490.5c7.7,0,14,6.3,14,14  v197.727C504.5,386.569,498.2,392.868,490.5,392.868z"/>
<path style="fill:#FFB655;" d="M322.979,167.142c-7.474,0-13.59,6.115-13.59,13.59v198.547c0,7.474,6.115,13.59,13.59,13.59h57.466  c1.438-4.272,2.23-8.839,2.23-13.59V167.142H322.979z"/>
<path style="fill:#6A563D;" d="M309.389,335.598v43.682c0,7.474,6.115,13.59,13.59,13.59H490.91c7.474,0,13.59-6.115,13.59-13.59  v-43.682H309.389z"/>
<path style="fill:#5F4D37;" d="M309.389,335.598v43.682c0,7.474,6.115,13.59,13.59,13.59h57.466c1.438-4.272,2.23-8.839,2.23-13.59  v-43.682H309.389z"/>
<path style="fill:#AA6100;" d="M438.385,249.608c5.669-5.156,9.233-12.588,9.233-20.837c0-15.532-12.636-28.167-28.167-28.167  c-7.666,0-14.834,3.025-20.182,8.518c-2.805,2.881-2.743,7.49,0.138,10.295c2.881,2.806,7.489,2.743,10.295-0.137  c2.583-2.653,6.045-4.115,9.749-4.115c7.503,0,13.607,6.104,13.607,13.607c0,7.503-6.104,13.607-13.607,13.607  c-4.021,0-7.28,3.26-7.28,7.28c0,4.02,3.259,7.28,7.28,7.28c0.034,0,0.067-0.002,0.101-0.003c0.01,0,13.634,0.277,13.634,13.61  c0,7.503-6.104,13.607-13.607,13.607c-3.703,0-7.166-1.461-9.749-4.115c-2.807-2.881-7.416-2.943-10.295-0.137  c-2.882,2.805-2.943,7.414-0.138,10.295c5.348,5.493,12.516,8.518,20.182,8.518c15.531,0,28.167-12.636,28.167-28.167  C447.746,262.239,444.124,254.768,438.385,249.608z"/>
<path style="fill:#FFC477;" d="M188.611,392.868H21.5c-7.7,0-14-6.3-14-14V163.567c0-7.7,6.3-14,14-14h167.111c7.7,0,14,6.3,14,14  v215.302C202.611,386.569,196.311,392.868,188.611,392.868z"/>
<path style="fill:#FFB655;" d="M189.021,149.567H129.32v229.712c0,4.751,0.792,9.318,2.23,13.59h57.471  c7.474,0,13.59-6.115,13.59-13.59V163.157C202.611,155.683,196.496,149.567,189.021,149.567z"/>
<path style="fill:#6A563D;" d="M7.5,335.598v43.682c0,7.474,6.115,13.59,13.59,13.59h167.932c7.474,0,13.59-6.115,13.59-13.59  v-43.682H7.5z"/>
<path style="fill:#5F4D37;" d="M129.32,379.279c0,4.751,0.792,9.318,2.23,13.59h57.471c7.474,0,13.59-6.115,13.59-13.59v-43.682  H129.32V379.279z"/>
<path style="fill:#E0E0E2;" d="M116.121,298.714H68.752c-2.882,0-5.492-1.7-6.657-4.335c-1.166-2.635-0.703-5.742,1.27-7.842  c22.762-24.227,37.656-45.839,36.809-53.223c-0.919-8.018-7.269-12.488-7.332-12.531c-0.084-0.056-0.007,0-0.088-0.06l0,0  c-0.004,0-3.868-2.456-8.009-1.366c-4.349,1.144-7.583,5.86-9.529,9.614c-1.852,3.57-6.247,4.963-9.814,3.112  c-3.57-1.851-4.963-6.245-3.112-9.814c4.873-9.398,11.286-15.143,19.062-17.073c10.414-2.587,18.775,2.92,19.693,3.557  c1.177,0.816,11.893,8.66,13.596,22.902c2.387,19.956-29.003,51.982-29.468,52.498h30.949c4.021,0,7.28,3.26,7.28,7.28  C123.401,295.454,120.142,298.714,116.121,298.714z"/>
<path style="fill:#FFDAAA;" d="M339.553,392.868H172.441c-7.7,0-14-6.3-14-14V133.131c0-7.7,6.3-14,14-14h167.111  c7.7,0,14,6.3,14,14v245.738C353.553,386.569,347.253,392.868,339.553,392.868z"/>
<path style="fill:#FFC477;" d="M216.623,379.279V132.721c0-7.474,6.115-13.59,13.59-13.59h-58.181c-7.474,0-13.59,6.115-13.59,13.59  V379.28c0,7.474,6.115,13.59,13.59,13.59h58.181C222.738,392.868,216.623,386.754,216.623,379.279z"/>
<path style="fill:#806749;" d="M158.444,335.598v43.682c0,7.474,6.115,13.59,13.59,13.59h167.932c7.474,0,13.59-6.115,13.59-13.59  v-43.682H158.444z"/>
<path style="fill:#6A563D;" d="M158.444,379.279c0,7.474,6.115,13.59,13.59,13.59h58.178c-7.474,0-13.59-6.115-13.59-13.59v-43.682  h-58.178V379.279z"/>
<path style="fill:#CCA400;" d="M260.206,248.318c-4.021,0-7.28-3.26-7.28-7.28v-62.264L237.69,194.01  c-2.844,2.843-7.453,2.843-10.297,0c-2.843-2.843-2.843-7.453,0-10.296l27.665-27.665c2.083-2.083,5.214-2.706,7.934-1.578  c2.721,1.127,4.494,3.781,4.494,6.726v79.84C267.486,245.059,264.227,248.318,260.206,248.318z"/>
<g>
	<path style="fill:#4E901E;" d="M244.459,302.894c-5.038-1.886-9.681-5.259-13.917-9.536l11.963-22.678   c1.876-3.556,0.514-7.96-3.043-9.836c-3.557-1.875-7.96-0.513-9.836,3.043l-8.949,16.966c-2.756-4.251-5.246-8.764-7.459-13.286   l14.796-26.05c1.986-3.496,0.761-7.94-2.735-9.926c-3.497-1.985-7.94-0.761-9.926,2.735l-9.28,16.339   c-2.092-5.768-3.607-10.854-4.497-14.474c-0.956-3.905-4.894-6.296-8.803-5.341c-3.906,0.956-6.296,4.897-5.341,8.802   c0.204,0.834,1.937,7.747,5.4,17.173c-14.954-3.571-16.304-3.575-17.095-3.575c-4.021,0-7.28,3.26-7.28,7.28   c0,3.851,2.99,7.003,6.775,7.263c2.174,0.328,13.585,3.015,24.655,5.728c1.746,3.609,3.688,7.282,5.832,10.9l-19.062-3.272   c-3.954-0.679-7.726,1.981-8.406,5.944c-0.681,3.963,1.98,7.727,5.944,8.407l33.804,5.803c6.101,6.685,13.194,12.173,21.355,15.228   c0.842,0.315,6.778,2.889,9.37-4.265C250.093,308.484,248.224,304.303,244.459,302.894z"/>
	<path style="fill:#4E901E;" d="M336.263,253.25c-0.791,0-2.141,0.004-17.095,3.575c3.463-9.427,5.196-16.339,5.4-17.173   c0.956-3.904-1.434-7.841-5.338-8.799c-3.898-0.959-7.844,1.43-8.805,5.334c-0.891,3.622-2.406,8.708-4.498,14.478l-9.28-16.339   c-1.986-3.497-6.431-4.72-9.926-2.735c-3.496,1.986-4.721,6.43-2.735,9.926l14.796,26.049c-2.212,4.522-4.703,9.036-7.459,13.286   l-8.949-16.966c-1.875-3.556-6.279-4.92-9.836-3.043c-3.557,1.876-4.919,6.28-3.043,9.836l11.963,22.678   c-4.235,4.277-8.879,7.65-13.917,9.536c-3.765,1.41-5.672,5.604-4.265,9.371c2.431,6.507,8.53,4.58,9.371,4.265   c8.162-3.056,15.254-8.544,21.355-15.228l33.804-5.803c3.963-0.681,6.624-4.444,5.944-8.407c-0.68-3.962-4.445-6.626-8.406-5.944   l-19.062,3.272c2.143-3.618,4.085-7.291,5.832-10.9c11.07-2.713,22.481-5.4,24.655-5.728c3.785-0.26,6.775-3.412,6.775-7.263   C343.543,256.509,340.284,253.25,336.263,253.25z"/>
</g>
<path d="M490.91,159.642H361.053v-26.511c0-11.855-9.645-21.5-21.5-21.5H172.441c-11.855,0-21.5,9.645-21.5,21.5v194.967H15v-164.94  c0-3.358,2.731-6.09,6.09-6.09h114.22c4.143,0,7.5-3.358,7.5-7.5s-3.357-7.5-7.5-7.5H21.09c-11.629,0-21.09,9.461-21.09,21.09  v216.122c0,11.629,9.461,21.09,21.09,21.09h150.941c0.069,0,0.137-0.008,0.206-0.01c0.069,0.001,0.135,0.01,0.205,0.01H490.91  c11.629,0,21.09-9.461,21.09-21.09V180.732C512,169.103,502.539,159.642,490.91,159.642z M165.941,133.131  c0-3.584,2.916-6.5,6.5-6.5h167.111c3.584,0,6.5,2.916,6.5,6.5v194.967H165.941V133.131z M15,379.279v-36.182h135.941v35.771  c0,2.265,0.357,4.448,1.01,6.5H21.09C17.731,385.368,15,382.637,15,379.279z M172.441,385.368c-3.584,0-6.5-2.916-6.5-6.5v-35.771  h180.111v35.771c0,3.584-2.916,6.5-6.5,6.5H172.441z M490.91,385.368H360.043c0.652-2.052,1.01-4.235,1.01-6.5v-35.771h52.443  c4.143,0,7.5-3.358,7.5-7.5s-3.357-7.5-7.5-7.5h-52.443V174.642H490.91c3.358,0,6.09,2.732,6.09,6.09v147.366h-20.165  c-4.143,0-7.5,3.358-7.5,7.5s3.357,7.5,7.5,7.5H497v36.182C497,382.637,494.269,385.368,490.91,385.368z"/>
<path d="M454.023,328.098h-18.929c-4.143,0-7.5,3.358-7.5,7.5s3.357,7.5,7.5,7.5h18.929c4.143,0,7.5-3.358,7.5-7.5  S458.166,328.098,454.023,328.098z"/>
<g>
</g>
<g>
</g>
<g>
</g>
<g>
</g>
<g>
</g>
<g>
</g>
<g>
</g>
<g>
</g>
<g>
</g>
<g>
</g>
<g>
</g>
<g>
</g>
<g>
</g>
<g>
</g>
<g>
</g>
</svg>
