<?xml version="1.0" encoding="iso-8859-1"?>
<!-- Generator: Adobe Illustrator 19.0.0, SVG Export Plug-In . SVG Version: 6.00 Build 0)  -->
<svg xmlns="http://www.w3.org/2000/svg" xmlns:xlink="http://www.w3.org/1999/xlink" version="1.1" id="Layer_1" x="0px" y="0px" viewBox="0 0 512.002 512.002" style="enable-background:new 0 0 512.002 512.002;" xml:space="preserve">
<path style="fill:#57565C;" d="M87.69,464.576l10.149,25.7c5.057,8.8,14.432,14.225,24.582,14.225h168.878  c15.131,0,25.627-11.137,25.627-11.137c12.617-14.75,25.233,0,25.233,0c6.63,7.103,15.911,11.137,25.627,11.137h17.604  c7.98,0,15.174-4.809,18.225-12.182l9.267-29.453c0,0-81.694-35.613-84.981-35.613C324.61,427.252,87.69,464.576,87.69,464.576z"/>
<g>
	<path style="fill:#3E3D42;" d="M97.838,490.276c5.057,8.8,14.432,14.225,24.582,14.225h115.225l-14.017-35.748l-1.2-25.32   c-64.515,10.08-134.739,21.143-134.739,21.143L97.838,490.276z"/>
	<path style="fill:#3E3D42;" d="M323.373,34.791l46.204-16.948c13.677-5.016,28.171,5.107,28.171,19.674v20.752L323.373,34.791z"/>
</g>
<path style="fill:#57565C;" d="M249.416,43.476V28.48c0-14.154,13.742-24.237,27.243-19.99l111.228,34.985H249.416z"/>
<path style="fill:#D1E7F8;" d="M238.762,47.201l6.434,234.692c0.761,27.757-14.619,53.445-39.446,65.883l-85.572,42.868  c-21.275,10.658-34.708,32.413-34.708,56.208v11.223c0,5.897,4.781,10.678,10.678,10.678H280.92c6.719,0,13.22-2.386,18.343-6.733  l11.686-9.915c12.102-10.268,29.896-10.133,41.84,0.318l10.646,9.315c5.168,4.522,11.803,7.015,18.67,7.015h22.523  c4.825,0,8.736-3.911,8.736-8.736V48.357c0-8.772-8.202-15.235-16.731-13.184l-13.908,3.345  c-22.652,5.448-46.128,6.566-69.196,3.295l-59.31-8.41C245.907,32.225,238.532,38.807,238.762,47.201z"/>
<path style="fill:#C2DFF6;" d="M175.866,468.753H280.92c6.719,0,13.22-2.386,18.344-6.733l11.686-9.915  c12.102-10.268,29.896-10.133,41.84,0.318l10.646,9.315c5.169,4.522,11.803,7.015,18.671,7.015h22.522  c4.825,0,8.736-3.911,8.736-8.736V48.357c0-8.772-8.202-15.235-16.731-13.184l-13.909,3.345  c-22.652,5.448-46.128,6.566-69.195,3.295l-12.681-1.798l0.654,276.067c0.059,25.005-13.409,48.087-35.206,60.339l-90.432,50.831  v41.501H175.866z"/>
<path style="fill:#B9D8F4;" d="M336.515,332.637L335.83,43.602c-7.448-0.147-14.895-0.739-22.3-1.789l-12.681-1.798l0.654,276.067  c0.059,25.005-13.408,48.087-35.205,60.34l-90.432,50.831v41.5h9.205l107.174-60.242  C319.654,393.104,336.589,364.08,336.515,332.637z"/>
<g>
	<path style="fill:#96C8EF;" d="M137.793,381.82l-17.615,8.824c-21.275,10.658-34.708,32.413-34.708,56.208v11.223   c0,5.897,4.781,10.678,10.678,10.678h127.482C206.614,411.947,166.608,390.164,137.793,381.82z"/>
	<path style="fill:#96C8EF;" d="M336.526,64.154h-98.867c-10.432,0-18.799,8.625-18.482,19.052l2.986,98.346   c0.303,9.989,8.488,17.929,18.482,17.929h95.88c10.212,0,18.491-8.279,18.491-18.491V82.644   C355.016,72.432,346.737,64.154,336.526,64.154z"/>
</g>
<path style="fill:#57565C;" d="M408.843,117.438h-83.001c-9.718,0-17.669,7.951-17.669,17.669l0,0  c0,9.718,7.951,17.669,17.669,17.669h83.001c9.718,0,17.669-7.951,17.669-17.669l0,0  C426.512,125.388,418.561,117.438,408.843,117.438z"/>
<path style="fill:#3E3D42;" d="M360.561,135.516v-0.822c0-9.492,7.766-17.258,17.258-17.258h-52.387  c-9.492,0-17.258,7.766-17.258,17.258v0.822c0,9.492,7.766,17.258,17.258,17.258h52.387  C368.327,152.774,360.561,145.008,360.561,135.516z"/>
<path style="fill:#96C8EF;" d="M269.835,241.862h-26.582c-9.492,0-17.258,7.766-17.258,17.258v18.735  c0,9.492,7.766,17.258,17.258,17.258h26.582c9.492,0,17.258-7.766,17.258-17.258V259.12  C287.093,249.628,279.327,241.862,269.835,241.862z"/>
<path style="fill:#57565C;" d="M357.624,250.819h-83.822c-9.492,0-17.258,7.766-17.258,17.258v0.822  c0,9.492,7.766,17.258,17.258,17.258h83.822c9.492,0,17.258-7.766,17.258-17.258v-0.822  C374.882,258.585,367.116,250.819,357.624,250.819z"/>
<path style="fill:#3E3D42;" d="M304.431,268.898v-0.822c0-9.492,7.766-17.258,17.258-17.258h-47.887  c-9.492,0-17.258,7.766-17.258,17.258v0.822c0,9.492,7.766,17.258,17.258,17.258h47.887  C312.197,286.155,304.431,278.389,304.431,268.898z"/>
<path style="fill:#96C8EF;" d="M241.606,333.376l-24.186-11.03c-8.636-3.939-18.925-0.095-22.863,8.541l-7.774,17.046  c-3.939,8.636-0.095,18.925,8.541,22.863l24.186,11.03c8.636,3.939,18.925,0.095,22.863-8.541l7.774-17.046  C254.084,347.603,250.241,337.315,241.606,333.376z"/>
<path style="fill:#57565C;" d="M317.764,377.952l-76.266-34.781c-8.636-3.939-18.925-0.095-22.863,8.541l-0.341,0.748  c-3.939,8.636-0.095,18.925,8.541,22.863l76.265,34.781c8.636,3.939,18.925,0.095,22.863-8.541l0.341-0.748  C330.243,392.179,326.4,381.891,317.764,377.952z"/>
<path style="fill:#3E3D42;" d="M261.707,371.947l0.341-0.748c3.51-7.696,12.061-11.57,19.994-9.537l-40.544-18.491  c-8.636-3.939-18.925-0.095-22.863,8.541l-0.341,0.748c-3.939,8.636-0.095,18.925,8.541,22.863l43.206,19.705  C261.405,391.089,257.769,380.582,261.707,371.947z"/>
<path style="fill:#96C8EF;" d="M333.901,444.594c6.782,0.469,13.444,3.064,18.888,7.828l10.647,9.316  c5.168,4.522,11.802,7.015,18.669,7.015h22.523c4.825,0,8.736-3.911,8.736-8.736v-98.906  C413.363,361.111,356.496,376.485,333.901,444.594z"/>
<path d="M420.863,112.837v-64.48c0-6.493-2.925-12.522-8.025-16.541c-2.778-2.189-5.986-3.604-9.35-4.2  c-2.171-5.889-6.258-10.928-11.776-14.33c-7.466-4.602-16.476-5.507-24.719-2.484l-26.678,9.786l0.026,0.072L278.909,1.337  c-8.737-2.748-17.985-1.217-25.372,4.202c-7.387,5.419-11.622,13.782-11.622,22.942v0.037c-1.283,0.73-2.499,1.597-3.623,2.6  c-4.637,4.139-7.199,10.075-7.028,16.289l0.274,9.973c-4.731,1.134-9.053,3.58-12.534,7.169c-4.938,5.09-7.539,11.797-7.323,18.886  l0.482,15.875c0.126,4.141,3.611,7.401,7.724,7.269c4.14-0.126,7.395-3.584,7.269-7.724l-0.482-15.876  c-0.091-2.997,1.009-5.833,3.097-7.986c2.088-2.153,4.89-3.338,7.889-3.338h98.867c6.06,0,10.99,4.93,10.99,10.991v27.292h-22.085  c-24.526,0-24.758,25.071-24.758,25.071s-0.351,25.266,24.758,25.266h22.085v20.717c0,6.06-4.931,10.991-10.99,10.991h-95.88  c-5.979,0-10.805-4.681-10.986-10.657l-0.814-26.83c-0.126-4.141-3.62-7.403-7.724-7.269c-4.14,0.125-7.395,3.584-7.269,7.724  l0.814,26.83c0.377,12.414,9.229,22.463,20.96,24.723l0.79,28.828c-10.336,2.975-17.922,12.51-17.922,23.791v18.734  c0,10.861,7.033,20.104,16.781,23.432c-1.744,6.133-4.406,12.014-7.872,17.372l-6.872-3.134c-6-2.737-12.723-2.966-18.93-0.647  c-6.208,2.319-11.133,6.9-13.869,12.9l-7.774,17.046c-1.252,2.746-1.973,5.644-2.171,8.574l-60.97,30.543  c-23.963,12.004-38.849,36.111-38.849,62.914v11.223c0,12.093,13.186,35.622,13.368,35.937  c6.376,11.095,18.287,17.988,31.083,17.988h168.878c18.159,0,30.565-12.941,31.085-13.492c0.082-0.088,3.773-4.174,6.643-4.2  c0.016,0,0.031-0.001,0.047,0c4.75,0.026,7.528,4.094,7.602,4.173c8.02,8.592,19.358,13.52,31.11,13.52h17.604  c11.055,0,20.929-6.601,25.155-16.815c0.083-0.202,0.158-0.408,0.224-0.616l9.268-29.453l-0.002-0.001  c0.533-1.606,0.832-3.317,0.832-5.099V157.375c14.124-6.118,13.148-22.18,13.148-22.18S434.987,120.508,420.863,112.837z   M372.16,24.884c3.898-1.429,8.155-1.004,11.681,1.169c1.532,0.945,2.815,2.164,3.835,3.56c0,0-9.42,2.249-10.781,2.543  l-13.222-4.159L372.16,24.884z M262.411,17.632c3.493-2.563,7.868-3.286,11.998-1.987l65.214,20.512  c-8.34,0.003-16.698-0.586-25.04-1.769l-57.462-8.148C257.689,22.806,259.534,19.743,262.411,17.632z M246.258,46.995  c-0.067-2.447,1.238-3.987,2.022-4.687c0.784-0.7,2.461-1.823,4.886-1.479l40.197,5.7l0.024,10.126h-46.865L246.258,46.995z   M336.526,56.655h-28.137l-0.019-7.998c0,0,42.619,5.603,76.109-2.847l13.908-3.345c1.814-0.437,3.7-0.024,5.167,1.132  c1.468,1.156,2.31,2.891,2.31,4.759v61.581h-43.348V82.644C362.516,68.313,350.856,56.655,336.526,56.655z M315.674,135.105  c0,0-0.351-10.169,9.758-10.169h83.822c10.421,0,9.758,10.169,9.758,10.169s0.288,10.169-9.758,10.169h-83.822  C315.906,145.275,315.674,135.105,315.674,135.105z M362.516,180.99v-20.717h43.348v299.742c0,0.682-0.555,1.236-1.236,1.236  h-22.523c-5.052,0-9.929-1.833-13.731-5.159l-10.646-9.316c-4.111-3.597-8.821-6.196-13.798-7.794  c13.469-33.884,35.92-52.531,52.986-62.346c3.591-2.065,4.827-6.65,2.762-10.241c-2.064-3.591-6.649-4.829-10.24-2.762  c-19.809,11.393-46.058,33.318-60.881,73.557c-8.066,0.627-15.972,3.688-22.462,9.194l-11.686,9.915  c-3.764,3.193-8.555,4.952-13.491,4.952h-51.806c-5.78-17.218-13.618-31.218-22.587-42.631l43.528-24.467l49.56,22.603  c3.289,1.5,6.785,2.26,10.393,2.26c9.863,0,18.873-5.776,22.95-14.715c2.782-6.099,3.017-12.934,0.659-19.245  c-2.358-6.311-7.015-11.318-13.114-14.1l-24.963-11.385c8.756-12.753,13.502-27.937,13.464-43.51l-0.053-22.409h48.674  c13.651,0,24.758-11.106,24.758-24.758c0-14.105-11.476-25.579-25.579-25.579h-47.973l-0.086-36.337h27.781  C350.856,206.981,362.516,195.322,362.516,180.99z M238.388,349.996l75.891,34.61c2.454,1.119,4.332,3.144,5.287,5.702  c0.955,2.557,1.059,5.415-0.254,7.771c-4.696,8.425-12.15,5.635-13.472,5.032l-75.146-34.272c-2.553-1.165-4.505-3.271-5.499-5.931  c-0.994-2.66-0.899-5.531,0.265-8.083c1.58-3.463,5.084-5.701,8.929-5.701C235.775,349.125,237.12,349.418,238.388,349.996z   M274.623,278.655c-5.834,0-10.579-4.746-10.579-10.58c0-5.381,4.377-9.758,9.758-9.758h83c5.834,0,10.58,4.746,10.58,10.58  c0,5.381-4.377,9.758-9.758,9.758H274.623z M251.395,234.362l-0.751-27.381h43.1l0.086,36.337h-4.978  c-4.667-5.603-11.622-8.957-19.019-8.957h-18.439V234.362z M233.495,259.12c0-5.381,4.377-9.758,9.758-9.758h14.369  c-5.247,4.543-8.577,11.245-8.577,18.715c0,7.827,3.537,14.84,9.092,19.536h-14.884c-5.38,0-9.758-4.377-9.758-9.758V259.12z   M250.456,302.611h19.379c7.341,0,14.342-3.365,19.016-8.956h5.1l0.053,22.445c0.032,13.408-4.345,26.458-12.372,37.132  l-23.314-10.633c-1.911-7.091-6.817-12.953-13.601-16.047l-3.536-1.613C245.384,318.026,248.531,310.458,250.456,302.611z   M193.606,351.045l7.774-17.046c1.074-2.354,3.017-4.155,5.471-5.072c2.454-0.917,5.101-0.83,7.457,0.243l13.08,5.965  c-6.798,2-12.384,6.934-15.575,13.464c-5.654,11.57-0.117,20.906,0.191,21.56l-13.567-6.187  C193.54,361.739,191.374,355.94,193.606,351.045z M192.212,377.619l24.187,11.03c2.857,1.303,5.905,2.022,8.97,2.174l-29.042,16.325  c-12.487-12.378-26.309-20.771-39.521-26.464l24.751-12.399C184.1,372.353,187.763,375.59,192.212,377.619z M92.968,446.853  c0-21.089,11.713-40.057,30.568-49.503l14.945-7.487c25.876,8.118,58.088,27.118,74.713,71.39H96.146  c-1.752,0-3.178-1.425-3.178-3.178V446.853z M385.388,497.001h-17.604c-7.572,0-14.879-3.159-20.066-8.67  c-1.299-1.469-8.475-9.022-18.645-9.022c-4.521,0-11.242,1.566-17.682,8.986c-0.863,0.856-9.102,8.706-20.096,8.706H122.42  c-7.274,0-14.057-3.829-17.822-10.027l-4.234-10.721H280.92c8.487,0,16.726-3.024,23.196-8.515l11.686-9.915  c9.195-7.803,22.975-7.697,32.05,0.243l10.646,9.316c6.538,5.72,14.922,8.871,23.608,8.871h18.701l-4.237,13.465  C394.611,494.152,390.255,497.001,385.388,497.001z"/>
<path d="M220.677,140.24c0.077,0,0.155-0.001,0.232-0.003c4.14-0.126,7.395-3.584,7.269-7.724l-0.354-11.658  c-0.126-4.141-3.614-7.402-7.724-7.269c-4.14,0.126-7.395,3.584-7.269,7.724l0.354,11.658  C213.309,137.03,216.641,140.24,220.677,140.24z"/>
<g>
</g>
<g>
</g>
<g>
</g>
<g>
</g>
<g>
</g>
<g>
</g>
<g>
</g>
<g>
</g>
<g>
</g>
<g>
</g>
<g>
</g>
<g>
</g>
<g>
</g>
<g>
</g>
<g>
</g>
</svg>
