<?xml version="1.0" encoding="iso-8859-1"?>
<!-- Generator: Adobe Illustrator 19.0.0, SVG Export Plug-In . SVG Version: 6.00 Build 0)  -->
<svg xmlns="http://www.w3.org/2000/svg" xmlns:xlink="http://www.w3.org/1999/xlink" version="1.1" id="Layer_1" x="0px" y="0px" viewBox="0 0 512 512" style="enable-background:new 0 0 512 512;" xml:space="preserve">
<g>
	<polygon style="fill:#2D2D30;" points="382.581,197.657 467.031,160.492 460.928,131.819 372.57,150.628  "/>
	<polygon style="fill:#2D2D30;" points="371.515,310.269 455.966,347.434 449.862,376.107 361.504,357.298  "/>
	<rect x="391.13" y="231.962" style="fill:#2D2D30;" width="90.333" height="48.086"/>
</g>
<g>
	<path style="fill:#1D1D1F;" d="M420.269,331.725c-2.221,12.376-4.944,24.554-8.245,36.327l-50.52-10.754l10.011-47.028   L420.269,331.725z"/>
	<path style="fill:#1D1D1F;" d="M382.581,197.657l-10.011-47.028l52.874-11.255c0.179,1.235,0.334,2.475,0.439,3.726   c0.837,9.985,1.65,21.641,2.256,34.509L382.581,197.657z"/>
</g>
<path style="fill:#57565C;" d="M480.695,389.906c33.478-94.507,24.354-205.317,15.648-263.062  c-1.884-12.49-13.541-21.086-26.025-19.205c-12.49,1.883-21.088,13.535-19.205,26.025c8.063,53.48,17.038,155.875-13.465,240.777  c-4.271,11.887,1.904,24.985,13.791,29.257C453.993,404.615,474.178,408.307,480.695,389.906z"/>
<path style="fill:#3E3D42;" d="M459.649,374.434c30.503-84.902,21.529-187.297,13.465-240.777  c-1.469-9.742,3.44-18.975,11.598-23.458c-4.24-2.327-9.246-3.337-14.395-2.561c-12.49,1.883-21.088,13.535-19.205,26.025  c8.063,53.48,17.038,155.875-13.465,240.777c-4.271,11.887,1.904,24.985,13.791,29.257c1.657,0.595,10.73,2.351,18.682-1.507  C460.447,396.866,455.797,385.158,459.649,374.434z"/>
<g>
	<polygon style="fill:#2D2D30;" points="129.33,197.657 44.879,160.492 50.982,131.819 139.341,150.628  "/>
	<polygon style="fill:#2D2D30;" points="140.395,310.269 55.945,347.434 62.048,376.107 150.407,357.298  "/>
	<rect x="35.827" y="231.962" style="fill:#2D2D30;" width="90.333" height="48.086"/>
</g>
<g>
	<path style="fill:#1D1D1F;" d="M91.641,331.725c2.221,12.376,4.944,24.554,8.245,36.327l50.52-10.754l-10.011-47.028   L91.641,331.725z"/>
	<path style="fill:#1D1D1F;" d="M129.33,197.657l10.011-47.028l-52.874-11.255c-0.179,1.235-0.334,2.475-0.439,3.726   c-0.837,9.985-1.65,21.641-2.256,34.509L129.33,197.657z"/>
</g>
<path style="fill:#57565C;" d="M31.215,389.906C-2.264,295.399,6.861,184.589,15.567,126.844  c1.884-12.49,13.541-21.086,26.025-19.205c12.49,1.883,21.088,13.535,19.205,26.025c-8.063,53.48-17.038,155.875,13.465,240.777  c4.271,11.887-1.904,24.985-13.791,29.257C57.918,404.615,37.733,408.307,31.215,389.906z"/>
<path style="fill:#3E3D42;" d="M53.216,389.901c-33.478-94.507-24.354-205.317-15.648-263.062  c1.106-7.334,5.586-13.323,11.62-16.639c-2.298-1.262-4.854-2.147-7.596-2.561c-12.483-1.881-24.141,6.714-26.025,19.205  C6.861,184.589-2.264,295.399,31.215,389.906c6.519,18.401,26.703,14.708,29.257,13.791c1.168-0.419,2.278-0.927,3.331-1.507  C59.491,400.102,55.508,396.371,53.216,389.901z"/>
<path style="fill:#57565C;" d="M364.098,110.565H147.813c-19.614,0-35.964,15.016-37.603,34.561  c-4.311,51.408-8.134,150.081,15.833,225.747c5.734,18.101,22.422,30.476,41.41,30.507c45.365,0.073,131.643,0.073,177.008,0  c18.988-0.03,35.676-12.405,41.41-30.507c23.967-75.667,20.142-174.339,15.833-225.747  C400.063,125.581,383.712,110.565,364.098,110.565z"/>
<path style="fill:#3E3D42;" d="M191.166,120.592c0.291-3.474,0.974-6.826,1.983-10.026h-45.337  c-19.614,0-35.964,15.016-37.603,34.561c-4.311,51.408-8.134,150.081,15.833,225.748c5.734,18.101,22.422,30.476,41.41,30.507  c12.467,0.02,28.029,0.034,44.978,0.043c-0.72-1.665-1.371-3.373-1.927-5.13C181.231,303.883,185.902,183.376,191.166,120.592z"/>
<path style="fill:#2D2D30;" d="M119.193,287.188h-41.18c-5.5,0-9.999-4.5-9.999-9.999v-42.378c0-5.5,4.5-9.999,9.999-9.999h41.18  c5.5,0,9.999,4.5,9.999,9.999v42.378C129.192,282.688,124.693,287.188,119.193,287.188z"/>
<path style="fill:#1D1D1F;" d="M119.486,224.812H77.72c-5.339,0-9.706,4.368-9.706,9.706v31.189c0-5.339,4.368-9.706,9.706-9.706  h41.766c5.339,0,9.706,4.368,9.706,9.706v-31.189C129.192,229.179,124.825,224.812,119.486,224.812z"/>
<path style="fill:#2D2D30;" d="M433.897,287.192h-41.18c-5.5,0-9.999-4.5-9.999-9.999v-42.378c0-5.5,4.5-9.999,9.999-9.999h41.18  c5.5,0,9.999,4.5,9.999,9.999v42.378C443.896,282.692,439.397,287.192,433.897,287.192z"/>
<path style="fill:#1D1D1F;" d="M392.424,224.816h41.766c5.339,0,9.706,4.368,9.706,9.706v31.189c0-5.339-4.368-9.706-9.706-9.706  h-41.766c-5.339,0-9.706,4.368-9.706,9.706v-31.189C382.718,229.183,387.086,224.816,392.424,224.816z"/>
<path style="fill:#3E3D42;" d="M341.72,142.223H170.191c-15.095,0-27.445,12.35-27.445,27.445v82.906  c0,15.095,12.35,27.445,27.445,27.445H341.72c15.095,0,27.445-12.35,27.445-27.445v-82.906  C369.164,154.573,356.814,142.223,341.72,142.223z"/>
<g>
	<path style="fill:#2D2D30;" d="M189.565,142.223h-19.374c-15.095,0-27.445,12.35-27.445,27.445v82.906   c0,15.095,12.35,27.445,27.445,27.445h19.542C185.801,229.042,187.163,179.465,189.565,142.223z"/>
	<path style="fill:#2D2D30;" d="M332.572,168.524H179.339c-6.29,0-11.435,5.146-11.435,11.435v52.03   c0,6.29,5.146,11.435,11.435,11.435h153.232c6.29,0,11.435-5.146,11.435-11.435v-52.03   C344.007,173.671,338.86,168.524,332.572,168.524z"/>
</g>
<path style="fill:#1D1D1F;" d="M215.024,231.99v-52.03c0-6.29,5.146-11.435,11.435-11.435h-47.119  c-6.29,0-11.435,5.146-11.435,11.435v52.03c0,6.29,5.146,11.435,11.435,11.435h47.119  C220.169,243.425,215.024,238.28,215.024,231.99z"/>
<g>
	<path style="fill:#787680;" d="M263.387,229.703c-1.863,0-3.726-0.711-5.148-2.132c-2.843-2.843-2.843-7.452,0-10.295   l29.645-29.646c2.843-2.843,7.452-2.843,10.295,0c2.843,2.843,2.843,7.452,0,10.295l-29.645,29.646   C267.113,228.992,265.25,229.703,263.387,229.703z"/>
	<path style="fill:#787680;" d="M297.396,231.607c-1.863,0-3.726-0.711-5.148-2.132c-2.843-2.843-2.843-7.452,0-10.295l7.152-7.152   c2.843-2.843,7.452-2.843,10.295,0c2.843,2.843,2.843,7.452,0,10.295l-7.152,7.152   C301.122,230.896,299.259,231.607,297.396,231.607z"/>
</g>
<circle style="fill:#3D9AE2;" cx="201.115" cy="326.045" r="25.443"/>
<path style="fill:#1E81CE;" d="M212.429,307.876c2.647,0,5.199,0.405,7.598,1.155c-4.658-5.175-11.405-8.429-18.915-8.429  c-14.052,0-25.443,11.391-25.443,25.443c0,11.405,7.504,21.057,17.846,24.289c-4.058-4.508-6.529-10.471-6.529-17.014  C186.986,319.267,198.377,307.876,212.429,307.876z"/>
<circle style="fill:#FFE477;" cx="299.697" cy="327.185" r="14.58"/>
<path style="fill:#FFDA44;" d="M299.695,327.341c0-5.446,2.992-10.186,7.415-12.69c-2.175-1.289-4.704-2.043-7.415-2.043  c-8.052,0-14.58,6.527-14.58,14.58c0,8.052,6.527,14.58,14.58,14.58c2.607,0,5.048-0.692,7.164-1.891  C302.576,337.338,299.695,332.681,299.695,327.341z"/>
<circle style="fill:#FF5023;" cx="255.951" cy="354.063" r="14.58"/>
<path style="fill:#FF3501;" d="M253.019,357.768c0-7.434,5.569-13.557,12.76-14.454c-2.593-2.373-6.036-3.832-9.827-3.832  c-8.052,0-14.58,6.527-14.58,14.58s6.527,14.58,14.58,14.58c0.618,0,1.223-0.051,1.82-0.126  C254.858,365.85,253.019,362.028,253.019,357.768z"/>
<circle style="fill:#AAFFF5;" cx="328.855" cy="368.642" r="14.58"/>
<path style="fill:#44FFE8;" d="M328.855,368.641c0-5.394,2.936-10.091,7.289-12.613c-2.146-1.243-4.632-1.967-7.289-1.967  c-8.052,0-14.58,6.527-14.58,14.58s6.528,14.58,14.58,14.58c2.659,0,5.144-0.723,7.289-1.967  C331.791,378.732,328.855,374.034,328.855,368.641z"/>
<path style="fill:#FFDA44;" d="M146.577,341.89c-1.912,0-3.796-0.776-5.145-2.126c-1.359-1.359-2.135-3.233-2.135-5.145  c0-1.922,0.776-3.796,2.135-5.154c1.349-1.349,3.223-2.126,5.145-2.126c1.912,0,3.795,0.776,5.145,2.126  c1.359,1.359,2.136,3.233,2.136,5.154c0,1.912-0.777,3.786-2.136,5.145C150.372,341.114,148.489,341.89,146.577,341.89z"/>
<path style="fill:#1A6FB0;" d="M201.113,333.319c-1.912,0-3.796-0.776-5.145-2.126c-1.359-1.359-2.135-3.233-2.135-5.145  c0-1.922,0.776-3.796,2.135-5.154c1.349-1.349,3.223-2.126,5.145-2.126c1.912,0,3.795,0.776,5.145,2.126  c1.359,1.359,2.136,3.233,2.136,5.154c0,1.912-0.777,3.786-2.136,5.145C204.907,332.543,203.025,333.319,201.113,333.319z"/>
<path style="fill:#44FFE8;" d="M146.577,312.608c-1.912,0-3.796-0.776-5.145-2.126c-1.359-1.359-2.135-3.233-2.135-5.145  c0-1.922,0.776-3.796,2.135-5.154c1.349-1.349,3.223-2.126,5.145-2.126c1.912,0,3.795,0.776,5.145,2.126  c1.359,1.359,2.136,3.233,2.136,5.154c0,1.912-0.777,3.786-2.136,5.145C150.372,311.832,148.489,312.608,146.577,312.608z"/>
<path style="fill:#FFE477;" d="M365.334,341.89c-1.913,0-3.796-0.776-5.145-2.126c-1.359-1.359-2.135-3.233-2.135-5.145  c0-1.922,0.776-3.796,2.135-5.154c1.349-1.349,3.223-2.126,5.145-2.126c1.912,0,3.795,0.776,5.145,2.126  c1.359,1.359,2.136,3.233,2.136,5.154c0,1.912-0.777,3.786-2.136,5.145C369.129,341.114,367.246,341.89,365.334,341.89z"/>
<path style="fill:#AAFFF5;" d="M365.334,312.608c-1.913,0-3.796-0.776-5.145-2.126c-1.359-1.359-2.135-3.233-2.135-5.145  c0-1.922,0.776-3.796,2.135-5.154c1.349-1.349,3.223-2.126,5.145-2.126c1.912,0,3.795,0.776,5.145,2.126  c1.359,1.359,2.136,3.233,2.136,5.154c0,1.912-0.777,3.786-2.136,5.145C369.129,311.832,367.246,312.608,365.334,312.608z"/>
<path d="M503.759,125.726c-2.222-14.734-15.988-27.881-34.558-25.502c-16.61,2.128-27.999,17.999-25.502,34.558  c1.173,7.776,2.365,16.607,3.45,26.266l-35.834,15.77c-0.43-8.768-0.991-17.581-1.676-26.414l23.039-4.905  c4.051-0.862,6.637-4.846,5.774-8.896c-0.862-4.051-4.848-6.638-8.896-5.774l-22.08,4.701c-5.587-18.781-23.15-32.465-43.377-32.465  H147.812c-19.753,0-36.973,13.051-42.971,31.157l-36.389-6.466c-0.449-5.573-2.432-10.925-5.835-15.536  c-4.817-6.528-11.887-10.788-19.909-11.997c-16.565-2.5-32.061,8.945-34.557,25.502c-6.157,40.84-14.432,121.342-0.661,201.648  c0.7,4.083,4.576,6.826,8.659,6.125c4.083-0.7,6.824-4.577,6.125-8.659c-13.416-78.233-5.314-156.929,0.71-196.875  c1.264-8.38,9.109-14.17,17.491-12.908c4.061,0.612,7.638,2.769,10.076,6.073s3.443,7.358,2.832,11.419  c-8.169,54.179-17.237,157.978,13.823,244.429c2.854,7.945-1.259,16.728-9.172,19.629c-0.796,0.201-15.234,3.539-19.747-9.202  c-1.745-4.925-3.414-10.021-4.961-15.15c-1.196-3.965-5.38-6.211-9.346-5.014c-3.965,1.196-6.21,5.381-5.014,9.346  c1.615,5.354,3.359,10.677,5.182,15.825c2.708,7.644,7.757,13.398,14.6,16.645c10.392,4.933,22.692,2.263,24.262,1.699  c13.311-4.783,21.239-17.96,19.969-31.436l34.989-7.327c6.76,21.342,27.196,36.852,49.473,36.888  c22.749,0.037,55.633,0.055,88.516,0.055s65.766-0.055,88.515-0.055c25.309,0,42.38-16.046,49.14-37.388l35.322,7.827  c-1.27,13.476,6.657,26.654,19.969,31.437c1.889,0.678,5.657,1.363,9.819,1.363c0.001,0,0,0,0.001,0  c14.019,0,24.604-7.183,29.04-19.707C522.068,295.574,512.51,183.76,503.759,125.726z M441.678,332.952l-35.965-15.828  c1.115-7.261,2.092-14.742,2.928-22.433h25.256c6.424,0,12.034-3.49,15.078-8.662C447.434,301.666,445.075,317.43,441.678,332.952z   M433.897,232.315c1.355,0,2.5,1.145,2.5,2.5v42.378c0,1.355-1.145,2.5-2.5,2.5h-41.18c-1.355,0-2.5-1.145-2.5-2.5v-42.378  c0-1.355,1.145-2.5,2.5-2.5H433.897z M448.734,176.738c1.308,14.572,2.279,30.55,2.574,47.369h-3.601  c-3.204-4.123-8.195-6.791-13.81-6.791h-21.509c-0.028-8.064-0.163-16.2-0.42-24.398L448.734,176.738z M117.682,145.753  c1.302-15.526,14.537-27.688,30.13-27.688h216.287c15.594,0,28.829,12.162,30.13,27.688c2.025,24.152,3.078,48.191,3.161,71.564  h-4.672c-7.181,0-13.36,4.352-16.054,10.554v-58.203c0-19.269-15.676-34.944-34.943-34.944H170.191  c-19.269,0-34.943,15.676-34.943,34.944v58.199c-2.694-6.203-8.872-10.554-16.054-10.554h-4.674  C114.602,193.95,115.656,169.918,117.682,145.753z M361.664,169.668v82.906c0,10.998-8.947,19.945-19.944,19.945H170.191  c-10.998,0-19.944-8.947-19.944-19.945v-82.906c0-10.998,8.947-19.945,19.944-19.945H341.72  C352.717,149.722,361.664,158.671,361.664,169.668z M106.196,317.104l-36.014,15.622c-3.37-15.452-5.713-31.141-7.246-46.702  c3.044,5.174,8.654,8.663,15.079,8.663h25.258C104.106,302.372,105.082,309.847,106.196,317.104z M102.381,149.018  c-0.735,9.299-1.334,18.575-1.787,27.799l-35.832-15.769c0.731-6.501,1.509-12.626,2.298-18.306L102.381,149.018z M99.946,192.919  c-0.257,8.196-0.397,16.332-0.425,24.393H78.013c-5.774,0-10.887,2.823-14.076,7.146h-3.341c0.287-16.949,1.263-33.047,2.58-47.721  L99.946,192.919z M78.013,279.689c-1.355,0-2.5-1.145-2.5-2.5v-42.378c0-1.355,1.145-2.5,2.5-2.5h41.18c1.355,0,2.5,1.145,2.5,2.5  v42.378c0,1.355-1.145,2.5-2.5,2.5H78.013z M78.896,364.853c-1.884-5.711-3.596-11.492-5.145-17.327l35.044-15.201  c1.641,8.693,3.496,17.028,5.56,24.98L78.896,364.853z M378.72,368.61c-4.78,15.09-18.553,25.246-34.272,25.271  c-45.486,0.073-131.498,0.073-176.984,0c-15.72-0.025-29.493-10.181-34.272-25.271c-6.746-21.298-11.73-46.143-14.836-73.922  c0,0,18.337-0.024,18.337-17.499V262.5c4.289,14.447,17.679,25.017,33.498,25.017H341.72c15.82,0,29.21-10.571,33.498-25.017v14.693  c0,17.804,18.334,17.499,18.334,17.499C390.446,322.468,385.466,347.311,378.72,368.61z M403.108,332.365l34.988,15.398  c-1.533,5.755-3.225,11.456-5.083,17.089l-35.458-7.548C399.617,349.364,401.469,341.045,403.108,332.365z M473.627,387.402  c-0.852,2.404-3.443,9.717-14.904,9.717c-2.497,0-4.376-0.386-4.835-0.511c-7.919-2.899-12.037-11.684-9.182-19.632  c31.06-86.451,21.992-190.251,13.823-244.429c-0.612-4.061,0.394-8.115,2.832-11.419s6.017-5.46,10.076-6.072  c0.769-0.116,15.335-1.212,17.492,12.907C497.578,184.594,506.841,293.642,473.627,387.402z"/>
<path d="M22.649,362.336c4.024-0.983,6.488-5.043,5.504-9.065c-0.687-2.81-1.36-5.706-2.002-8.608  c-0.894-4.045-4.897-6.6-8.94-5.705c-4.044,0.894-6.598,4.897-5.705,8.94c0.666,3.012,1.375,6.016,2.078,8.935  C15.307,363.992,22.051,362.482,22.649,362.336z"/>
<path d="M179.339,161.025c-10.44,0-18.935,8.494-18.935,18.936v52.03c0,10.44,8.494,18.935,18.935,18.935h153.232  c10.44,0,18.935-8.494,18.935-18.935v-52.03c0-10.44-8.494-18.936-18.935-18.936H179.339z M336.507,179.96v52.03  c0,2.134-1.802,3.936-3.936,3.936H179.339c-2.134,0-3.936-1.802-3.936-3.936v-52.03c0-2.134,1.802-3.937,3.936-3.937h153.232  C334.706,176.023,336.507,177.826,336.507,179.96z"/>
<path d="M201.113,293.102c-18.165,0-32.942,14.778-32.942,32.943c0,18.165,14.778,32.943,32.942,32.943s32.943-14.778,32.943-32.943  C234.055,307.88,219.277,293.102,201.113,293.102z M201.113,343.989c-9.894,0-17.944-8.049-17.944-17.944  c0-9.894,8.049-17.944,17.944-17.944s17.944,8.049,17.944,17.944C219.056,335.939,211.007,343.989,201.113,343.989z"/>
<path d="M321.775,327.188c0-12.175-9.904-22.079-22.079-22.079c-12.175,0-22.079,9.904-22.079,22.079  c0,12.175,9.904,22.079,22.079,22.079C311.87,349.267,321.775,339.363,321.775,327.188z M299.695,334.269  c-3.904,0-7.08-3.177-7.08-7.08c0-3.904,3.177-7.08,7.08-7.08c3.904,0,7.08,3.177,7.08,7.08  C306.776,331.093,303.599,334.269,299.695,334.269z"/>
<path d="M255.952,331.982c-12.174,0-22.079,9.904-22.079,22.079c0,4.142,3.358,7.499,7.499,7.499s7.499-3.358,7.499-7.499  c0-3.904,3.176-7.08,7.08-7.08c3.904,0,7.08,3.176,7.08,7.08c0,3.905-3.177,7.08-7.08,7.08c-4.142,0-7.499,3.358-7.499,7.499  s3.358,7.499,7.499,7.499c12.175,0,22.079-9.904,22.079-22.079C278.031,341.887,268.127,331.982,255.952,331.982z"/>
<path d="M328.855,346.561c-12.175,0-22.079,9.904-22.079,22.079s9.904,22.079,22.079,22.079c12.175,0,22.079-9.904,22.079-22.079  S341.03,346.561,328.855,346.561z M328.855,375.721c-3.904,0-7.08-3.177-7.08-7.08s3.177-7.08,7.08-7.08  c3.904,0,7.08,3.177,7.08,7.08S332.759,375.721,328.855,375.721z"/>
<path d="M103.176,238.859c-4.021,0-7.279,3.26-7.279,7.279v19.723c0,4.021,3.26,7.279,7.279,7.279s7.279-3.26,7.279-7.279v-19.723  C110.456,242.118,107.197,238.859,103.176,238.859z"/>
<path d="M408.735,273.145c4.021,0,7.279-3.26,7.279-7.279v-19.723c0-4.021-3.26-7.279-7.279-7.279s-7.279,3.26-7.279,7.279v19.723  C401.454,269.886,404.714,273.145,408.735,273.145z"/>
<g>
</g>
<g>
</g>
<g>
</g>
<g>
</g>
<g>
</g>
<g>
</g>
<g>
</g>
<g>
</g>
<g>
</g>
<g>
</g>
<g>
</g>
<g>
</g>
<g>
</g>
<g>
</g>
<g>
</g>
</svg>
