<?xml version="1.0" encoding="iso-8859-1"?>
<!-- Generator: Adobe Illustrator 19.0.0, SVG Export Plug-In . SVG Version: 6.00 Build 0)  -->
<svg xmlns="http://www.w3.org/2000/svg" xmlns:xlink="http://www.w3.org/1999/xlink" version="1.1" id="Layer_1" x="0px" y="0px" viewBox="0 0 512.001 512.001" style="enable-background:new 0 0 512.001 512.001;" xml:space="preserve">
<path style="fill:#57565C;" d="M321.471,339.785V487.29c0,9.505-7.705,17.21-17.21,17.21H154.207c-9.505,0-17.21-7.705-17.21-17.21  V339.785H321.471z"/>
<path style="fill:#3E3D42;" d="M211.018,339.785h-74.02V487.29c0,9.505,7.705,17.21,17.21,17.21h56.811V339.785H211.018z"/>
<path style="fill:#FF9811;" d="M136.997,339.785v130.498c119.341,11.219,184.473-48.141,184.473-48.141v-82.358L136.997,339.785  L136.997,339.785z"/>
<path style="fill:#3E3D42;" d="M136.997,481.502v5.788c0,9.505,7.705,17.21,17.21,17.21h150.054c9.505,0,17.21-7.705,17.21-17.21  v-5.788H136.997z"/>
<path style="fill:#EE8700;" d="M211.018,339.785h-74.02v130.498c27.626,2.597,52.34,1.408,74.02-1.948V339.785z"/>
<path style="fill:#57565C;" d="M109.705,118.616c0-15.098,12.353-27.451,27.451-27.451s27.451,12.353,27.451,27.451V77.547  c0-15.098,12.353-27.451,27.451-27.451l0,0c15.098,0,27.451,12.353,27.451,27.451V34.951c0-15.098,12.353-27.451,27.451-27.451l0,0  c15.098,0,27.451,12.353,27.451,27.451v43.14c0-15.098,12.353-27.451,27.451-27.451s27.451,12.353,27.451,27.451v219.81  l30.022-71.643c5.835-13.925,22.003-20.544,35.928-14.708l0,0c13.925,5.835,20.544,22.003,14.708,35.928l-38.779,92.538  c-48.256,99.099-151.685,91.414-151.685,91.414c-60.393,0-109.805-49.412-109.805-109.805V118.616H109.705z"/>
<path style="fill:#3E3D42;" d="M164.607,321.625V118.617v-0.001c-0.001-15.098-12.353-27.45-27.451-27.45  c-15.098,0-27.451,12.353-27.451,27.451v203.009c0,60.393,49.412,109.805,109.805,109.805c0,0,13.281,0.985,32.543-2.307  C202.286,418.722,164.607,374.361,164.607,321.625z"/>
<path style="fill:#FF9811;" d="M164.607,118.616c0-15.098-12.353-27.451-27.451-27.451c-15.098,0-27.451,12.353-27.451,27.451  v111.649h54.902V118.616z"/>
<path style="fill:#3E3D42;" d="M109.705,118.616v111.649h19.072V118.616c0-11.749,7.482-21.833,17.915-25.73  c-2.974-1.111-6.187-1.721-9.536-1.721C122.058,91.165,109.705,103.518,109.705,118.616z"/>
<g>
	<path style="fill:#FFA733;" d="M219.509,77.431c0-15.035-12.353-27.335-27.451-27.335s-27.451,12.301-27.451,27.335v152.834h54.902   V77.431z"/>
	<path style="fill:#FFA733;" d="M329.316,78.086c0-15.098-12.353-27.451-27.451-27.451s-27.451,12.353-27.451,27.451v152.171   l54.982-0.066L329.316,78.086z"/>
</g>
<path style="fill:#FF9811;" d="M274.42,34.951c0-15.098-12.353-27.451-27.451-27.451c-15.098,0-27.451,12.353-27.451,27.451v195.314  h54.902V34.951z"/>
<g>
	<path style="fill:#57565C;" d="M164.607,77.431v152.834h19.072V77.431c0-11.699,7.482-21.741,17.915-25.621   c-2.974-1.106-6.187-1.714-9.536-1.714C176.96,50.096,164.607,62.397,164.607,77.431z"/>
	<path style="fill:#57565C;" d="M274.413,78.086v152.171l19.072,0.008V78.086c0-11.749,7.482-21.833,17.915-25.73   c-2.974-1.111-6.187-1.721-9.536-1.721C286.766,50.635,274.413,62.988,274.413,78.086z"/>
</g>
<g>
	<path style="fill:#3E3D42;" d="M219.518,34.951v195.314h19.072V34.951c0-11.749,7.482-21.833,17.915-25.73   c-2.974-1.111-6.187-1.721-9.536-1.721C231.871,7.5,219.518,19.853,219.518,34.951z"/>
	<rect x="219.52" y="210.89" style="fill:#3E3D42;" width="54.896" height="38.754"/>
</g>
<rect x="219.52" y="230.26" style="fill:#2D2D30;" width="54.894" height="19.377"/>
<rect x="164.45" y="210.89" style="fill:#57565C;" width="55.06" height="38.754"/>
<g>
	<rect x="164.45" y="230.26" style="fill:#3E3D42;" width="55.07" height="19.377"/>
	<path style="fill:#3E3D42;" d="M109.546,210.888c-5.332,0-9.654,4.322-9.654,9.654s4.322,9.654,9.654,9.654v19.446h54.902v-38.754   L109.546,210.888L109.546,210.888z"/>
</g>
<path style="fill:#2D2D30;" d="M109.546,230.265v0.035c-5.332,0-9.654,4.322-9.654,9.654s4.322,9.654,9.654,9.654v0.035h54.902  v-19.377h-54.902V230.265z"/>
<path style="fill:#57565C;" d="M338.889,220.542c0-5.305-4.28-9.607-9.575-9.65v-0.004H274.42l-0.008,38.754h54.902v-19.45  C334.609,230.149,338.889,225.847,338.889,220.542z"/>
<g>
	<path style="fill:#3E3D42;" d="M338.889,239.954c0-5.305-4.28-9.719-9.575-9.762l-54.902,0.084v19.367h54.902v-0.038   C334.609,249.561,338.889,245.259,338.889,239.954z"/>
	<path style="fill:#3E3D42;" d="M277.402,266.845H166.325c-16.043,0-29.169,13.126-29.169,29.169l0,0   c0,16.043,13.126,29.169,29.169,29.169h111.076c16.043,0,29.169-13.126,29.169-29.169l0,0   C306.571,279.971,293.445,266.845,277.402,266.845z"/>
</g>
<g>
	<path style="fill:#2D2D30;" d="M306.571,296.014c0-16.043-13.126-29.169-29.169-29.169H166.325   c-16.043,0-29.169,13.126-29.169,29.169l0,0c0,4.719,1.143,9.182,3.155,13.136c4.827-9.489,14.691-16.033,26.015-16.033h111.076   c11.324,0,21.188,6.544,26.015,16.033C305.428,305.196,306.571,300.734,306.571,296.014L306.571,296.014z"/>
	<path style="fill:#2D2D30;" d="M211.018,481.502h-74.02v5.788c0,9.505,7.705,17.21,17.21,17.21h56.811v-22.998H211.018z"/>
</g>
<path style="fill:#3E3D42;" d="M332.921,345.803l62.344-134.254c-13.925-5.835-30.092,0.783-35.928,14.708L329.315,297.9  l-22.743,48.225l14.053,51.219C316.31,377.267,332.921,345.803,332.921,345.803z"/>
<path style="fill:#FFA733;" d="M346.561,377.457c-0.23-0.227-19.355-19.32-17.246-79.556c0,0-55.952,54.731-7.845,102.524  C330.137,394.121,338.613,386.543,346.561,377.457z"/>
<path style="fill:#FF9811;" d="M332.921,345.803l0.003-0.005c-2.598-11.828-4.323-27.496-3.609-47.897  c0,0-55.952,54.731-7.845,102.524C314.496,380.678,332.921,345.803,332.921,345.803z"/>
<path style="fill:#FFA733;" d="M395.264,211.55L395.264,211.55c-13.925-5.835-30.092,0.783-35.928,14.708l-6.784,16.189l50.69,21.09  l0,0l6.73-16.06C415.808,233.552,409.189,217.385,395.264,211.55z"/>
<path style="fill:#FF9811;" d="M359.337,226.258l-6.784,16.189l23.771,9.89l18.941-40.788  C381.339,205.714,365.172,212.333,359.337,226.258z"/>
<path style="fill:#FFA733;" d="M390.905,292.979l-19.526-2.929c-6.93-1.039-11.648,6.829-7.467,12.453l14.711,19.784  L390.905,292.979z"/>
<path style="fill:#FF9811;" d="M372.097,290.158l-0.719-0.108c-6.93-1.039-11.648,6.829-7.467,12.453l14.711,19.784l5.708-13.621  l-10.696-14.384C372.668,292.981,372.195,291.561,372.097,290.158z"/>
<path d="M416.969,223.638c-3.545-8.66-10.224-15.409-18.806-19.005c-8.583-3.597-18.077-3.625-26.738-0.08  c-8.66,3.545-15.409,10.224-19.005,18.806l-6.15,14.675c-0.32-2.872-1.335-5.541-2.89-7.817c1.897-2.759,3.009-6.094,3.009-9.674  c0-6.711-3.916-12.542-9.575-15.354V78.091c0-19.272-15.679-34.951-34.951-34.951c-7.411,0-14.29,2.318-19.951,6.268V34.951  C281.912,15.679,266.233,0,246.961,0S212.01,15.679,212.01,34.951v13.913c-5.661-3.95-12.541-6.268-19.951-6.268  c-19.272,0-34.951,15.679-34.951,34.951v12.386c-5.661-3.95-12.541-6.268-19.951-6.268c-19.272,0-34.951,15.679-34.951,34.951  v86.446c-5.791,2.758-9.813,8.651-9.813,15.48c0,3.6,1.115,6.944,3.017,9.706c-1.902,2.762-3.017,6.106-3.017,9.706  c0,6.833,4.017,12.743,9.813,15.5v66.171c0,28.562,10.265,54.767,27.292,75.134v90.532c0,13.625,11.085,24.71,24.71,24.71H304.26  c13.625,0,24.71-11.085,24.71-24.71v-83.203c18.026-13.806,35.571-33.28,48.967-60.789c0.062-0.127,0.12-0.255,0.174-0.385  l38.778-92.538C420.486,241.794,420.514,232.298,416.969,223.638z M377.108,218.435c4.951-2.028,10.369-2.017,15.258,0.033  c4.887,2.047,8.694,5.902,10.722,10.854c2.027,4.952,2.016,10.37-0.032,15.257l-3.839,9.161l-36.841-15.328l3.878-9.255  C368.301,224.27,372.156,220.462,377.108,218.435z M266.92,218.388v4.377h-40.03v-4.377H266.92z M211.89,222.765h-39.942v-4.377  h39.942V222.765z M156.948,222.765H110.51c-0.316-0.041-0.637-0.069-0.964-0.069c-1.188,0-2.154-0.966-2.154-2.154  s0.966-2.154,2.154-2.154h47.402V222.765z M110.272,242.143c-0.239-0.023-0.481-0.035-0.726-0.035c-1.188,0-2.154-0.966-2.154-2.154  s0.966-2.154,2.154-2.154c0.225,0,0.447-0.015,0.667-0.035h46.735v4.377h-46.676V242.143z M171.948,237.765h39.942v4.377h-39.942  V237.765z M226.89,237.765h40.03v4.377h-40.03L226.89,237.765L226.89,237.765z M281.92,237.765h24.73c4.142,0,7.5-3.358,7.5-7.5  s-3.358-7.5-7.5-7.5h-24.73v-4.377h47.151c0.061,0.002,0.122,0.003,0.182,0.003c1.178,0.01,2.136,0.974,2.136,2.15  s-0.958,2.141-2.136,2.15c-4.118,0.034-7.439,3.382-7.439,7.5s3.321,7.466,7.439,7.5c1.158,0.01,2.136,1.045,2.136,2.262  c0,1.176-0.958,2.141-2.136,2.15c-0.237,0.002-0.472,0.015-0.703,0.038h-46.63V237.765z M336.814,255.321  c1.077-0.535,2.083-1.185,3.018-1.924l-3.018,7.202V255.321z M227.01,34.951C227.01,23.95,235.96,15,246.961,15  c11.001,0,19.951,8.95,19.951,19.951v150.834c0,4.142,3.358,7.5,7.5,7.5s7.5-3.358,7.5-7.5V78.091  c0-11.001,8.95-19.951,19.951-19.951s19.951,8.95,19.951,19.951v125.297H227.01V34.951z M137.156,98.665  c10.187,0,18.602,7.68,19.792,17.552v69.569c0,4.142,3.358,7.5,7.5,7.5s7.5-3.358,7.5-7.5l0.159-108.239  c0-11.001,8.95-19.951,19.951-19.951s19.951,8.95,19.951,19.951v125.841h-94.805v-84.772  C117.205,107.615,126.155,98.665,137.156,98.665z M117.205,257.143h204.609v37.754c-2.143,2.337-5.559,6.311-9.266,11.559  c0.986-3.311,1.523-6.814,1.523-10.441c0-20.22-16.45-36.669-36.669-36.669H166.325c-20.22,0-36.669,16.45-36.669,36.669  s16.45,36.669,36.669,36.669h111.076c10.101,0,19.261-4.106,25.9-10.736c-4.929,10.025-8.802,21.989-8.852,34.912  c-0.059,15.344,5.241,29.53,15.737,42.287c-10.558,6.765-22.138,12.25-34.717,16.429c-30.196,10.03-55.168,8.39-55.404,8.374  c-0.185-0.014-0.37-0.021-0.556-0.021c-56.411,0-102.305-45.894-102.305-102.305L117.205,257.143L117.205,257.143z M299.071,296.015  c0,11.949-9.721,21.669-21.669,21.669H166.325c-11.949,0-21.669-9.721-21.669-21.669s9.721-21.669,21.669-21.669h111.076  C289.35,274.345,299.071,284.066,299.071,296.015z M304.26,497H154.207c-4.769,0-8.737-3.459-9.549-7.998H313.81  C312.998,493.541,309.029,497,304.26,497z M313.97,418.635c-4.428,3.532-14.786,11.171-30.604,19.139  c-3.699,1.864-5.187,6.373-3.324,10.072c1.318,2.617,6.285,5.32,10.073,3.324c9.888-5.211,17.943-9.929,23.855-13.947v36.778h-91.75  c5.308-1.02,10.567-2.182,15.766-3.501c4.015-1.019,6.444-5.1,5.425-9.114c-1.019-4.015-5.097-6.446-9.114-5.425  c-28.354,7.195-58.531,9.681-89.799,7.415v-51.635c31.163,26.258,77.417,27.332,80.324,27.332c9.746,0,30.549-1.113,54.773-9.063  c10.485-3.441,22.311-8.441,34.376-15.701v4.326H313.97z M322.402,390.382c-8.623-10.21-12.982-21.414-12.954-33.387  c0.034-14.396,6.268-27.787,12.515-37.6c1.674,31.995,9.683,49.482,14.91,57.658C332.336,381.843,327.514,386.291,322.402,390.382z   M347.256,364.827c-4.829-9.641-11.543-29.685-10.48-65.328l19.802-47.254l36.841,15.328l-7.175,17.122l-13.752-2.063  c-6.172-0.924-12.235,1.935-15.445,7.287c-3.21,5.353-2.878,12.048,0.847,17.058l12.16,16.353l-5.694,13.588  C359.399,347.078,353.688,356.379,347.256,364.827z M380.264,298.967l-3.473,8.287l-6.86-9.226c-0.097-0.13-0.141-0.19-0.02-0.393  c0.122-0.203,0.192-0.192,0.355-0.167L380.264,298.967z"/>
<path d="M265.189,445.95c-3.875,1.547-7.86,3.018-11.844,4.373c-3.922,1.333-6.021,5.593-4.688,9.515  c1.062,3.122,4.502,6.163,9.515,4.688c4.286-1.261,8.462-3,12.579-4.644c3.847-1.536,5.72-5.899,4.184-9.747  C273.399,446.288,269.036,444.413,265.189,445.95z"/>
<g>
</g>
<g>
</g>
<g>
</g>
<g>
</g>
<g>
</g>
<g>
</g>
<g>
</g>
<g>
</g>
<g>
</g>
<g>
</g>
<g>
</g>
<g>
</g>
<g>
</g>
<g>
</g>
<g>
</g>
</svg>
