<?xml version="1.0" encoding="iso-8859-1"?>
<!-- Generator: Adobe Illustrator 19.0.0, SVG Export Plug-In . SVG Version: 6.00 Build 0)  -->
<svg xmlns="http://www.w3.org/2000/svg" xmlns:xlink="http://www.w3.org/1999/xlink" version="1.1" id="Layer_1" x="0px" y="0px" viewBox="0 0 511.998 511.998" style="enable-background:new 0 0 511.998 511.998;" xml:space="preserve">
<g>
	<path style="fill:#2D2D30;" d="M256.001,104.433c-6.863,0-12.427-5.564-12.427-12.427V19.927c0-6.864,5.564-12.427,12.427-12.427   s12.427,5.564,12.427,12.427v72.078C268.428,98.869,262.863,104.433,256.001,104.433z"/>
	<rect x="210.439" y="164.5" style="fill:#2D2D30;" width="91.13" height="255.08"/>
</g>
<g>
	<circle style="fill:#FF0C38;" cx="318.969" cy="142.54" r="37.28"/>
	<circle style="fill:#FF0C38;" cx="193.039" cy="142.54" r="37.28"/>
</g>
<g>
	<path style="fill:#D80027;" d="M193.036,105.261c-9.271,0-17.745,3.392-24.268,8.993v56.578c6.523,5.601,14.997,8.993,24.268,8.993   c20.59,0,37.282-16.692,37.282-37.282S213.626,105.261,193.036,105.261z"/>
	<path style="fill:#D80027;" d="M318.965,105.261c9.271,0,17.745,3.392,24.268,8.993v56.578c-6.522,5.601-14.997,8.993-24.268,8.993   c-20.59,0-37.282-16.692-37.282-37.282C281.684,121.953,298.375,105.261,318.965,105.261z"/>
</g>
<g>
	<path style="fill:#3E3D42;" d="M226.384,105.261h-72.399c-8.866,0-12.05,11.71-4.405,16.2l9.483,5.57   c10.007,5.877,18.909,13.462,26.3,22.409l36.051,43.64L226.384,105.261z"/>
	<path style="fill:#3E3D42;" d="M285.617,105.261h72.399c8.866,0,12.05,11.71,4.405,16.2l-9.483,5.57   c-10.007,5.877-18.909,13.462-26.3,22.409l-36.051,43.64L285.617,105.261z"/>
</g>
<g>
	<path style="fill:#2D2D30;" d="M168.768,133.551c6.113,4.635,11.692,9.954,16.595,15.889l36.051,43.64l4.971-87.819h-57.616   L168.768,133.551L168.768,133.551z"/>
	<path style="fill:#2D2D30;" d="M343.233,133.551c-6.113,4.635-11.692,9.954-16.595,15.889l-36.051,43.64l-4.971-87.819h57.616   v28.29H343.233z"/>
</g>
<path style="fill:#57565C;" d="M300.965,205.508h-89.929c-9.9,0-18-8.1-18-18v-89.93c0-9.9,8.1-18,18-18h89.929c9.9,0,18,8.1,18,18  v89.929C318.965,197.408,310.865,205.508,300.965,205.508z"/>
<path style="fill:#3E3D42;" d="M243.573,188.035V97.051c0-9.61,7.863-17.473,17.473-17.473h-50.537  c-9.61,0-17.473,7.863-17.473,17.473v90.984c0,9.61,7.863,17.473,17.473,17.473h50.537  C251.436,205.508,243.573,197.645,243.573,188.035z"/>
<circle style="fill:#FF3F62;" cx="255.999" cy="142.54" r="37.28"/>
<path style="fill:#FF0C38;" d="M256.001,142.543c0-13.797,7.501-25.835,18.641-32.282c-5.485-3.174-11.848-5-18.641-5  c-20.59,0-37.282,16.692-37.282,37.282s16.692,37.282,37.282,37.282c6.793,0,13.156-1.826,18.641-5  C263.501,168.378,256.001,156.34,256.001,142.543z"/>
<g>
	<circle style="fill:#7ED63E;" cx="318.959" cy="441.54" r="37.28"/>
	<circle style="fill:#7ED63E;" cx="193.029" cy="441.54" r="37.28"/>
</g>
<g>
	<path style="fill:#6DC82A;" d="M193.033,404.253c-9.271,0-17.745,3.392-24.268,8.993v56.578c6.522,5.601,14.997,8.993,24.268,8.993   c20.59,0,37.282-16.692,37.282-37.282C230.314,420.945,213.623,404.253,193.033,404.253z"/>
	<path style="fill:#6DC82A;" d="M318.962,404.253c9.271,0,17.745,3.392,24.268,8.993v56.578c-6.522,5.601-14.997,8.993-24.268,8.993   c-20.59,0-37.282-16.692-37.282-37.282C281.68,420.945,298.372,404.253,318.962,404.253z"/>
</g>
<g>
	<path style="fill:#3E3D42;" d="M226.381,404.253h-72.399c-8.866,0-12.05,11.71-4.405,16.2l9.483,5.57   c10.007,5.877,18.909,13.462,26.3,22.409l36.051,43.64L226.381,404.253z"/>
	<path style="fill:#3E3D42;" d="M285.614,404.253h72.399c8.866,0,12.05,11.71,4.405,16.2l-9.483,5.57   c-10.007,5.877-18.909,13.462-26.3,22.409l-36.051,43.64L285.614,404.253z"/>
</g>
<g>
	<path style="fill:#2D2D30;" d="M168.765,432.544c6.113,4.635,11.692,9.954,16.595,15.888l36.051,43.64l4.971-87.819h-57.616   L168.765,432.544L168.765,432.544z"/>
	<path style="fill:#2D2D30;" d="M343.23,432.544c-6.113,4.635-11.692,9.954-16.595,15.888l-36.051,43.64l-4.971-87.819h57.616   v28.291H343.23z"/>
</g>
<path style="fill:#57565C;" d="M300.962,504.5h-89.929c-9.9,0-18-8.1-18-18v-89.93c0-9.9,8.1-18,18-18h89.929c9.9,0,18,8.1,18,18  v89.93C318.962,496.4,310.862,504.5,300.962,504.5z"/>
<path style="fill:#3E3D42;" d="M243.57,487.027v-90.984c0-9.61,7.863-17.473,17.473-17.473h-50.537  c-9.61,0-17.473,7.863-17.473,17.473v90.984c0,9.61,7.863,17.473,17.473,17.473h50.537C251.433,504.5,243.57,496.637,243.57,487.027  z"/>
<circle style="fill:#91DC5A;" cx="255.999" cy="441.54" r="37.28"/>
<path style="fill:#7ED63E;" d="M255.997,441.535c0-13.797,7.501-25.835,18.641-32.282c-5.485-3.174-11.848-5-18.641-5  c-20.59,0-37.282,16.692-37.282,37.282c0,20.59,16.692,37.282,37.282,37.282c6.793,0,13.156-1.826,18.641-5  C263.498,467.37,255.997,455.332,255.997,441.535z"/>
<g>
	<circle style="fill:#FF9811;" cx="318.969" cy="292.04" r="37.28"/>
	<circle style="fill:#FF9811;" cx="193.039" cy="292.04" r="37.28"/>
</g>
<g>
	<path style="fill:#EE8700;" d="M193.036,254.757c-9.271,0-17.745,3.392-24.268,8.993v56.578c6.523,5.601,14.997,8.992,24.268,8.992   c20.59,0,37.282-16.692,37.282-37.282C230.318,271.449,213.626,254.757,193.036,254.757z"/>
	<path style="fill:#EE8700;" d="M318.965,254.757c9.271,0,17.745,3.392,24.268,8.993v56.578c-6.522,5.601-14.997,8.992-24.268,8.992   c-20.59,0-37.282-16.692-37.282-37.282C281.684,271.449,298.375,254.757,318.965,254.757z"/>
</g>
<g>
	<path style="fill:#3E3D42;" d="M226.384,254.757h-72.399c-8.866,0-12.05,11.71-4.405,16.2l9.483,5.57   c10.007,5.877,18.909,13.462,26.3,22.409l36.051,43.64L226.384,254.757z"/>
	<path style="fill:#3E3D42;" d="M285.617,254.757h72.399c8.866,0,12.05,11.71,4.405,16.2l-9.483,5.57   c-10.007,5.877-18.909,13.462-26.3,22.409l-36.051,43.64L285.617,254.757z"/>
</g>
<g>
	<path style="fill:#2D2D30;" d="M168.768,283.048c6.113,4.635,11.692,9.954,16.595,15.889l36.051,43.64l4.971-87.819h-57.616   L168.768,283.048L168.768,283.048z"/>
	<path style="fill:#2D2D30;" d="M343.233,283.048c-6.113,4.635-11.692,9.954-16.595,15.889l-36.051,43.64l-4.971-87.819h57.616   v28.29H343.233z"/>
</g>
<path style="fill:#57565C;" d="M300.965,355.004h-89.929c-9.9,0-18-8.1-18-18v-89.929c0-9.9,8.1-18,18-18h89.929c9.9,0,18,8.1,18,18  v89.929C318.965,346.904,310.865,355.004,300.965,355.004z"/>
<path style="fill:#3E3D42;" d="M243.573,337.531v-90.984c0-9.61,7.863-17.473,17.473-17.473h-50.537  c-9.61,0-17.473,7.863-17.473,17.473v90.984c0,9.61,7.863,17.473,17.473,17.473h50.537  C251.436,355.004,243.573,347.141,243.573,337.531z"/>
<circle style="fill:#FFA733;" cx="255.999" cy="292.04" r="37.28"/>
<path style="fill:#FF9811;" d="M256.001,292.039c0-13.797,7.501-25.835,18.641-32.282c-5.485-3.174-11.848-5-18.641-5  c-20.59,0-37.282,16.692-37.282,37.282c0,20.59,16.692,37.282,37.282,37.282c6.793,0,13.156-1.826,18.641-5  C263.501,317.874,256.001,305.836,256.001,292.039z"/>
<path d="M256.001,187.325c24.692,0,44.781-20.089,44.781-44.782s-20.089-44.782-44.781-44.782  c-24.693,0-44.782,20.089-44.782,44.782S231.308,187.325,256.001,187.325z M256.001,112.761c16.422,0,29.781,13.36,29.781,29.782  s-13.359,29.782-29.781,29.782s-29.782-13.36-29.782-29.782S239.579,112.761,256.001,112.761z"/>
<path d="M228.291,302.98c-1.522-3.853-5.881-5.743-9.731-4.219c-3.853,1.522-5.741,5.879-4.22,9.731  c1.94,4.911,4.891,9.257,8.247,13.363c3.797,4.646,9.159,1.876,10.59,0.6c3.09-2.759,3.358-7.5,0.6-10.59  C231.425,309.231,229.579,306.242,228.291,302.98z"/>
<path d="M256.001,247.257c-20.953,0-39.363,14.847-43.775,35.303c-0.874,4.049,1.7,8.04,5.75,8.913  c4.049,0.873,8.039-1.701,8.912-5.75c2.934-13.597,15.177-23.466,29.113-23.466c16.422,0,29.781,13.36,29.781,29.782  s-13.359,29.782-29.781,29.782c-2.563,0-5.105-0.325-7.557-0.965c-4.007-1.047-8.105,1.353-9.152,5.361  c-1.047,4.007,1.354,8.105,5.361,9.152c3.688,0.963,7.506,1.452,11.348,1.452c24.692,0,44.781-20.089,44.781-44.782  S280.693,247.257,256.001,247.257z"/>
<path d="M373.647,259.206c-1.943-7.146-8.225-11.948-15.631-11.948h-31.552v-0.183c0-11.256-7.334-20.826-17.473-24.198v-11.171  c18.757-6.198,17.473-25.021,17.473-25.021c21.134-3.58,37.282-22.005,37.282-44.141c0-4.168-0.568-8.24-1.68-12.175l4.154-2.439  c6.386-3.751,9.37-11.073,7.427-18.219c-1.943-7.146-8.226-11.948-15.631-11.948h-16.917c-4.143,0-7.5,3.358-7.5,7.5  s3.357,7.5,7.5,7.5h16.918c0.32,0,0.916,0,1.156,0.884c0.241,0.885-0.273,1.187-0.549,1.349l-9.483,5.569  c-8.373,4.917-15.965,10.91-22.676,17.851V97.578c0-14.061-11.439-25.5-25.5-25.5h-25.037V19.927C275.928,8.939,266.988,0,256.001,0  c-10.988,0-19.928,8.939-19.928,19.927v52.151h-25.037c-14.061,0-25.5,11.439-25.5,25.5v0.183h-31.552  c-7.405,0-13.688,4.801-15.631,11.948c-1.943,7.146,1.041,14.468,7.428,18.22l4.153,2.439c-1.112,3.935-1.68,8.008-1.68,12.175  c0,22.137,16.149,40.561,37.282,44.141c0,0-1.037,18.823,17.397,24.996v11.222c-10.099,3.395-17.397,12.944-17.397,24.173v0.183  h-31.552c-7.406,0-13.688,4.802-15.631,11.948c-1.943,7.147,1.041,14.468,7.428,18.219l4.153,2.439  c-1.112,3.935-1.68,8.008-1.68,12.175c0,22.137,16.149,40.561,37.282,44.141c0,0-1.037,18.823,17.473,25.021v11.169  c-10.14,3.371-17.476,12.942-17.476,24.199v40.837c-6.711-6.941-14.304-12.934-22.676-17.851l-9.483-5.569  c-0.275-0.162-0.79-0.464-0.549-1.349c0.24-0.884,0.836-0.884,1.156-0.884h18.053c4.143,0,7.5-3.358,7.5-7.5s-3.357-7.5-7.5-7.5  h-18.053c-7.406,0-13.688,4.802-15.631,11.948c-1.943,7.147,1.041,14.468,7.428,18.219l4.153,2.439  c-1.112,3.935-1.68,8.008-1.68,12.175c0,22.137,16.149,40.561,37.282,44.141c0,0,1.466,26.323,25.5,26.323h89.929  c24.537,0,25.5-26.323,25.5-26.323c21.134-3.58,37.282-22.005,37.282-44.141c0-4.168-0.568-8.24-1.68-12.175l4.153-2.439  c6.387-3.751,9.371-11.072,7.428-18.219c-1.943-7.146-8.225-11.948-15.631-11.948h-31.552v-0.183  c0-11.255-7.333-20.824-17.47-24.197v-11.171c18.007-6.198,17.473-25.021,17.473-25.021c21.134-3.58,37.282-22.005,37.282-44.141  c0-4.168-0.568-8.24-1.68-12.175l4.153-2.439C372.606,273.674,375.591,266.353,373.647,259.206z M358.017,262.257  c0.32,0,0.916,0,1.156,0.884c0.241,0.885-0.273,1.187-0.549,1.349l-9.483,5.569c-8.372,4.917-15.964,10.91-22.676,17.851v-25.653  L358.017,262.257L358.017,262.257z M293.992,213.007v8.567h-76.059v-8.567H293.992z M348.528,138.953  c0.141,1.183,0.219,2.379,0.219,3.589c0,13.832-9.479,25.49-22.282,28.824v-9.94C326.465,161.427,335.749,149.171,348.528,138.953z   M251.073,19.927c0-2.717,2.211-4.927,4.928-4.927s4.927,2.21,4.927,4.927v52.151h-9.854V19.927H251.073z M152.828,113.646  c0.24-0.884,0.836-0.884,1.156-0.884h31.552v25.653c-6.71-6.939-14.302-12.933-22.676-17.851l-9.482-5.569  C153.102,114.832,152.587,114.53,152.828,113.646z M163.254,142.543c0-1.21,0.078-2.407,0.219-3.59  c9.776,7.047,22.063,22.473,22.063,22.473v9.94C172.733,168.033,163.254,156.375,163.254,142.543z M200.536,97.578  c0-5.79,4.71-10.5,10.5-10.5h89.929c5.79,0,10.5,4.71,10.5,10.5v89.929c0,5.79-4.71,10.5-10.5,10.5h-89.929  c-5.79,0-10.5-4.71-10.5-10.5V97.578z M152.828,263.142c0.24-0.884,0.836-0.884,1.156-0.884h31.552v25.653  c-6.71-6.94-14.302-12.933-22.676-17.85l-9.483-5.569C153.102,264.328,152.587,264.026,152.828,263.142z M163.254,292.039  c0-1.21,0.078-2.406,0.219-3.589c11.776,7.55,22.063,22.473,22.063,22.473v9.94C172.733,317.529,163.254,305.871,163.254,292.039z   M218.009,371.07v-8.566h75.983v8.566H218.009z M163.251,441.535c0-1.21,0.078-2.406,0.219-3.589  c5.951,4.412,11.354,9.51,16.107,15.264l5.956,7.21v9.94C172.73,467.025,163.251,455.367,163.251,441.535z M326.462,470.359v-9.94  l5.956-7.21c4.751-5.753,10.155-10.851,16.107-15.263c0.141,1.183,0.219,2.379,0.219,3.59  C348.744,455.367,339.265,467.025,326.462,470.359z M358.014,411.753c0.32,0,0.916,0,1.156,0.884  c0.241,0.885-0.273,1.187-0.549,1.349l-9.483,5.569c-8.373,4.918-15.966,10.911-22.676,17.851v-25.653H358.014z M311.462,486.5  c0,5.79-4.71,10.5-10.5,10.5h-89.929c-5.79,0-10.5-4.71-10.5-10.5v-89.93c0-5.79,4.71-10.5,10.5-10.5h89.929  c5.79,0,10.5,4.71,10.5,10.5V486.5z M311.465,337.004c0,5.79-4.71,10.5-10.5,10.5h-89.929c-5.79,0-10.5-4.71-10.5-10.5v-89.93  c0-5.79,4.71-10.5,10.5-10.5h89.929c5.79,0,10.5,4.71,10.5,10.5V337.004z M326.465,320.863v-9.94l5.956-7.21  c4.753-5.753,10.156-10.851,16.107-15.263c0.141,1.183,0.219,2.379,0.219,3.589C348.747,305.871,339.268,317.529,326.465,320.863z"/>
<path d="M255.997,396.753c-24.692,0-44.781,20.089-44.781,44.782s20.089,44.782,44.781,44.782c24.693,0,44.782-20.089,44.782-44.782  S280.69,396.753,255.997,396.753z M255.997,471.317c-16.422,0-29.781-13.36-29.781-29.782s13.359-29.782,29.781-29.782  s29.782,13.36,29.782,29.782S272.419,471.317,255.997,471.317z"/>
<g>
</g>
<g>
</g>
<g>
</g>
<g>
</g>
<g>
</g>
<g>
</g>
<g>
</g>
<g>
</g>
<g>
</g>
<g>
</g>
<g>
</g>
<g>
</g>
<g>
</g>
<g>
</g>
<g>
</g>
</svg>
