<?xml version="1.0" encoding="iso-8859-1"?>
<!-- Generator: Adobe Illustrator 19.0.0, SVG Export Plug-In . SVG Version: 6.00 Build 0)  -->
<svg xmlns="http://www.w3.org/2000/svg" xmlns:xlink="http://www.w3.org/1999/xlink" version="1.1" id="Layer_1" x="0px" y="0px" viewBox="0 0 511.999 511.999" style="enable-background:new 0 0 511.999 511.999;" xml:space="preserve">
<path style="fill:#3D9AE2;" d="M60.745,229.58l112.172-21.79l20.567-74.173c4.802-17.319,20.568-29.308,38.54-29.308h152.014  c17.175,0,32.432,10.965,37.908,27.244l25.563,75.998l22.97,0.107c12.329,0.057,22.293,10.068,22.293,22.397v100.891  c0,16.787-13.609,30.396-30.396,30.396H51.956c-16.862,0-30.502-13.726-30.395-30.588l0.343-54.364  C22.049,253.526,38.301,233.939,60.745,229.58z"/>
<g>
	<path style="fill:#1E81CE;" d="M105.296,293.193c0.132-20.845,14.949-38.702,35.412-42.677l90.473-17.575   c7.227-1.404,13.039-6.775,15.006-13.87l15.541-56.046c4.378-15.79,18.752-26.72,35.138-26.72h126.679l-1.598-4.751   c-5.476-16.279-20.733-27.244-37.908-27.244H232.024c-17.973,0-33.738,11.989-38.54,29.308l-20.567,74.173L60.745,229.58   c-22.444,4.36-38.696,23.947-38.841,46.81l-0.343,54.364c-0.106,16.862,13.533,30.588,30.395,30.588h60.029   c-4.392-4.937-7.048-11.452-7.003-18.584L105.296,293.193z"/>
	<path style="fill:#1E81CE;" d="M305.863,361.341V104.309h-73.839c-17.973,0-33.738,11.989-38.541,29.308l-20.567,74.173v153.551   H305.863z"/>
</g>
<path style="fill:#1A6FB0;" d="M261.727,163.025c4.378-15.79,18.752-26.72,35.138-26.72h8.998V104.31h-73.839  c-17.973,0-33.738,11.989-38.541,29.308l-20.567,74.173v36.469l58.264-11.318c7.227-1.404,13.039-6.775,15.006-13.87  L261.727,163.025z"/>
<path style="fill:#1E81CE;" d="M21.821,289.617l-0.26,41.136c-0.013,2.074,0.186,4.099,0.569,6.058h470.063  c0.371-1.899,0.578-3.858,0.578-5.866v-41.328H21.821z"/>
<g>
	<path style="fill:#1A6FB0;" d="M105.469,289.617H21.821l-0.26,41.136c-0.013,2.074,0.186,4.099,0.569,6.058h82.89l0.275-43.618   C105.303,291.99,105.365,290.798,105.469,289.617z"/>
	<rect x="172.92" y="289.62" style="fill:#1A6FB0;" width="132.95" height="47.19"/>
</g>
<circle style="fill:#FFFFFF;" cx="245.65" cy="274.92" r="29.445"/>
<path style="fill:#D1E7F8;" d="M220.137,289.617c5.088,8.814,14.604,14.751,25.512,14.751c10.909,0,20.425-5.937,25.512-14.751  H220.137z"/>
<path style="fill:#D8D7DA;" d="M490.105,322.679H21.901c-7.919,0-14.398,6.479-14.398,14.398v9.865  c0,7.919,6.479,14.398,14.398,14.398h468.204c7.919,0,14.398-6.479,14.398-14.398v-9.865  C504.503,329.159,498.024,322.679,490.105,322.679z"/>
<g>
	<path style="fill:#C6C5CA;" d="M105.109,322.679H21.901c-7.919,0-14.398,6.479-14.398,14.398v9.865   c0,7.919,6.479,14.398,14.398,14.398h90.084c-4.392-4.937-7.048-11.452-7.003-18.584L105.109,322.679z"/>
	<path style="fill:#C6C5CA;" d="M221.042,322.679H116.869v38.661h108.239c0.493-3.614,0.77-7.295,0.77-11.042   C225.878,340.606,224.167,331.307,221.042,322.679z"/>
	<path style="fill:#C6C5CA;" d="M448.145,322.679H343.972v38.661h108.239c0.493-3.614,0.77-7.295,0.77-11.042   C452.981,340.606,451.27,331.307,448.145,322.679z"/>
</g>
<path style="fill:#57565C;" d="M291.303,136.304h-59.278c-3.582,0-6.751,2.41-7.708,5.862l-14.262,51.433  c-1.978,7.134,3.388,14.191,10.791,14.191h70.457L291.303,136.304L291.303,136.304z"/>
<path style="fill:#3E3D42;" d="M249.497,156.365h41.805v-20.061h-59.278c-3.582,0-6.751,2.41-7.708,5.862l-14.262,51.433  c-1.978,7.134,3.388,14.191,10.791,14.191h8.309l12.634-45.563C242.747,158.775,245.915,156.365,249.497,156.365z"/>
<path style="fill:#57565C;" d="M408.864,193.021l-17.244-51.268c-1.097-3.259-4.143-5.449-7.582-5.449h-78.175v71.486h92.387  C405.906,207.79,411.305,200.278,408.864,193.021z"/>
<path style="fill:#2D2D30;" d="M235.473,232.825L235.473,232.825c-7.039,0-12.798-5.759-12.798-12.798V199.23  c0-7.039,5.759-12.798,12.798-12.798l0,0c7.039,0,12.798,5.759,12.798,12.798v20.797  C248.271,227.066,242.512,232.825,235.473,232.825z"/>
<path style="fill:#FFE477;" d="M56.297,289.617l7.291-16.202c3.335-7.411-2.086-15.794-10.212-15.794H25.86  c-2.509,5.788-3.913,12.138-3.955,18.768l-0.084,13.228H56.297z"/>
<path style="fill:#FFDA44;" d="M53.375,257.622H35.903c8.126,0,13.547,8.383,10.212,15.794l-7.291,16.202h17.473l7.291-16.202  C66.922,266.005,61.502,257.622,53.375,257.622z"/>
<path style="fill:#FF9811;" d="M463.042,264.902h-18.797c-4.021,0-7.28-3.26-7.28-7.28c0-4.021,3.259-7.28,7.28-7.28h18.797  c4.021,0,7.28,3.26,7.28,7.28C470.322,261.642,467.063,264.902,463.042,264.902z"/>
<g>
	<path style="fill:#3E3D42;" d="M305.863,136.304v20.061h90.672l-4.915-14.612c-1.097-3.259-4.143-5.449-7.582-5.449H305.863z"/>
	<circle style="fill:#3E3D42;" cx="144.55" cy="350.3" r="57.06"/>
</g>
<path style="fill:#2D2D30;" d="M144.551,392.797c-23.433,0-42.499-19.065-42.499-42.499c0-23.433,19.065-42.498,42.499-42.498  s42.499,19.065,42.499,42.498C187.05,373.733,167.985,392.797,144.551,392.797z"/>
<path style="fill:#898890;" d="M144.551,378.237c-15.405,0-27.938-12.533-27.938-27.938s12.533-27.938,27.938-27.938  s27.938,12.533,27.938,27.938C172.49,365.704,159.957,378.237,144.551,378.237z"/>
<path style="fill:#787680;" d="M164.613,342.01c2.368,0,4.668,0.299,6.865,0.856c-3.264-11.807-14.095-20.505-26.926-20.505  c-15.405,0-27.938,12.533-27.938,27.938c0,13.037,8.977,24.014,21.073,27.082c-0.655-2.368-1.012-4.859-1.012-7.433  C136.675,354.543,149.208,342.01,164.613,342.01z"/>
<circle style="fill:#3E3D42;" cx="372.79" cy="350.3" r="57.06"/>
<path style="fill:#2D2D30;" d="M372.787,392.797c-23.433,0-42.499-19.065-42.499-42.499c0-23.433,19.065-42.498,42.499-42.498  s42.499,19.065,42.499,42.498C415.286,373.733,396.221,392.797,372.787,392.797z"/>
<path style="fill:#898890;" d="M372.787,378.237c-15.405,0-27.938-12.533-27.938-27.938s12.533-27.938,27.938-27.938  s27.938,12.533,27.938,27.938C400.725,365.704,388.192,378.237,372.787,378.237z"/>
<path style="fill:#787680;" d="M392.848,342.01c2.368,0,4.668,0.299,6.865,0.856c-3.264-11.807-14.095-20.505-26.926-20.505  c-15.405,0-27.938,12.533-27.938,27.938c0,13.037,8.977,24.014,21.073,27.082c-0.655-2.368-1.012-4.859-1.012-7.433  C364.91,354.543,377.443,342.01,392.848,342.01z"/>
<path d="M144.551,314.861c-19.54,0-35.438,15.897-35.438,35.438s15.897,35.438,35.438,35.438s35.438-15.897,35.438-35.438  S164.092,314.861,144.551,314.861z M144.551,370.737c-11.27,0-20.438-9.168-20.438-20.438c0-11.269,9.168-20.438,20.438-20.438  s20.438,9.168,20.438,20.438C164.99,361.568,155.821,370.737,144.551,370.737z"/>
<path d="M372.787,314.861c-19.541,0-35.438,15.897-35.438,35.438s15.897,35.438,35.438,35.438c19.54,0,35.438-15.897,35.438-35.438  S392.327,314.861,372.787,314.861z M372.787,370.737c-11.27,0-20.438-9.168-20.438-20.438c0-11.269,9.169-20.438,20.438-20.438  s20.438,9.168,20.438,20.438C393.225,361.568,384.057,370.737,372.787,370.737z"/>
<path d="M500.269,317.858v-87.637c0-16.409-13.35-29.82-29.758-29.897l-17.606-0.082l-23.854-70.914  c-6.509-19.351-24.6-32.353-45.016-32.353H232.021c-21.265,0-40.085,14.312-45.768,34.804l-19.327,69.7L59.312,222.384  c-25.855,5.022-44.743,27.786-44.91,54.125l-0.254,40.259C5.888,319.905,0,327.898,0,337.244v9.865  c0,12.075,9.823,21.898,21.898,21.898h60.817c7.988,26.587,32.678,46.017,61.832,46.017c29.155,0,53.845-19.43,61.833-46.017h6.908  c4.143,0,7.5-3.358,7.5-7.5s-3.357-7.5-7.5-7.5h-4.283c0.064-1.173,0.994-13.341-3.126-23.661h105.572  c-4.119,10.154-3.189,22.488-3.125,23.661h-40.678c-4.143,0-7.5,3.358-7.5,7.5s3.357,7.5,7.5,7.5h43.304  c7.988,26.587,32.678,46.017,61.832,46.017s53.844-19.43,61.832-46.017h55.485c12.075,0,21.898-9.823,21.898-21.898v-9.865  C512,328.838,507.236,321.527,500.269,317.858z M409.327,297.284h75.942v18.063h-58.356  C422.285,308.238,416.304,302.093,409.327,297.284z M414.834,134.11l25.563,75.998c1.022,3.041,3.865,5.094,7.073,5.109l22.97,0.107  c8.177,0.038,14.828,6.721,14.828,14.897v52.063H313.36v-66.827h84.887c6.004,0,11.68-2.911,15.184-7.786s4.453-11.183,2.539-16.874  l-17.244-51.269c-2.125-6.314-8.028-10.557-14.69-10.557H313.36v-16.995h70.675C398.003,111.976,410.381,120.871,414.834,134.11z   M245.646,238.146c-0.259,0,10.122-4.313,10.122-17.953v-4.737h42.593v66.827h-16.478c0.461-2.328,0.708-4.732,0.708-7.193  C282.591,254.719,266.018,238.146,245.646,238.146z M219.868,186.43l11.673-42.094c0.057-0.205,0.268-0.366,0.48-0.366h59.278  v56.486h-35.532c0,0,0.232-21.359-20.298-21.359C229.204,179.098,223.595,181.954,219.868,186.43z M305.86,200.457v-56.486h78.393  c0.218,0,17.5,51.608,17.5,51.608c0.525,1.564-0.09,2.763-0.503,3.338s-1.354,1.54-3.003,1.54H305.86z M230.171,199.396  c0-2.921,2.377-5.298,5.299-5.298c2.921,0,5.298,2.377,5.298,5.298v20.797c0,2.921-2.377,5.298-5.298,5.298  c-2.922,0-5.299-2.377-5.299-5.298V199.396z M267.591,275.09c0,12.101-9.845,21.945-21.945,21.945s-21.944-9.844-21.944-21.945  c0-12.1,9.844-21.944,21.944-21.944S267.591,262.99,267.591,275.09z M200.708,135.788c3.888-14.02,16.764-23.812,31.313-23.812  h66.34v16.995h-66.339c-6.939,0-13.081,4.67-14.936,11.357l-14.263,51.434c-1.574,5.679-0.431,11.625,3.136,16.315  c2.38,3.13,5.59,5.362,9.212,6.505v5.611c0,10.391,7.852,18.97,17.932,20.148c-14.215,5.147-24.402,18.779-24.402,34.749  c0,2.461,0.247,4.865,0.708,7.193h-28.996v-73.306L200.708,135.788z M108.005,297.284c-6.977,4.809-12.958,10.955-17.585,18.063  H29.157l0.114-18.063H108.005z M62.173,237.108l103.24-20.055v65.23h-97.52l2.531-5.624c2.614-5.811,2.11-12.475-1.35-17.826  c-3.46-5.351-9.33-8.546-15.702-8.546h-4.294c-4.143,0-7.5,3.358-7.5,7.5s3.357,7.5,7.5,7.5h4.294c1.751,0,2.697,1.059,3.105,1.69  s0.985,1.929,0.267,3.526l-5.301,11.779H29.365l0.036-5.68C29.522,257.384,43.305,240.773,62.173,237.108z M21.898,354.007  c-3.804,0-6.898-3.094-6.898-6.898v-9.865c0-3.804,3.095-6.898,6.898-6.898h61.318c-4.049,11.831-3.189,22.488-3.125,23.661H21.898z   M144.548,400.024c-27.327,0-49.559-22.232-49.559-49.559s22.231-49.559,49.559-49.559s49.56,22.232,49.56,49.559  C194.107,377.792,171.875,400.024,144.548,400.024z M181.091,297.284h35.04c6.748,8.952,17.466,14.751,29.515,14.751  s22.767-5.799,29.515-14.751h23.199v18.063h-99.683C194.049,308.238,188.068,302.093,181.091,297.284z M313.36,315.346v-18.063  h22.881c-6.977,4.809-12.958,10.955-17.585,18.063H313.36z M372.784,400.024c-27.327,0-49.559-22.232-49.559-49.559  s22.231-49.559,49.559-49.559s49.559,22.232,49.559,49.559S400.111,400.024,372.784,400.024z M497,347.109  c0,3.804-3.095,6.898-6.898,6.898h-52.86c0.064-1.173,1.092-14.007-3.125-23.661h55.986c3.804,0,6.898,3.094,6.898,6.898v9.865H497z  "/>
<path d="M246.296,353.841h-12.619c-4.143,0-7.5,3.358-7.5,7.5s3.357,7.5,7.5,7.5h12.619c4.143,0,7.5-3.358,7.5-7.5  S250.439,353.841,246.296,353.841z"/>
<g>
</g>
<g>
</g>
<g>
</g>
<g>
</g>
<g>
</g>
<g>
</g>
<g>
</g>
<g>
</g>
<g>
</g>
<g>
</g>
<g>
</g>
<g>
</g>
<g>
</g>
<g>
</g>
<g>
</g>
</svg>
