<?xml version="1.0" encoding="iso-8859-1"?>
<!-- Generator: Adobe Illustrator 19.0.0, SVG Export Plug-In . SVG Version: 6.00 Build 0)  -->
<svg xmlns="http://www.w3.org/2000/svg" xmlns:xlink="http://www.w3.org/1999/xlink" version="1.1" id="Layer_1" x="0px" y="0px" viewBox="0 0 512.002 512.002" style="enable-background:new 0 0 512.002 512.002;" xml:space="preserve">
<path style="fill:#2D2D30;" d="M54.108,460.511l7.391,15.521c7.085,14.879,22.096,24.356,38.575,24.356h169.209  c14.753,0,29.466-1.528,43.904-4.56l55.351-11.624c11.419-2.398,21.361-9.362,27.516-19.275l33.526-53.991L54.108,460.511z"/>
<path style="fill:#1D1D1F;" d="M54.108,460.511l7.391,15.521c7.085,14.879,22.096,24.356,38.575,24.356H214.55l-22.294-28.363  v-29.754L54.108,460.511z"/>
<path style="fill:#57A4FF;" d="M504.502,241.193C504.47,114.6,400.733,11.225,274.141,11.616  C164.768,11.953,73.408,88.758,50.676,191.37L24.143,306.248c-9.502,41.14-7.387,84.11,6.11,124.118l5.648,16.741  c5.554,16.464,21.119,27.437,38.492,27.124c65.516-1.181,219.162-4.013,225.664-4.723h0.011v-0.001  C415.053,456.953,504.532,359.526,504.502,241.193z"/>
<g>
	<path style="fill:#2488FF;" d="M172.948,449.437l-5.648-16.741c-13.496-40.008-15.612-82.978-6.11-124.118L187.723,193.7   c18.094-81.678,79.672-147.001,159.204-170.427c-22.908-7.627-47.385-11.735-72.786-11.656   C164.768,11.953,73.407,88.758,50.677,191.37L24.143,306.248c-9.502,41.14-7.387,84.11,6.11,124.118l5.648,16.741   c5.554,16.464,21.119,27.437,38.492,27.124c28.883-0.521,74.892-1.362,117.873-2.201   C183.367,467.377,176.315,459.419,172.948,449.437z"/>
	<path style="fill:#2488FF;" d="M355.725,316.871c-1.91-3.501-0.62-7.888,2.882-9.798l18.721-10.211   c3.502-1.908,7.888-0.618,9.797,2.882c1.91,3.501,0.62,7.888-2.882,9.798l-18.721,10.211   C360.795,321.717,357.036,319.274,355.725,316.871z"/>
	<path style="fill:#2488FF;" d="M393.943,296.026c-1.91-3.502-0.62-7.888,2.882-9.798l52.587-28.682   c3.502-1.909,7.887-0.618,9.797,2.882c1.91,3.501,0.62,7.888-2.882,9.798l-52.587,28.682   C399.069,301.015,395.254,298.429,393.943,296.026z"/>
</g>
<path style="fill:#FF7956;" d="M371.836,33.236c-143.985,8.748-233.834,44.518-279.841,69.14  c-19.703,25.909-34.037,56.123-41.319,88.994l-1.801,7.8c30.375,44.001,68.036,99.08,66.823,99.934  c197.362-149.54,373.123-141.04,373.123-141.04l0,0C467.272,103.047,425.044,58.221,371.836,33.236z"/>
<g>
	<path style="fill:#FF6243;" d="M454.969,99.22c-53.857,3.205-195.339,23.282-350.112,140.552   c0.964-0.678-22.624-35.605-47.595-72.001c-2.598,7.692-4.805,15.564-6.585,23.598l-1.801,7.8   c30.375,44.001,68.036,99.08,66.823,99.934C313.06,149.564,488.821,158.064,488.821,158.064   C480.463,136.725,468.982,116.93,454.969,99.22z"/>
	<path style="fill:#FF6243;" d="M306.801,39.362C200.209,53.156,130.636,81.696,91.995,102.375   c-19.703,25.909-34.037,56.123-41.319,88.994l-1.801,7.8c30.375,44.001,68.036,99.08,66.823,99.934   c19.166-14.522,38.126-27.547,56.744-39.24l15.282-66.164C202.638,126.374,247.096,70.159,306.801,39.362z"/>
</g>
<path style="fill:#FF7956;" d="M502.773,269.57L129.394,473.22c72.271-1.343,165.635-3.167,170.673-3.716h0.011v-0.001  C405.724,457.967,489.829,374.784,502.773,269.57z"/>
<path style="fill:#FF6243;" d="M502.773,269.57L129.394,473.22c34.498-0.641,73.796-1.392,106.005-2.061L484.39,335.353  C493.615,314.847,499.922,292.744,502.773,269.57z"/>
<path style="fill:#FF5023;" d="M172.956,449.46l-43.562,23.76c20.107-0.374,41.846-0.784,62.862-1.195  C183.368,467.375,176.326,459.428,172.956,449.46z"/>
<path style="fill:#9BC9FF;" d="M47.864,203.898l131.201,8.342c14.461,0.92,28.859-2.595,41.27-10.073l26.389-15.901  c16.619-10.014,38.002-6.864,51.027,7.518c0,0,24.103,23.666,1.656,52.538l-63.813,80.067c-9.569,12.006-24.54,18.388-39.828,16.977  l-175.43-16.193C14.886,239.772,47.864,203.898,47.864,203.898z"/>
<path style="fill:#FF9478;" d="M299.852,196.191c-1.243-1.563-2.102-2.407-2.102-2.407c-13.025-14.382-34.408-17.532-51.027-7.518  l-26.389,15.901c-12.411,7.479-26.809,10.993-41.27,10.073l-126.731-8.058c29.697,43.059,64.532,94.1,63.364,94.921  C181.367,249.345,244.644,217.089,299.852,196.191z"/>
<circle style="fill:#3E3D42;" cx="355.52" cy="401.68" r="24.17"/>
<path style="fill:#2D2D30;" d="M374.577,386.814c-4.424-5.662-11.311-9.306-19.054-9.306c-13.351,0-24.174,10.823-24.174,24.174  s10.823,24.174,24.174,24.174c0.5,0,0.995-0.02,1.487-0.05c-3.205-4.101-5.12-9.259-5.12-14.868  C351.89,398.087,361.919,387.583,374.577,386.814z"/>
<circle style="fill:#3E3D42;" cx="264.96" cy="224.13" r="20.568"/>
<path style="fill:#2D2D30;" d="M281.968,214.866c0.461,0,0.913,0.039,1.367,0.069c-3.378-6.736-10.328-11.37-18.377-11.37  c-11.359,0-20.568,9.208-20.568,20.568c0,10.898,8.482,19.792,19.201,20.499c-1.389-2.77-2.19-5.887-2.19-9.197  C261.4,224.074,270.609,214.866,281.968,214.866z"/>
<path style="fill:#3E3D42;" d="M20.318,326.854c0.855,0.283,1.755,0.476,2.689,0.576l127.126,11.734l30.595-34.13  c16.424-18.321,15.936-46.209-1.117-63.945l-29.486-30.667l-102.261-6.514C47.864,203.908,14.972,239.694,20.318,326.854z"/>
<path style="fill:#2D2D30;" d="M179.611,241.088l-29.487-30.667l-65.314-4.16l27.57,28.673c19.4,20.176,19.954,51.899,1.271,72.741  l-23.282,25.972l59.764,5.516l30.595-34.13C197.152,286.712,196.664,258.824,179.611,241.088z"/>
<path style="fill:#006DF0;" d="M182.92,180.331L44.731,160.747c-13.96-1.978-27,7.825-28.979,21.785l-7.996,56.423  c-1.978,13.96,7.825,27,21.785,28.979l138.189,19.584c13.96,1.978,27-7.825,28.979-21.785l7.996-56.423  C206.683,195.35,196.88,182.309,182.92,180.331z"/>
<path style="fill:#005ECE;" d="M93.844,258.22l9.952-70.224c0.978-6.899,4.132-12.978,8.661-17.651l-67.726-9.598  c-13.96-1.978-27,7.825-28.979,21.785l-7.996,56.423c-1.978,13.96,7.825,27,21.785,28.979l67.689,9.593  C94.199,271.791,92.869,265.097,93.844,258.22z"/>
<path d="M355.523,370.008c-17.465,0-31.674,14.209-31.674,31.674c0,17.465,14.209,31.674,31.674,31.674s31.674-14.209,31.674-31.674  C387.197,384.216,372.988,370.008,355.523,370.008z M355.523,418.356c-9.194,0-16.674-7.48-16.674-16.674  s7.479-16.674,16.674-16.674s16.674,7.48,16.674,16.674C372.197,410.876,364.717,418.356,355.523,418.356z"/>
<path d="M264.957,252.2c15.477,0,28.067-12.591,28.067-28.067s-12.591-28.068-28.067-28.068s-28.068,12.591-28.068,28.068  S249.481,252.2,264.957,252.2z M264.957,211.065c7.205,0,13.067,5.862,13.067,13.068s-5.862,13.067-13.067,13.067  c-7.206,0-13.068-5.862-13.068-13.067S257.751,211.065,264.957,211.065z"/>
<path d="M442.084,73.481c-44.9-44.75-104.258-69.366-167.221-69.366c-0.247,0-0.499,0-0.746,0.001  c-49.182,0.152-96.313,15.226-136.298,43.593c-37.93,26.91-66.799,63.767-83.704,106.793l-8.332-1.181  c-1.536-0.218-32.531-4.57-37.457,28.158L0.33,237.903c-1.853,13.074,4.234,25.472,14.579,32.312  c-2.589,17.581-3.308,36.638-2.094,56.763c-4.63,35.434-1.092,71.924,10.331,105.786l5.647,16.741  c6.535,19.373,24.492,32.234,44.86,32.234c0.29,0,220.983-4.094,227.216-4.774c0.014-0.001,0.028-0.003,0.044-0.005  c36.12-3.949,70.508-16.127,100.761-35.299l-11.991,19.311c-5.05,8.132-13.319,13.924-22.687,15.892l-55.353,11.624  c-13.9,2.919-28.153,4.4-42.362,4.4H100.074c-7.236,0-14.199-2.187-20.138-6.324c-3.399-2.368-8.074-1.531-10.441,1.867  c-2.368,3.399-1.532,8.074,1.867,10.441c8.467,5.898,18.396,9.016,28.712,9.016h169.208c15.242,0,30.533-1.588,45.445-4.72  l55.352-11.624c13.357-2.805,25.147-11.063,32.347-22.658l32.98-53.113c5.409-4.979,10.61-10.224,15.578-15.73  c39.362-43.625,61.032-100.04,61.018-158.85C511.987,177.963,487.156,118.403,442.084,73.481z M97.087,108.171  c24.123-12.768,51.811-24.13,82.349-33.775c3.95-1.248,6.141-5.461,4.893-9.411c-1.247-3.949-5.458-6.139-9.411-4.893  c-18.23,5.758-35.49,12.123-51.645,19.029c40.238-37.47,93.908-59.83,150.891-60.006c0.234-0.001,0.463-0.001,0.697-0.001  c21.744,0,43.027,3.147,63.347,9.209c-38.78,3.656-75.819,9.497-110.466,17.451c-4.037,0.927-6.588,4.958-5.632,8.988  c1.558,6.571,8.424,5.761,8.988,5.632c43.098-9.895,90.006-16.469,139.441-19.559c22.28,10.718,42.871,25.245,60.955,43.269  c19.594,19.528,35.097,42.01,46.097,66.412c-25.427,0.536-90.39,5.333-175.587,36.858c-15.492-15.81-40.055-19.042-59.152-7.534  c0,0-29.584,17.7-31.23,18.507c-2.978-12.995-13.684-23.465-27.65-25.444L69.42,156.671  C76.631,139.184,85.975,122.927,97.087,108.171z M27.49,320.311c-0.659-15.802-0.041-30.823,1.816-44.836l137.371,19.468  c1.536,0.218,7.825,1.308,12.779-0.706c-1.248,2.033-2.683,3.971-4.313,5.789l-28.07,31.313L27.49,320.311z M186.313,310.039  c7.786-8.686,12.6-19.76,13.676-31.346c2.09-3.588,3.535-7.606,4.145-11.908l7.373-52.024c4.405-1.672,39.087-22.072,39.087-22.072  c13.51-8.142,31.006-5.566,41.598,6.129c0.078,0.087,0.191,0.204,0.274,0.287c0.05,0.051,5.073,5.16,7.587,13.015  c3.183,9.941,0.973,19.899-6.512,29.527l-63.812,80.067c-8.021,10.063-20.457,15.367-33.273,14.183l-30.777-2.841L186.313,310.039z   M15.182,240.007l7.996-56.423c2.324-17.414,19.66-15.53,20.501-15.411l138.189,19.584c9.9,1.403,16.814,10.6,15.411,20.501  l-7.997,56.423c-1.26,8.888-8.982,15.591-17.963,15.591c-0.843,0-140.727-19.764-140.727-19.764  C20.692,259.105,13.779,249.908,15.182,240.007z M74.257,466.733c-14.159,0.214-26.72-8.595-31.25-22.023l-5.647-16.741  c-10.008-29.668-13.549-61.492-10.413-92.643l122.497,11.307c0.069,0.006,0.138,0.005,0.207,0.01l45.427,4.193  c1.65,0.152,3.294,0.228,4.93,0.228c16.082,0,31.305-7.265,41.453-19.998l63.868-80.138c15.173-19.516,12.417-38.329,5.955-50.969  c88.186-31.945,154.546-34.437,172.403-34.466c8.741,23.972,13.309,49.502,13.316,75.706c0.002,7.988-0.431,15.88-1.25,23.661  L127.404,465.762C110.717,466.072,92.981,466.396,74.257,466.733z M299.36,462.041c-0.031,0.003-0.063,0.006-0.095,0.01  c-3.915,0.372-54.532,1.493-139.419,3.103L493.01,283.438C474.992,377.539,397.754,451.251,299.36,462.041z"/>
<path d="M197.54,68.978c4.918-1.002,9.777-2.708,14.707-3.984c4.01-1.038,6.419-5.129,5.382-9.14  c-1.038-4.011-5.129-6.421-9.14-5.382c-5.039,1.304-10.098,2.674-15.037,4.073c-3.985,1.129-6.301,5.275-5.172,9.26  C189.216,67.108,193.336,69.835,197.54,68.978z"/>
<g>
</g>
<g>
</g>
<g>
</g>
<g>
</g>
<g>
</g>
<g>
</g>
<g>
</g>
<g>
</g>
<g>
</g>
<g>
</g>
<g>
</g>
<g>
</g>
<g>
</g>
<g>
</g>
<g>
</g>
</svg>
