<?xml version="1.0" encoding="iso-8859-1"?>
<!-- Generator: Adobe Illustrator 19.0.0, SVG Export Plug-In . SVG Version: 6.00 Build 0)  -->
<svg xmlns="http://www.w3.org/2000/svg" xmlns:xlink="http://www.w3.org/1999/xlink" version="1.1" id="Layer_1" x="0px" y="0px" viewBox="0 0 512 512" style="enable-background:new 0 0 512 512;" xml:space="preserve">
<path style="fill:#2D2D30;" d="M227.29,220.286h-25.696c-10.321,0-18.688,8.367-18.688,18.688v25.709h44.385L227.29,220.286  L227.29,220.286z"/>
<path style="fill:#1D1D1F;" d="M199.376,220.429c0.729-0.086,1.466-0.143,2.218-0.143h25.696v44.398h-27.915v-44.255H199.376z"/>
<path style="fill:#D80027;" d="M252.208,150.494h8.565c11.563,0,21.024,9.461,21.024,21.024v8.298  c0,11.563-9.461,21.024-21.024,21.024h-8.565c-11.563,0-21.024-9.461-21.024-21.024v-8.298  C231.184,159.955,240.645,150.494,252.208,150.494z"/>
<path style="fill:#C70024;" d="M257.659,179.816v-8.298c0-8.815-5.501-16.403-13.237-19.514c2.412-0.97,5.039-1.51,7.787-1.51h8.565  c11.563,0,21.024,9.461,21.024,21.024v8.298c0,11.563-9.461,21.024-21.024,21.024h-8.565c-2.748,0-5.375-0.54-7.787-1.51  C252.158,196.219,257.659,188.632,257.659,179.816z"/>
<path style="fill:#3E3D42;" d="M418.067,254.058l-79.034-65.037c-12.335-10.151-27.814-15.701-43.789-15.701h-62.892  c-9.676,0-17.52,7.844-17.52,17.52v76.411L418.067,254.058z"/>
<path style="fill:#2D2D30;" d="M303.341,261.506l-70.989-88.186h62.892c15.975,0,31.453,5.55,43.789,15.701l79.034,65.037  L303.341,261.506z"/>
<path style="fill:#FF0C38;" d="M339.033,189.021l79.034,65.037l-73.492,4.771c-30.339-32.976-78.839-85.509-79.908-85.509h30.577  C311.219,173.32,326.697,178.87,339.033,189.021z"/>
<path style="fill:#57565C;" d="M13.356,337.671l113.878-78.316c13.437-9.241,29.361-14.188,45.668-14.188H414.6  c4.064,0,7.359-3.295,7.359-7.359c0,0,1.168-7.89-7.889-14.639l-11.181-7.357c-6.566-4.321-10.519-11.654-10.519-19.514v-24.391  c0-7.096,5.752-12.848,12.848-12.848h80.593c10.321,0,18.688,8.367,18.688,18.688v85.557c0,10.532-4.184,20.633-11.632,28.081  l-52.999,52.999H211.676c-13.317,0-25.967-5.827-34.621-15.948l-5.305-6.204c-11.037-12.898-11.426-17.994-33.006-7.256  l-49.191,22.594L13.356,337.671z"/>
<path style="fill:#2D2D30;" d="M439.87,344.385H211.676c-13.317,0-25.967-5.827-34.621-15.948l-5.305-6.204  c-6.148-7.184-8.995-11.943-14.038-12.898h317.207L439.87,344.385z"/>
<g>
	<path style="fill:#1D1D1F;" d="M456.979,327.275H176.062l-4.312-5.043c-6.148-7.184-8.995-11.943-14.038-12.898h317.207   L456.979,327.275z"/>
	<path style="fill:#1D1D1F;" d="M355.833,309.335H474.92l-35.05,35.05h-72.797C360.678,334.069,356.68,322.128,355.833,309.335z"/>
</g>
<g>
	<path style="fill:#FF3F62;" d="M24.728,309.335h58.985c9.476,0,17.228,7.753,17.228,17.228c0,9.475-7.753,17.228-17.228,17.228   H24.728c-9.476,0-17.228-7.753-17.228-17.228C7.5,317.088,15.253,309.335,24.728,309.335z"/>
	<path style="fill:#FF3F62;" d="M504.5,177.747v81.386l-44.504-28.835c-9.637-6.244-15.454-16.945-15.454-28.427v-42.812h41.27   C496.133,159.059,504.5,167.426,504.5,177.747z"/>
</g>
<path style="fill:#FF0C38;" d="M469.694,159.059v37.152c0,8.885,4.501,17.164,11.958,21.996L504.5,233.01v26.124l-44.504-28.835  c-9.637-6.244-15.454-16.945-15.454-28.427V159.06h25.152V159.059z"/>
<path style="fill:#FF3F62;" d="M127.235,259.355c13.437-9.241,29.361-14.188,45.668-14.188h189.099  c0,0-126.015,46.038-290.513,52.526L127.235,259.355z"/>
<path style="fill:#FF0C38;" d="M24.503,309.346c0.076-0.001,0.149-0.011,0.225-0.011h58.985c9.475,0,17.228,7.753,17.228,17.228  c0,9.475-7.753,17.228-17.228,17.228H32.742C27.487,333.433,24.505,321.734,24.503,309.346z"/>
<path style="fill:#3E3D42;" d="M421.96,235.841c-0.246-2.766-1.609-7.992-7.889-12.672l-11.181-7.357  c-6.566-4.321-10.519-11.654-10.519-19.514v-24.391c0-7.096,5.752-12.848,12.848-12.848h16.742L421.96,235.841L421.96,235.841z"/>
<circle style="fill:#2D2D30;" cx="100.94" cy="309.33" r="52.17"/>
<path style="fill:#1D1D1F;" d="M100.942,346.946c20.739,0,37.611-16.872,37.611-37.611c0-20.739-16.872-37.611-37.611-37.611  s-37.611,16.872-37.611,37.611C63.331,330.074,80.203,346.946,100.942,346.946z"/>
<path style="fill:#D8D7DA;" d="M100.942,332.385c12.71,0,23.05-10.34,23.05-23.05c0-12.71-10.34-23.05-23.05-23.05  s-23.05,10.34-23.05,23.05C77.892,322.046,88.231,332.385,100.942,332.385z"/>
<path style="fill:#C6C5CA;" d="M82.822,295.812c-0.181,0-0.36,0.01-0.54,0.014c4.193-5.775,10.993-9.541,18.66-9.541  c12.71,0,23.05,10.34,23.05,23.05c0,12.529-10.05,22.748-22.51,23.037c2.758-3.799,4.391-8.466,4.391-13.509  C105.872,306.152,95.532,295.812,82.822,295.812z"/>
<circle style="fill:#2D2D30;" cx="432.08" cy="304.24" r="52.17"/>
<path style="fill:#1D1D1F;" d="M432.083,341.849c20.739,0,37.611-16.872,37.611-37.611c0-20.739-16.872-37.611-37.611-37.611  s-37.611,16.872-37.611,37.611C394.472,324.977,411.344,341.849,432.083,341.849z"/>
<path style="fill:#D8D7DA;" d="M432.083,327.289c12.71,0,23.05-10.34,23.05-23.05c0-12.71-10.34-23.05-23.05-23.05  s-23.05,10.34-23.05,23.05C409.033,316.949,419.373,327.289,432.083,327.289z"/>
<path style="fill:#C6C5CA;" d="M413.963,290.715c-0.181,0-0.36,0.01-0.54,0.014c4.193-5.775,10.993-9.541,18.66-9.541  c12.71,0,23.05,10.34,23.05,23.05c0,12.529-10.05,22.748-22.51,23.037c2.758-3.799,4.391-8.466,4.391-13.509  C437.014,301.056,426.673,290.715,413.963,290.715z"/>
<path d="M74.637,273.225c-2.771,2.022-5.104,4.564-7.555,6.97c-3.751,3.68-9.161,2.007-10.577,0.787  c-3.138-2.704-3.491-7.439-0.787-10.577c2.99-3.471,6.38-6.598,10.077-9.296c3.347-2.443,8.038-1.708,10.479,1.637  C78.715,266.091,77.982,270.783,74.637,273.225z"/>
<path d="M100.941,278.785c-16.846,0-30.55,13.705-30.55,30.55c0,16.845,13.705,30.551,30.55,30.551s30.551-13.705,30.551-30.551  S117.787,278.785,100.941,278.785z M100.941,293.785c8.575,0,15.551,6.976,15.551,15.55c0,8.575-6.976,15.551-15.551,15.551  c-8.574,0-15.55-6.976-15.55-15.551C85.391,300.76,92.367,293.785,100.941,293.785z"/>
<path d="M401.533,304.238c0,16.846,13.705,30.551,30.55,30.551s30.55-13.705,30.55-30.551s-13.705-30.55-30.55-30.55  S401.533,287.393,401.533,304.238z M416.533,304.238c0-8.574,6.976-15.55,15.55-15.55s15.55,6.976,15.55,15.55  c0,8.575-6.976,15.551-15.55,15.551S416.533,312.813,416.533,304.238z"/>
<path d="M0,326.563c0,13.635,11.093,24.729,24.728,24.729H58.56c10.821,10.93,25.822,17.715,42.382,17.715  c29.421,0,53.92-21.409,58.779-49.462c0.78,0.881,11.634,13.766,11.634,13.766c10.093,11.804,24.79,18.574,40.321,18.574h184.529  c9.993,7.544,22.421,11.927,35.878,12.025c35.084,0.257,59.584-27.841,59.584-60.743c0-0.37,6.505-6.478,6.505-6.478  c8.917-8.917,13.828-20.773,13.828-33.384v-85.557c0-14.44-11.748-26.188-26.188-26.188h-80.593  c-11.22,0-20.348,9.128-20.348,20.348v24.391c0,10.417,5.195,20.054,13.897,25.78l10.983,7.227c5.875,4.07,4.717,8.042,4.711,8.362  h-4.51l-66.153-54.438c-13.644-11.227-30.887-17.41-48.554-17.41h-6.519c-2.648-13.007-14.174-22.826-27.952-22.826h-8.565  c-14.281,0-26.142,10.549-28.205,24.264c-9.702,3.445-16.671,12.714-16.671,23.583v21.945h-5.738  c-14.002,0-25.471,11.046-26.155,24.881h-2.536c-17.904,0-35.776,5.813-50.528,15.958c0,0-13.388-3.961-21.434-3.961  c-4.421,0-8.833,0.487-13.113,1.447c-4.042,0.907-6.583,4.918-5.676,8.96c0.906,4.042,4.917,6.585,8.96,5.676  c3.203-0.719,6.51-1.083,9.829-1.083c24.632,0,44.671,20.04,44.671,44.671s-20.04,44.671-44.671,44.671s-44.671-20.04-44.671-44.671  c0-4.756,0.742-9.435,2.204-13.904c1.288-3.937-0.859-8.172-4.796-9.46c-3.937-1.288-8.172,0.859-9.46,4.796  c-1.179,3.604-2.001,7.307-2.474,11.068H24.728C11.093,301.835,0,312.928,0,326.563z M172.903,252.667h139.058  c-36.486,9.995-91.666,22.842-157.261,30.784c-4.087-8.454-10.118-15.795-17.5-21.461  C148.09,255.88,160.302,252.667,172.903,252.667z M207.332,227.786v9.881h-16.843c0.65-5.555,5.379-9.881,11.105-9.881H207.332z   M222.332,190.84c0-5.525,4.495-10.021,10.02-10.021h29.393c3.942,3.971,16.135,16.776,53.13,56.847h-92.543V190.84z   M273.022,165.82H239.96c2.156-4.614,6.828-7.826,12.248-7.826h8.565C266.193,157.994,270.866,161.206,273.022,165.82z   M386.345,237.667h-51.063c-17.444-18.923-31.717-34.334-42.425-45.806c-4.089-4.381-7.477-8.01-10.324-11.041h12.712  c14.199,0,28.058,4.969,39.023,13.992L386.345,237.667z M488.565,285.033c-8.015-23.506-30.298-40.466-56.482-40.466  c-1.467,0-2.918,0.072-4.359,0.176c1.038-1.957,1.664-4.165,1.73-6.514c0-15.354-11.139-21.245-11.261-21.325l-11.181-7.357  c-4.472-2.943-7.142-7.896-7.142-13.25v-24.391c0-2.949,2.399-5.348,5.348-5.348h80.593c6.169,0,11.188,5.019,11.188,11.188v67.59  l-32.926-21.333c-7.534-4.882-12.032-13.156-12.032-22.133v-21.101c0-4.142-3.358-7.5-7.5-7.5s-7.5,3.358-7.5,7.5v21.101  c0,14.083,7.056,27.063,18.876,34.722L497,263.211v0.094C497,271.424,494.014,279.083,488.565,285.033z M387.411,304.239  c0-24.632,20.04-44.671,44.672-44.671s44.671,20.04,44.671,44.671s-20.04,44.671-44.671,44.671  C407.451,348.91,387.411,328.871,387.411,304.239z M177.01,316.835h182.208c4.142,0,7.5-3.358,7.5-7.5c0-4.142-3.358-7.5-7.5-7.5  H160.125c-0.164-1.3-0.364-2.588-0.61-3.86c111.396-13.805,192.742-41.434,203.778-45.307h38.829  c-17.749,10.351-29.711,29.585-29.711,51.572c0,12.044,3.598,23.258,9.76,32.646H211.676c-11.14,0-21.681-4.856-28.921-13.322  C182.755,323.563,177.16,317.012,177.01,316.835z M15,326.563c0-5.364,4.364-9.728,9.728-9.728h17.03  c0.873,6.923,2.932,13.477,5.974,19.457H24.728C19.364,336.292,15,331.927,15,326.563z"/>
<g>
</g>
<g>
</g>
<g>
</g>
<g>
</g>
<g>
</g>
<g>
</g>
<g>
</g>
<g>
</g>
<g>
</g>
<g>
</g>
<g>
</g>
<g>
</g>
<g>
</g>
<g>
</g>
<g>
</g>
</svg>
