<?xml version="1.0" encoding="iso-8859-1"?>
<!-- Generator: Adobe Illustrator 19.0.0, SVG Export Plug-In . SVG Version: 6.00 Build 0)  -->
<svg xmlns="http://www.w3.org/2000/svg" xmlns:xlink="http://www.w3.org/1999/xlink" version="1.1" id="Layer_1" x="0px" y="0px" viewBox="0 0 511.997 511.997" style="enable-background:new 0 0 511.997 511.997;" xml:space="preserve">
<path style="fill:#1E81CE;" d="M304.619,353.108c-11.283,0-22.116-4.155-30.506-11.7L256,325.118l-18.113,16.29  c-8.39,7.545-19.223,11.7-30.506,11.7c-3.277,0-6.562-0.356-9.765-1.058l-74.709-16.369c-20.421-4.474-35.694-21.441-38.005-42.218  l-6.859-61.711c-2.554-22.971,10.656-44.758,32.124-52.984C157.211,160.745,221.621,158.8,247.13,158.8  c4.499,0,7.597,0.062,8.87,0.094c1.273-0.031,4.37-0.094,8.87-0.094c25.509,0,89.92,1.946,136.964,19.968  c21.468,8.225,34.678,30.013,32.124,52.984l-6.86,61.71c-2.309,20.777-17.582,37.744-38.004,42.219l-74.71,16.37  C311.181,352.752,307.896,353.108,304.619,353.108z"/>
<g>
	<path style="fill:#1A6FB0;" d="M151.693,300.079l-9.042-81.353c-2.21-19.877,4.534-39.081,17.433-52.999   c-17.184,2.951-34.485,7.133-49.918,13.045c-21.468,8.227-34.678,30.014-32.124,52.985l6.859,61.711   c2.311,20.777,17.584,37.744,38.005,42.218l61.476,13.47C166.501,339.242,154.037,321.152,151.693,300.079z"/>
	<path style="fill:#1A6FB0;" d="M224.02,325.989l22.592,19.158c5.416,4.593,13.36,4.593,18.777,0l22.592-19.158L256,286.418   L224.02,325.989z"/>
</g>
<path style="fill:#165C92;" d="M255.994,286.425l-31.974,39.564l22.592,19.158c2.707,2.295,6.044,3.443,9.382,3.444V286.425z"/>
<path style="fill:#2D2D30;" d="M256,179.637c0,0-83.378-2.589-138.415,18.496c-12.706,4.868-20.436,17.804-18.933,31.328l6.86,61.71  c1.326,11.928,10.108,21.684,21.832,24.253l74.71,16.37c7.83,1.716,16.006-0.445,21.966-5.805l20.194-18.16  c6.702-6.027,16.871-6.027,23.573,0l20.194,18.16c5.96,5.36,14.136,7.521,21.966,5.805l74.71-16.37  c11.724-2.569,20.506-12.325,21.832-24.253l6.86-61.71c1.503-13.524-6.227-26.46-18.933-31.328  C339.378,177.048,256,179.637,256,179.637z"/>
<path style="fill:#D1E7F8;" d="M304.621,317.811c-2.554,0-5.006-0.94-6.905-2.648l-20.194-18.16  c-5.918-5.323-13.561-8.254-21.522-8.254s-15.604,2.932-21.523,8.254l-20.193,18.16c-1.899,1.708-4.351,2.648-6.905,2.648  c-0.74,0-76.918-16.61-76.918-16.61c-5.631-1.234-9.841-5.911-10.478-11.639l-6.859-61.71c-0.779-7.012,3.197-13.642,9.67-16.122  c42.706-16.361,132.728-17.539,132.759-17.539l0.447,0.014c0,0,90.499,1.164,133.205,17.525c6.474,2.48,10.45,9.11,9.671,16.122  l-6.86,61.71c-0.636,5.728-4.847,10.405-10.477,11.639C381.539,301.201,305.362,317.811,304.621,317.811z"/>
<path style="fill:#B9D8F4;" d="M149.326,232.583c42.706-16.361,132.728-17.539,132.759-17.539l0.447,0.014  c0,0,70.458,0.909,116.374,12.363c0.572-6.851-3.361-13.262-9.701-15.691C346.499,195.368,256,194.204,256,194.204l-0.447-0.014  c-0.031,0-90.053,1.178-132.759,17.539c-6.473,2.48-10.449,9.11-9.67,16.122l6.859,61.71c0.637,5.728,4.847,10.405,10.478,11.639  c0,0,6.354,1.385,15.404,3.355l-6.208-55.85C138.877,241.693,142.854,235.063,149.326,232.583z"/>
<path style="fill:#DDFFFB;" d="M152.069,305.905l74.049-110.556c-10.123,0.583-22.046,1.451-34.453,2.742l-67.383,99.903  c1.704,1.556,3.814,2.688,6.179,3.206C130.461,301.201,139.853,303.248,152.069,305.905z"/>
<path style="fill:#AAFFF5;" d="M142.185,271.452l-17.903,26.543c1.704,1.556,3.814,2.688,6.179,3.206c0,0,6.355,1.386,15.403,3.355  L142.185,271.452z"/>
<path style="fill:#DDFFFB;" d="M260.235,194.293l-79.48,117.838c14.39,3.114,26.333,5.68,26.624,5.68  c1.042,0,2.065-0.165,3.043-0.466l81.512-121.597C277.697,194.825,266.126,194.442,260.235,194.293z"/>
<g>
	<path style="fill:#AAFFF5;" d="M226.118,195.349c-10.123,0.583-22.046,1.451-34.453,2.742l-18.708,27.737   c11.539-2.516,24.215-4.451,36.722-5.935L226.118,195.349z"/>
	<path style="fill:#AAFFF5;" d="M291.933,195.748c-14.236-0.923-25.808-1.305-31.699-1.455l-15.092,22.376   c15.65-1.043,28.231-1.431,33.814-1.563L291.933,195.748z"/>
</g>
<path style="fill:#FFC477;" d="M150.13,305.484c22.625,4.921,56.754,12.327,57.248,12.327c2.554,0,5.006-0.94,6.905-2.648  l20.193-18.16c2.686-2.415,5.729-4.332,8.993-5.712l0.097-0.095L150.13,305.484z"/>
<path style="fill:#FFB655;" d="M210.422,317.344l15.745-23.488l-36.891,5.641l-8.521,12.633c14.39,3.114,26.333,5.68,26.624,5.68  C208.421,317.811,209.444,317.646,210.422,317.344z"/>
<path style="fill:#FFC477;" d="M361.87,305.484l-93.437-14.289l0.098,0.095c3.264,1.38,6.307,3.297,8.992,5.712l20.194,18.16  c1.899,1.708,4.351,2.648,6.905,2.648C305.116,317.811,339.244,310.405,361.87,305.484z"/>
<path style="fill:#2D2D30;" d="M84.056,306.982H20.979c-7.444,0-13.479-6.035-13.479-13.479v-60.137  c0-7.444,6.035-13.479,13.479-13.479h53.566c5.808,0,10.689,4.365,11.335,10.137l7.45,66.589  C93.949,302.143,89.621,306.982,84.056,306.982z"/>
<path style="fill:#1D1D1F;" d="M45.005,293.503v-60.137c0-7.444,6.035-13.479,13.479-13.479H20.979  c-7.444,0-13.479,6.035-13.479,13.479v60.137c0,7.444,6.035,13.479,13.479,13.479h37.505  C51.039,306.982,45.005,300.947,45.005,293.503z"/>
<path style="fill:#2D2D30;" d="M427.944,306.982h63.077c7.444,0,13.479-6.035,13.479-13.479v-60.137  c0-7.444-6.035-13.479-13.479-13.479h-53.566c-5.808,0-10.689,4.365-11.335,10.137l-7.45,66.589  C418.051,302.143,422.379,306.982,427.944,306.982z"/>
<path style="fill:#1D1D1F;" d="M461.615,296.613l7.45-66.589c0.646-5.772,5.526-10.137,11.335-10.137h-42.944  c-5.808,0-10.689,4.365-11.335,10.137l-7.45,66.589c-0.619,5.53,3.709,10.369,9.274,10.369h42.945  C465.324,306.982,460.996,302.143,461.615,296.613z"/>
<path d="M491.021,212.386H440.14c-4.441-18.505-17.601-33.717-35.623-40.622c-48.213-18.471-147.225-20.404-148.518-20.374  c-1.292-0.031-54.355,0.602-86.448,5.244c-4.099,0.593-6.941,4.397-6.349,8.497s4.398,6.943,8.497,6.349  c31.162-4.508,84.363-5.087,84.486-5.09c1.104-0.027,97.091,1.806,142.965,19.38c13.553,5.193,23.38,16.74,26.531,30.744  c-3.805,3.032-6.435,7.503-7.014,12.674l-7.45,66.59c-0.493,4.404,0.798,8.81,3.522,12.271  c-5.693,10.303-15.555,17.741-27.251,20.304l-74.71,16.37c-2.676,0.586-5.422,0.884-8.159,0.884c-7.455,0-14.67-2.179-20.832-6.205  l10.813-9.15c4.765,2.097,10.131,2.683,15.346,1.54l74.71-16.37c11.724-2.569,20.506-12.325,21.832-24.253l6.86-61.71  c1.503-13.524-6.227-26.46-18.933-31.328C339.378,177.048,256,179.637,256,179.637s-83.378-2.59-138.415,18.496  c-12.706,4.868-20.436,17.804-18.933,31.328l6.86,61.71c1.326,11.928,10.108,21.684,21.832,24.253l74.71,16.37  c5.234,1.147,10.619,0.553,15.397-1.562l10.786,9.156c-6.167,4.036-13.392,6.22-20.857,6.22c-2.738,0-5.483-0.297-8.159-0.884  l-74.709-16.369c-11.682-2.56-21.556-10-27.253-20.302c2.726-3.462,4.017-7.869,3.524-12.275l-7.45-66.59  c-0.579-5.172-3.211-9.643-7.017-12.675c3.167-13.988,13.061-25.58,26.532-30.742c2.466-0.945,5.056-1.87,7.696-2.751  c3.929-1.311,6.052-5.558,4.741-9.488c-1.31-3.929-5.555-6.053-9.487-4.742c-2.848,0.95-5.646,1.95-8.316,2.973  c-17.917,6.865-31.161,22.137-35.623,40.622h-50.88C9.411,212.386,0,221.798,0,233.365v60.138c0,11.568,9.411,20.979,20.979,20.979  h62.72c7.693,14.481,21.361,24.966,37.601,28.525l74.708,16.369c3.729,0.817,7.555,1.232,11.371,1.232  c11.88,0,23.326-3.969,32.634-11.223l1.747,1.483c4.126,3.498,9.183,5.246,14.239,5.246s10.114-1.749,14.239-5.247l1.749-1.48  c9.307,7.253,20.752,11.221,32.63,11.221c3.815,0,7.641-0.415,11.37-1.231l74.71-16.37c16.259-3.563,29.918-14.041,37.608-28.525  h62.713c11.568,0,20.979-9.411,20.979-20.979v-60.138C512,221.798,502.589,212.386,491.021,212.386z M15,293.503v-60.138  c0-3.297,2.683-5.979,5.979-5.979h53.565c1.991,0,3.66,1.493,3.882,3.471l7.45,66.588c0.075,0.674-0.206,1.147-0.456,1.426  c-0.249,0.278-0.688,0.61-1.365,0.61H20.979C17.683,299.482,15,296.8,15,293.503z M207.379,317.811  c-0.74,0-76.918-16.61-76.918-16.61c-5.631-1.234-9.841-5.911-10.478-11.639l-6.859-61.71c-0.779-7.012,3.197-13.642,9.67-16.122  c42.706-16.361,132.728-17.539,132.759-17.539l0.448,0.014c0,0,90.499,1.164,133.205,17.525c6.474,2.48,10.45,9.11,9.671,16.122  l-6.86,61.71c-0.636,5.729-4.847,10.405-10.477,11.639c0,0-76.177,16.61-76.918,16.61c-2.554,0-5.006-0.94-6.905-2.648  l-20.194-18.16c-5.918-5.323-13.561-8.254-21.522-8.254s-15.604,2.932-21.523,8.254l-20.193,18.16  C212.385,316.87,209.932,317.811,207.379,317.811z M251.462,339.427l-21.814-18.499c0,0,17.02-15.011,18.367-15.697v19.887  c0,4.142,3.357,7.5,7.5,7.5s7.5-3.358,7.5-7.5v-20.337c1.704,0.74,19.338,16.147,19.338,16.147l-21.814,18.498  C257.909,341.657,254.091,341.657,251.462,339.427z M497,293.503c0,3.297-2.683,5.979-5.979,5.979h-63.076  c-0.678,0-1.116-0.332-1.365-0.61c-0.25-0.279-0.531-0.752-0.456-1.425l7.45-66.588c0.222-1.979,1.891-3.472,3.882-3.472h53.565  c3.297,0,5.979,2.682,5.979,5.979L497,293.503L497,293.503z"/>
<path d="M139.425,177.627c4.095-0.965,8.387-1.946,12.779-2.819c4.063-0.808,6.701-4.756,5.893-8.819  c-0.807-4.062-4.758-6.703-8.818-5.893c-4.603,0.916-9.113,1.911-13.408,2.958c-4.024,0.982-6.49,5.04-5.509,9.064  C131.197,175.545,134.5,178.787,139.425,177.627z"/>
<g>
</g>
<g>
</g>
<g>
</g>
<g>
</g>
<g>
</g>
<g>
</g>
<g>
</g>
<g>
</g>
<g>
</g>
<g>
</g>
<g>
</g>
<g>
</g>
<g>
</g>
<g>
</g>
<g>
</g>
</svg>
