<?xml version="1.0" encoding="iso-8859-1"?>
<!-- Generator: Adobe Illustrator 19.0.0, SVG Export Plug-In . SVG Version: 6.00 Build 0)  -->
<svg xmlns="http://www.w3.org/2000/svg" xmlns:xlink="http://www.w3.org/1999/xlink" version="1.1" id="Layer_1" x="0px" y="0px" viewBox="0 0 512.001 512.001" style="enable-background:new 0 0 512.001 512.001;" xml:space="preserve">
<path style="fill:#2D2D30;" d="M30.286,315.597l26.548,50.242c7.818,14.796,22.693,24.534,39.382,25.78l107.01,7.991  c35.065,2.618,70.314,1.172,105.047-4.309l128.059-20.212c21.506-3.394,38.136-20.667,40.713-42.286l4.662-39.112l-226.749,50.327  L30.286,315.597z"/>
<path style="fill:#3E3D42;" d="M123.101,164.666c0,0,1.943-22.344,17.936-38.11c12.333-12.157,31.481-14.104,46.247-5.057  l9.904,6.068c7.195,4.408,9.422,13.833,4.961,20.996l-13.185,21.17L123.101,164.666z"/>
<path style="fill:#2D2D30;" d="M186.687,121.145c-14.683-8.635-33.482-6.587-45.649,5.406c-15.993,15.766-17.936,38.11-17.936,38.11  l29.589,2.276c2.307-9.439,7.661-24.48,19.737-36.385C176.623,126.418,181.48,123.277,186.687,121.145z"/>
<g>
	<path style="fill:#1D1D1F;" d="M22.686,251.659c0,0-15.2,33.54,7.599,63.938c1.52,1.52,305.506,59.545,451.42-21.905   c0-0.894,12.16-56.725-28.878-83.527C451.308,210.721,22.686,251.659,22.686,251.659z"/>
	<path style="fill:#1D1D1F;" d="M30.286,315.597l25.162,47.619c5.785,0.877,12.277,1.818,19.586,2.851   c28.717,4.059,73.679,9.411,124.798,11.856c18.993,0.909,37.611,1.37,55.336,1.37c90.012,0,163.519-11.825,219.124-35.182   c1.344-3.588,2.283-7.375,2.752-11.309l4.663-39.112l-226.749,50.327L30.286,315.597z"/>
</g>
<path style="fill:#3E3D42;" d="M255.167,359.878c-17.479,0-35.607-0.448-54.408-1.348c-50.37-2.408-94.694-7.684-123.008-11.687  c-56.44-7.978-58.531-10.07-63.586-15.126c-8.904-8.903-8.904-23.338,0-32.243c6.235-6.238,15.185-8.105,23.051-5.604  c9.783,2.246,84.417,15.781,173.253,19.449c115.307,4.761,205.258-8.909,260.124-39.537c10.995-6.135,24.884-2.2,31.02,8.795  c6.137,10.995,2.2,24.882-8.794,31.019C437.707,344.363,357.91,359.878,255.167,359.878z"/>
<path style="fill:#2D2D30;" d="M65.282,298.867c-14.978-2.367-24.906-4.27-28.065-4.995c-7.867-2.502-16.816-0.634-23.051,5.604  c-8.904,8.903-8.904,23.338,0,32.243c5.055,5.055,7.147,7.147,63.586,15.126c28.313,4.002,72.637,9.278,123.008,11.687  c18.8,0.9,36.928,1.348,54.408,1.348c17.221,0,33.782-0.446,49.705-1.317C299.103,357.535,77.146,302.93,65.282,298.867z"/>
<circle style="fill:#898890;" cx="195.24" cy="125.624" r="14.498"/>
<path style="fill:#91DC5A;" d="M16.54,237.415l75.879-66.598c24.246-21.28,57.81-28.428,88.622-18.873l115.475,35.811  c18.852,5.846,38.773,7.398,58.302,4.542l117.583-17.196c23.826-3.484,36.083,27.547,16.306,41.284l-123.597,85.851  c-32.83,22.803-74.445,28.915-112.444,16.516l-145.603-47.514c-14.616-4.769-29.892-7.199-45.266-7.199H26.566  C12.543,264.038,6.001,246.666,16.54,237.415z"/>
<g>
	<path style="fill:#6DC82A;" d="M484.681,176.546l-118.528,82.33c-32.83,22.803-74.444,28.915-112.444,16.516l-145.604-47.514   c-14.616-4.769-29.892-7.199-45.266-7.199H35.612l-19.07,16.738c-10.539,9.25-3.997,26.623,10.026,26.623h35.232   c15.374,0,30.65,2.429,45.266,7.199l145.603,47.514c38,12.401,79.615,6.288,112.444-16.516l123.597-85.851   C504.695,205.281,499.747,182.887,484.681,176.546z"/>
	<path style="fill:#6DC82A;" d="M252.667,318.751c38,12.401,79.615,6.288,112.444-16.516l123.597-85.851   c19.777-13.738,7.521-44.768-16.306-41.284l-117.583,17.196c-9.364,1.369-18.819,1.714-28.203,1.069L61.798,264.038   c15.374,0,30.65,2.43,45.266,7.199L252.667,318.751z"/>
</g>
<path style="fill:#5EAC24;" d="M484.681,176.546l-118.528,82.33c-32.83,22.804-74.444,28.915-112.444,16.516l-105.476-34.42  l-86.433,23.066c15.374,0,30.65,2.429,45.266,7.199l145.603,47.514c38,12.401,79.615,6.288,112.444-16.515l123.597-85.851  C504.695,205.281,499.747,182.886,484.681,176.546z"/>
<path style="fill:#3E3D42;" d="M172.031,216.097c-9.65,4.332-40.53,8.793-44.862-0.857c-4.332-9.65,19.524-29.759,29.174-34.091  c9.65-4.331,20.986-0.021,25.317,9.63C185.991,200.432,181.681,211.766,172.031,216.097z"/>
<path style="fill:#2D2D30;" d="M168.241,196.571c4.934-2.215,10.304-2.158,14.958-0.296c-0.229-1.852-0.733-3.702-1.537-5.494  c-4.332-9.65-15.667-13.962-25.317-9.63c-9.65,4.332-33.507,24.44-29.174,34.091c1.646,3.668,7.13,5.293,13.824,5.666  C146.753,211.171,161.234,199.715,168.241,196.571z"/>
<path d="M144.196,228.497c10.562,0,23.849-2.389,30.905-5.556c13.408-6.019,19.419-21.824,13.4-35.232  c-4.293-9.563-13.842-15.744-24.327-15.744c-3.772,0-7.441,0.788-10.904,2.342c-8.995,4.039-40.476,27.23-32.945,44.005  C123.359,225.071,131.392,228.497,144.196,228.497z M159.414,187.992c1.518-0.681,3.119-1.026,4.761-1.026  c4.587,0,8.765,2.703,10.644,6.886c2.631,5.861,0.003,12.772-5.858,15.403c-3.961,1.778-14.771,4.241-24.763,4.241  c-5.8,0-8.81-0.876-9.977-1.456C135.383,206.592,150.533,191.979,159.414,187.992z"/>
<path d="M141.132,346.743c-5.184-0.49-10.471-1.02-15.712-1.575c-4.126-0.441-7.812,2.549-8.248,6.667  c-0.437,4.119,2.549,7.812,6.668,8.249c5.297,0.562,10.618,1.592,15.882,1.592c4.146,0,7.805-2.877,8.172-6.762  C148.284,350.791,145.256,347.133,141.132,346.743z"/>
<path d="M508.163,278.924c-3.973-7.119-10.414-12.006-17.662-14.204c-1.035-12.688-4.156-24.069-9.307-33.984l11.793-8.191  c11.109-7.716,15.688-21.003,11.663-33.85c-4.002-12.78-15.492-21.366-28.59-21.366c-1.56,0-122.325,17.546-122.325,17.546  c-5.956,0.871-12.029,1.313-18.049,1.313c-12.54,0-24.971-1.883-36.947-5.597l-90.265-27.992l0.044-0.07  c2.365-3.796,3.546-8.155,3.423-12.61c3.3-3.848,5.3-8.842,5.3-14.298c0-12.13-9.868-21.998-21.998-21.998  c-6.066,0-11.568,2.468-15.551,6.453c-15.522-4.353-32.483-0.134-43.92,11.14c-6.679,6.585-12.06,15.138-15.711,24.863  c-11.878,4.216-22.957,10.648-32.59,19.102L11.593,231.78c-7.171,6.294-9.632,16.131-6.27,25.061  c1.289,3.423,3.314,6.375,5.853,8.723c-1.089,7.034-1.547,16.215,0.418,26.2c-0.948,0.746-1.866,1.542-2.734,2.41  c-11.814,11.814-11.814,31.035,0.001,42.85c5.007,5.007,8.573,7.561,30.321,11.467l11.02,20.854  c9.08,17.185,26.072,28.308,45.454,29.755l107.01,7.991c11.469,0.856,22.97,1.284,34.474,1.284c24.199,0,48.404-1.892,72.3-5.664  L437.5,382.5c24.707-3.9,44.03-23.97,46.991-48.806l0.922-7.731c3.788-1.875,7.478-3.811,11.064-5.812  C511.063,312.004,516.306,293.511,508.163,278.924z M475.375,264.061c-2.886,0.615-5.729,1.663-8.438,3.175  c-20.661,11.533-46.628,20.633-77.436,27.191l79.248-55.046C472.226,246.629,474.442,254.887,475.375,264.061z M195.242,118.623  c3.858,0,6.997,3.139,6.997,6.997c0,3.858-3.139,6.998-6.997,6.998s-6.997-3.139-6.997-6.998  C188.244,121.762,191.384,118.623,195.242,118.623z M146.302,131.898c7.051-6.949,17.285-9.861,27.011-7.938  c-0.041,0.549-0.152,16.159,13.06,21.785c0,0-14.879-5.463-32.787-5.463c-4.947,0-9.854,0.384-14.694,1.1  C140.856,138.139,143.286,134.871,146.302,131.898z M21.488,243.053l75.879-66.598c15.555-13.653,35.522-21.171,56.221-21.171  c8.558,0,17.048,1.287,25.232,3.826l114.279,35.44l-184.277,49.178c-4.002,1.068-6.346,5.169-5.313,9.181  c1.731,6.718,8.532,5.485,9.18,5.313l214.711-57.3c2.756,0.163,13.269,0.744,28.503-1.201l117.583-17.196  c9.271-1.401,15.28,5.652,16.849,10.658c0.78,2.494,2.663,11.094-5.905,17.046L360.833,296.08  c-20.227,14.049-43.937,21.475-68.566,21.475c-12.675,0-25.215-1.995-37.273-5.929L109.39,264.112  c-15.392-5.022-31.403-7.569-47.593-7.569H26.566c-4.943,0-6.764-3.816-7.204-4.985C18.922,250.388,17.772,246.313,21.488,243.053z   M25.536,271.5c0.343,0.015,36.262,0.039,36.262,0.039c14.606,0,29.053,2.297,42.94,6.829l79.93,26.083  c-75.046-4.781-135.592-15.609-145.503-17.828c-4.43-1.356-8.999-1.649-13.4-0.987C25.063,280.495,25.126,275.675,25.536,271.5z   M489.165,307.05c-53.884,30.077-132.611,45.328-233.998,45.328c-17.291,0-35.476-0.451-54.049-1.339  c-12.333-0.59-25.023-1.39-37.721-2.378c-4.146-0.317-7.738,2.767-8.06,6.896c-0.322,4.129,2.767,7.738,6.896,8.059  c12.846,0.999,25.687,1.809,38.168,2.405c18.811,0.9,37.236,1.356,54.766,1.356c88.321,0,160.19-11.473,214.243-34.134  c-2.685,17.582-16.587,31.647-34.248,34.436l-128.06,20.212c-34.116,5.384-68.878,6.81-103.318,4.238l-107.01-7.991  c-14.203-1.061-26.654-9.211-33.31-21.805l-5.72-10.826c5.565,0.843,35.252,5.173,43.566,6.002c3.681,0.367,7.891-2.731,8.355-6.533  c0.503-4.111-2.422-7.852-6.533-8.355c-8.2-1.004-16.387-2.083-24.331-3.206c-53.957-7.626-55.981-9.65-59.333-13.003  c-2.89-2.89-4.481-6.731-4.481-10.818s1.408-8.124,4.481-10.819c7.019-6.151,15.869-3.642,16.07-3.596  c10.253,2.354,86.015,15.974,174.621,19.632c9.14,0.377,18.247,0.642,27.074,0.79l13.107,4.277  c13.563,4.426,27.668,6.669,41.926,6.669c23.497,0,46.239-6.03,66.487-17.496c47.376-6.707,86.235-18.389,115.494-34.722  c7.369-4.111,16.706-1.465,20.817,5.9C499.176,293.601,496.529,302.939,489.165,307.05z"/>
<g>
</g>
<g>
</g>
<g>
</g>
<g>
</g>
<g>
</g>
<g>
</g>
<g>
</g>
<g>
</g>
<g>
</g>
<g>
</g>
<g>
</g>
<g>
</g>
<g>
</g>
<g>
</g>
<g>
</g>
</svg>
