<?xml version="1.0" encoding="iso-8859-1"?>
<!-- Generator: Adobe Illustrator 19.0.0, SVG Export Plug-In . SVG Version: 6.00 Build 0)  -->
<svg xmlns="http://www.w3.org/2000/svg" xmlns:xlink="http://www.w3.org/1999/xlink" version="1.1" id="Layer_1" x="0px" y="0px" viewBox="0 0 511.999 511.999" style="enable-background:new 0 0 511.999 511.999;" xml:space="preserve">
<g>
	<circle style="fill:#3E3D42;" cx="458.624" cy="381.282" r="29.428"/>
	<path style="fill:#3E3D42;" d="M465.108,301.154L355.93,338.165c-16.802,5.695-34.332,8.961-52.057,9.698l-40.647,1.689   l-22.709-63.873h222.039C471.55,285.679,473.625,298.267,465.108,301.154z"/>
</g>
<path style="fill:#2D2D30;" d="M287.634,334.906l-29.183,1.212l-17.934-50.44h212.063c-0.878,1.085-2.106,1.975-3.712,2.519  l-109.177,37.011C322.89,330.905,305.36,334.171,287.634,334.906z"/>
<path style="fill:#57565C;" d="M255.398,349.682l-27.628-64.003h145.125c37.094,0,72.056,18.06,93.525,48.31l33.552,47.278  c5.183,7.304,5.85,16.786,1.739,24.743c-4.11,7.959-12.228,12.902-21.185,12.902H360.689  C314.881,418.911,273.552,391.737,255.398,349.682z M262.307,308.388l13.94,32.293c14.559,33.728,47.705,55.521,84.441,55.521  h119.836c0.224,0,0.691,0,1.009-0.614c0.318-0.615,0.048-0.996-0.082-1.178l-33.552-47.277  c-17.217-24.26-45.255-38.744-75.004-38.744H262.307z"/>
<path style="fill:#D8D7DA;" d="M421.436,180.472l-50.303,86.626c-11.357,19.558-30.408,33.447-52.505,38.275l-55.333,12.093  c-15.3,3.344-31.283-0.681-43.175-10.871L155.6,251.308L421.436,180.472z"/>
<g>
	<path style="fill:#C6C5CA;" d="M421.436,180.472l-30.262,52.113l-41.687,30.143c-23.446,16.953-51.13,25.914-80.062,25.914   c-7.149,0-14.356-0.568-21.421-1.69c0,0-36.225-5.647-37.512-5.647c-3.789,0-12.641,3.331-15.044,4.149l-39.849-34.146   L421.436,180.472z"/>
	<path style="fill:#C6C5CA;" d="M330.598,234.208c0,0,0.757,86.309-74.941,84.411l-15.14-26.122l22.709-58.287h67.371V234.208z"/>
</g>
<g>
	<path style="fill:#ACABB1;" d="M248.005,286.952c0,0-1.985-0.31-5.024-0.78l20.245-51.964h67.371c0,0,0.193,22.602-9.758,44.419   c-16.197,6.594-33.566,10.015-51.415,10.015C262.277,288.642,255.07,288.073,248.005,286.952z"/>
	<circle style="fill:#ACABB1;" cx="245.037" cy="297.039" r="33.308"/>
</g>
<path style="fill:#898890;" d="M277.237,288.398c-2.584,0.145-5.176,0.244-7.782,0.244c-7.149,0-14.356-0.568-21.421-1.69  c0,0-22.505-3.508-32.665-4.994c5.503-10.816,16.73-18.232,29.698-18.232C260.475,263.726,273.433,274.191,277.237,288.398z"/>
<path style="fill:#FFC477;" d="M143.778,165.123l32.754-11.301c12.517-4.319,26.123-4.305,38.633,0.041l27.075,9.405  c16.719,5.808,34.681,7.07,52.047,3.659l80.204-15.755c13.338-2.62,27.154-1.257,39.722,3.918l19.012,7.829  c5.758,2.371,6.677,10.141,1.631,13.791l-96.903,70.068c-25.072,18.129-56.306,25.585-86.864,20.735l-33.656-5.342  c-9.112-1.446-18.448-0.01-26.704,4.107c0,0-23.737,11.08-41.089-8.223l-31.101-35.956L143.778,165.123z"/>
<path style="fill:#FFB655;" d="M149.641,258.052l-31.101-35.956l25.237-56.973l32.754-11.301c6.659-2.298,13.626-3.356,20.572-3.202  l63.347,59.036c2.883-0.682,138.85-15.927,153.069-17.52l-75.566,54.641c-25.072,18.129-56.306,25.585-86.863,20.735l-33.656-5.342  c-9.112-1.446-18.448-0.01-26.704,4.106C190.731,266.276,166.993,277.356,149.641,258.052z"/>
<path style="fill:#57565C;" d="M190.731,266.276c0,0-23.737,11.08-41.09-8.223l-31.101-35.956l17.694-39.945l81.201,80.017  C208.323,260.722,198.987,262.158,190.731,266.276z"/>
<path style="fill:#3E3D42;" d="M215.165,153.862l27.075,9.405c16.719,5.808,34.681,7.07,52.048,3.659l80.204-15.755  c2.937-0.577,5.897-0.949,8.863-1.142l-14.252,19.878c-6.295,8.781-15.449,15.098-25.891,17.87l-79.716,21.159  c-16.955,4.501-35.034,1.229-49.336-8.93l-56.071-39.822l0,0l18.445-6.364C189.049,149.503,202.655,149.517,215.165,153.862z"/>
<path style="fill:#2D2D30;" d="M220.542,190.023l79.716-21.16c4.609-1.224,8.966-3.14,12.938-5.652l61.294-12.04  c2.937-0.576,5.897-0.949,8.863-1.142l-14.252,19.878c-6.295,8.781-15.449,15.098-25.891,17.87l-79.716,21.159  c-16.955,4.501-35.034,1.229-49.336-8.93l-11.389-8.088C208.694,192.184,214.685,191.578,220.542,190.023z"/>
<path style="fill:#FFB655;" d="M137.284,167.336l-45.719-12.676c-11.017-3.055-22.807-1.41-32.568,4.544l-38.583,23.532  c-3.788,2.311-1.453,8.149,2.884,7.209l31.549-6.843c7.917-1.717,16.161-1.125,23.752,1.704l48.185,17.962L137.284,167.336z"/>
<path style="fill:#FFA733;" d="M20.415,182.737l19.889-12.131l21.039-4.564c7.918-1.717,16.162-1.125,23.753,1.704l46.889,17.479  l-5.198,17.543L78.6,184.806c-7.591-2.829-15.835-3.421-23.753-1.704l-31.549,6.843C18.962,190.886,16.626,185.048,20.415,182.737z"/>
<path style="fill:#3E3D42;" d="M55.887,374.446c4.877,12.348,26.819,38.597,39.166,33.72s10.426-39.035,5.548-51.383  c-4.877-12.348-18.841-18.403-31.189-13.525S51.01,362.098,55.887,374.446z"/>
<path style="fill:#2D2D30;" d="M80.426,361.704c-3.079-7.795-9.781-13.078-17.411-14.69c1.879-1.538,4.02-2.816,6.399-3.756  c12.348-4.877,26.311,1.178,31.189,13.525c4.877,12.348,6.8,46.506-5.548,51.383c-3.846,1.519-8.624,0.016-13.527-3.144  C86.106,392.831,84.113,371.038,80.426,361.704z"/>
<path style="fill:#D8D7DA;" d="M91.062,366.399l70.966-236.297c1.954-6.507-1.736-13.367-8.244-15.32  c-6.511-1.954-13.368,1.736-15.321,8.244L67.497,359.323c-1.954,6.507,1.85,13.022,8.244,15.32  C82.662,377.131,89.461,371.727,91.062,366.399z"/>
<g>
	<path style="fill:#C6C5CA;" d="M73.007,373.292c2.452-1.526,4.384-3.911,5.281-6.897l70.966-236.297   c1.646-5.48-0.722-11.198-5.394-14.037c2.875-1.748,6.445-2.327,9.925-1.283c6.506,1.955,10.197,8.813,8.244,15.32L91.062,366.396   c-1.6,5.328-8.4,10.732-15.321,8.244C74.762,374.288,73.853,373.827,73.007,373.292z"/>
	<circle style="fill:#C6C5CA;" cx="162.032" cy="116.516" r="23.433"/>
</g>
<circle style="fill:#ACABB1;" cx="170.709" cy="124.148" r="15.798"/>
<path d="M4.272,404.485c5.185,8.898,15.029,14.426,25.69,14.426H210.39c4.077,0,7.381-3.304,7.381-7.381  c0-4.077-3.304-7.381-7.381-7.381h-102.14c2.086-4.853,3.325-11.062,3.642-18.551c0.48-11.318-1.213-24.022-4.211-31.612  c-0.835-2.112-1.906-4.097-3.153-5.963l29.09-96.861l10.267,11.87c0.031,0.037,0.064,0.073,0.096,0.109  c9.091,10.113,20.126,13.562,29.908,13.862l30.714,26.318c2.881,18.604,18.343,33.095,37.387,34.506l6.419,14.871  c19.36,44.846,63.433,73.825,112.28,73.825h119.835c11.817,0,22.526-6.521,27.948-17.02s4.543-23.006-2.295-32.642l-33.552-47.277  c-4.577-6.45-9.739-12.37-15.37-17.731l10.296-3.49c7.363-2.496,11.622-9.596,10.358-17.267c-1.264-7.67-7.578-13.029-15.353-13.029  h-89.478c8-6.59,48.18-82.133,48.18-82.133l18.057-13.057c4.57-3.304,6.997-8.836,6.335-14.436  c-0.663-5.601-4.313-10.413-9.527-12.561l-19.012-7.829c-13.994-5.76-29.24-7.264-44.087-4.349l-80.204,15.755  c-16.027,3.148-32.652,1.979-48.082-3.38l-27.076-9.406c-11.271-3.914-23.459-4.693-35.098-2.349  c6.904-4.076,11.549-11.589,11.549-20.17c0-2.672-0.456-5.239-1.285-7.633h0.244c0-17.117-13.926-31.041-31.042-31.041  c-17.116,0-31.041,13.925-31.041,31.041c0,1.378,0.211,4.23,0.186,4.316l-10.233,34.071l-27.343-7.581  c-12.995-3.602-27.052-1.643-38.565,5.381L16.45,176.238c-4.909,2.994-6.844,8.813-4.709,14.15  c2.136,5.337,7.553,8.209,13.171,6.994l31.549-6.843c6.506-1.411,13.243-0.929,19.48,1.397l30.467,11.357l-8.745,29.117  c-1.209,4.026,1.075,8.27,5.1,9.479c0.73,0.219,7.473,1.551,9.479-5.101l29.161-97.099c2.428,2.163,5.195,3.95,8.212,5.272  L83.772,364.209c-1.188,3.806-5.15,3.383-5.457,3.271c-2.327-0.836-4.356-3.213-3.529-5.968l21.713-72.296  c1.209-4.026-1.075-8.27-5.1-9.479c-4.026-1.208-8.27,1.075-9.479,5.101l-15.436,51.396c-10.757,4.305-17.86,13.897-19.514,24.61  c-1.995-0.842-4.053-1.579-6.186-2.168c-16.823-4.644-34.071,4.274-39.262,20.306C-1.225,387.474-0.223,396.769,4.272,404.485z   M116.562,169.49l-5.764,19.194l-29.538-11.011c-8.974-3.344-18.667-4.039-28.023-2.009l-10.251,2.224l19.976-12.184  c7.932-4.838,17.618-6.191,26.571-3.706L116.562,169.49z M87.842,380.798c3.509-1.77,6.455-4.526,8.454-7.748  c0.385,3.762,0.559,7.853,0.388,11.903c-0.516,12.148-3.622,15.816-4.426,16.133c-0.566,0.225-3.168-0.006-7.754-3.233  c-2.609-4.593-6.229-10.255-10.843-15.894c1.835,0.601,3.728,0.915,5.628,0.915C82.189,382.876,85.104,382.178,87.842,380.798z   M178.891,124.152c0,4.514-3.672,8.186-8.186,8.186c-4.514,0-8.187-3.673-8.187-8.186c0-4.514,3.673-8.187,8.187-8.187  C175.219,115.965,178.891,119.638,178.891,124.152z M162.03,100.701c1.367,0,2.686,0.193,3.953,0.521  c-10.103,2.076-17.845,10.684-18.619,21.199c-0.738-1.826-1.153-3.814-1.153-5.9C146.211,107.798,153.308,100.701,162.03,100.701z   M171.392,147.545l-7.426,2.562l0.803-2.672C165.414,147.377,171.162,147.551,171.392,147.545z M333.494,240.609  c-23.603,17.066-52.443,23.95-81.21,19.385l-31.244-4.96l-68.356-67.36l5.444-18.124l51.623,36.664  c11.414,8.106,24.869,12.325,38.538,12.325c5.728,0,11.49-0.74,17.159-2.245l79.716-21.159c11.26-2.989,21.433-9.675,28.644-18.824  c2.602-3.301,2.036-8.087-1.267-10.689c-3.3-2.602-8.087-2.036-10.689,1.267c-5.185,6.577-12.498,11.384-20.594,13.533  l-79.716,21.159c-14.816,3.933-30.48,1.097-42.977-7.778l-43.999-31.249l4.45-1.535c10.852-3.745,22.804-3.733,33.652,0.036  l27.076,9.406c17.973,6.242,37.342,7.603,56.011,3.938l80.204-15.755c11.908-2.339,24.135-1.134,35.358,3.488  c0,0,19.195,7.904,19.218,8.101C430.557,170.426,333.494,240.609,333.494,240.609z M214.799,269.514  c-3.913,4.312-6.901,9.437-8.707,15.036l-12.898-11.053C193.444,273.389,204.493,267.164,214.799,269.514z M467.987,388.59h-71.046  l-35.706-44.187l52.547-17.814c10.099,5.596,19.063,13.265,26.215,22.651c-8.805,5.092-15.219,13.653-17.518,23.918  c-0.919,4.102,1.661,8.173,5.763,9.091c0.56,0.126,7.301,1.115,9.091-5.763c1.656-6.364,5.806-11.85,11.599-14.748L467.987,388.59z   M375.044,388.59h-14.355c-13.883,0-27.203-3.401-39.006-9.554l15.391-27.779c2.195-0.474,4.381-0.986,6.559-1.538L375.044,388.59z   M293.994,355.892l10.195-0.423c3.858-0.16,7.707-0.442,11.541-0.832l-8.317,15.011  C302.459,365.612,297.951,361.003,293.994,355.892z M277.428,324.211c5.914-1.311,11.252-3.204,16.069-5.554l12.16-2.658h67.237  c6.307,0,12.528,0.719,18.566,2.085l-37.972,12.872c-16.122,5.465-32.921,8.595-49.93,9.301l-18.769,0.779  C284.251,339.927,277.428,324.211,277.428,324.211z M285.002,305.794c0.619-2.824,0.954-5.753,0.954-8.76  c0-7.418-2.057-14.628-5.769-20.886c12.776-1.086,25.27-4.154,37.108-9.105C306.656,295.411,286.102,305.305,285.002,305.794z   M364.55,263.276c-9.986,17.196-26.68,29.6-45.967,34.273c9.588-12.974,14.476-28.022,16.958-39.976  c2.329-1.462,55.373-39.696,55.373-39.696L364.55,263.276z M443.4,300.476c-3.695-2.605-7.523-5.008-11.475-7.186l30.918,0.03  C462.879,293.388,443.4,300.476,443.4,300.476z M262.385,346.664l-4.638-10.743c2.394-0.784,4.695-1.777,6.873-2.969l4.639,10.745  c15.765,36.519,51.653,60.116,91.429,60.116h119.836c3.336,0,6.24-1.769,7.771-4.732c1.534-2.97,1.292-6.368-0.647-9.089  l-33.543-47.265c-18.642-26.268-49.001-41.95-81.212-41.95h-23.726c3.503-2.257,6.843-4.759,9.996-7.487h13.731  c34.632,0,67.274,16.861,87.318,45.104l33.552,47.277c3.529,4.973,3.982,11.427,1.184,16.846c-2.798,5.417-8.325,8.783-14.422,8.783  H360.689C317.922,411.3,279.335,385.929,262.385,346.664z M219.342,297.033c0-10.843,6.889-20.521,16.957-24.164  c0,0,11.664,2.582,24.128,3.373l-0.1,0.136c6.613,4.906,10.405,12.434,10.405,20.654c0,14.168-11.527,25.696-25.696,25.696  C230.868,322.729,219.342,311.202,219.342,297.033z M138.805,233.889l8.927-29.722l51.77,51.016  c-4.135,0.899-8.174,2.303-12.04,4.219c-1.277,0.564-19.075,8.053-32.113-6.385L138.805,233.889z M15.569,383.53  c2.796-8.634,11.95-13.202,21.288-10.624c4.651,1.284,8.942,3.546,12.838,6.354c3.148,6.648,10.118,16.855,18.555,24.888H29.962  c-5.428,0-10.385-2.719-12.934-7.096C14.644,392.96,14.112,388.031,15.569,383.53z"/>
<path d="M101.251,246.933c4.026,1.209,6.309,5.453,5.101,9.479l-3.733,12.43c-2.148,7.203-8.749,5.32-9.48,5.101  c-4.026-1.209-6.309-5.453-5.101-9.479l3.733-12.429C92.98,248.008,97.218,245.724,101.251,246.933z"/>
<g>
</g>
<g>
</g>
<g>
</g>
<g>
</g>
<g>
</g>
<g>
</g>
<g>
</g>
<g>
</g>
<g>
</g>
<g>
</g>
<g>
</g>
<g>
</g>
<g>
</g>
<g>
</g>
<g>
</g>
</svg>
