<?xml version="1.0" encoding="iso-8859-1"?>
<!-- Generator: Adobe Illustrator 19.0.0, SVG Export Plug-In . SVG Version: 6.00 Build 0)  -->
<svg xmlns="http://www.w3.org/2000/svg" xmlns:xlink="http://www.w3.org/1999/xlink" version="1.1" id="Layer_1" x="0px" y="0px" viewBox="0 0 512.001 512.001" style="enable-background:new 0 0 512.001 512.001;" xml:space="preserve">
<path style="fill:#FFB655;" d="M30.21,356.762L8.177,264.266c-3.655-15.343,7.979-30.073,23.751-30.073h153.556l39.318-98.968  c4.924-12.394,16.909-20.531,30.245-20.534l176.226-0.046c13-0.003,24.755,7.728,29.902,19.666l30.772,71.375  c8.057,18.687,11.144,39.14,8.962,59.372l-10.28,89.161c-1.263,10.952-10.535,19.217-21.56,19.217H51.321  C41.273,373.436,32.538,366.537,30.21,356.762z"/>
<g>
	<path style="fill:#FFA733;" d="M105.898,234.194h-73.97c-15.772,0-27.405,14.73-23.751,30.073l22.033,92.495   c2.328,9.775,11.063,16.673,21.112,16.673h83.072l-28.921-121.411C104.005,245.862,104.265,239.769,105.898,234.194z"/>
	<path style="fill:#FFA733;" d="M461.165,134.311c-5.147-11.938-16.902-19.669-29.902-19.666l-176.226,0.046   c-13.336,0.003-25.321,8.141-30.245,20.534l-39.318,98.968H31.917c-14.994,0-26.237,13.313-24.171,27.808h493.433   c1.569-19.23-1.591-38.569-9.242-56.316L461.165,134.311z"/>
</g>
<path style="fill:#FF9811;" d="M105.898,234.194H31.917c-14.993,0-26.237,13.313-24.171,27.808H107.85l-2.377-9.977  C104.005,245.863,104.265,239.769,105.898,234.194z"/>
<path style="fill:#FFA733;" d="M255.047,114.692c-13.336,0.003-25.321,8.141-30.245,20.534l-39.318,98.968v139.242H340.76V114.669  L255.047,114.692z"/>
<path style="fill:#FF9811;" d="M224.802,135.226l-39.318,98.968v27.808H340.76V114.669l-85.712,0.022  C241.711,114.695,229.726,122.832,224.802,135.226z"/>
<path style="fill:#57565C;" d="M444.497,310.606c-16.469-23.154-43.501-38.295-74.016-38.295s-57.547,15.141-74.016,38.295h-72.61  c-16.469-23.154-43.501-38.295-74.016-38.295s-57.547,15.141-74.016,38.295H17.946c-5.301,0-9.188,4.988-7.891,10.128l2.843,11.274  c1.519,6.025,6.938,10.248,13.152,10.248h468.366c4.1,0,7.559-3.05,8.074-7.117l1.945-15.373c0.615-4.861-3.174-9.16-8.074-9.16  L444.497,310.606L444.497,310.606z"/>
<path style="fill:#3E3D42;" d="M75.824,310.607H17.946c-5.301,0-9.188,4.988-7.891,10.128l2.843,11.274  c1.519,6.025,6.938,10.248,13.152,10.248h100.917l-14.717-61.784C97.618,287.159,85.06,297.622,75.824,310.607z"/>
<path style="fill:#57565C;" d="M256.384,154.859l-22.971,59.001c-3.808,9.782,3.407,20.333,13.904,20.333h186.885  c10.327,0,17.531-10.239,14.044-19.959l-21.169-59.001c-2.127-5.928-7.746-9.882-14.044-9.882H270.288  C264.137,145.352,258.616,149.127,256.384,154.859z"/>
<path style="fill:#3E3D42;" d="M292.227,174.044h141.599l-6.749-18.81c-2.127-5.928-7.746-9.882-14.044-9.882H270.288  c-6.151,0-11.672,3.775-13.904,9.507l-22.971,59.001c-3.808,9.782,3.407,20.334,13.904,20.334h11.289l19.716-50.643  C280.555,177.819,286.076,174.044,292.227,174.044z"/>
<path style="fill:#FF9811;" d="M427.077,155.233c-2.127-5.928-7.746-9.882-14.044-9.882h-72.274v88.842h93.443  c10.327,0,17.531-10.239,14.044-19.959L427.077,155.233z"/>
<path style="fill:#EE8700;" d="M264.494,205.033c-7.274,0-13.225,5.951-13.225,13.225v23.059c0,7.274,5.951,13.225,13.225,13.225  s13.225-5.951,13.225-13.225v-23.059C277.719,210.985,271.768,205.033,264.494,205.033z"/>
<path style="fill:#FFE477;" d="M45.774,262.002l4.683,18.34c1.752,6.862-3.432,13.536-10.514,13.536H15.23l-7.484-31.876H45.774z"/>
<circle style="fill:#2D2D30;" cx="149.84" cy="363.112" r="63.68"/>
<path style="fill:#1D1D1F;" d="M149.84,412.232c-27.082,0-49.115-22.033-49.115-49.116c0-27.082,22.033-49.115,49.115-49.115  c27.083,0,49.116,22.033,49.116,49.115C198.955,390.198,176.922,412.232,149.84,412.232z"/>
<path style="fill:#C6C5CA;" d="M149.84,397.671c-19.053,0-34.555-15.501-34.555-34.555c0-19.053,15.501-34.555,34.555-34.555  s34.555,15.501,34.555,34.555C184.395,382.17,168.894,397.671,149.84,397.671z"/>
<path style="fill:#ACABB1;" d="M144.406,367.303c0-15.529,10.298-28.696,24.423-33.036c-5.454-3.602-11.979-5.706-18.99-5.706  c-19.053,0-34.555,15.501-34.555,34.555s15.501,34.555,34.555,34.555c3.524,0,6.926-0.533,10.132-1.518  C150.603,389.965,144.406,379.347,144.406,367.303z"/>
<circle style="fill:#2D2D30;" cx="370.48" cy="363.112" r="63.68"/>
<path style="fill:#1D1D1F;" d="M370.481,412.232c-27.083,0-49.116-22.033-49.116-49.116c0-27.082,22.033-49.115,49.116-49.115  c27.082,0,49.115,22.033,49.115,49.115C419.597,390.198,397.563,412.232,370.481,412.232z"/>
<path style="fill:#C6C5CA;" d="M370.481,397.671c-19.054,0-34.555-15.501-34.555-34.555c0-19.053,15.501-34.555,34.555-34.555  c19.053,0,34.555,15.501,34.555,34.555C405.036,382.17,389.535,397.671,370.481,397.671z"/>
<path style="fill:#ACABB1;" d="M365.047,367.303c0-15.529,10.298-28.696,24.423-33.036c-5.454-3.602-11.979-5.706-18.99-5.706  c-19.053,0-34.555,15.501-34.555,34.555s15.501,34.555,34.555,34.555c3.524,0,6.926-0.533,10.132-1.518  C371.244,389.965,365.047,379.347,365.047,367.303z"/>
<path d="M149.84,321.061c-23.189,0-42.055,18.866-42.055,42.055c0,13.211,6.346,25.826,16.976,33.743  c3.321,2.475,8.021,1.788,10.495-1.535c2.475-3.322,1.788-8.021-1.535-10.495c-6.95-5.177-10.936-13.091-10.936-21.713  c0-14.918,12.137-27.055,27.055-27.055s27.055,12.137,27.055,27.055s-12.137,27.056-27.055,27.056c-4.142,0-7.5,3.358-7.5,7.5  s3.358,7.5,7.5,7.5c23.189,0,42.055-18.866,42.055-42.056C191.895,339.927,173.029,321.061,149.84,321.061z"/>
<path d="M370.481,321.061c-23.189,0-42.055,18.866-42.055,42.055s18.866,42.056,42.055,42.056s42.055-18.866,42.055-42.056  C412.536,339.927,393.67,321.061,370.481,321.061z M370.481,390.171c-14.918,0-27.055-12.137-27.055-27.056  c0-14.918,12.137-27.055,27.055-27.055s27.055,12.137,27.055,27.055C397.536,378.034,385.399,390.171,370.481,390.171z"/>
<path d="M508.092,308.404c-1.217-1.38-2.661-2.504-4.243-3.367l4.516-39.174c2.316-21.475-0.98-43.31-9.531-63.146l-5.396-12.514  c-1.64-3.805-6.056-5.558-9.856-3.918c-3.804,1.64-5.558,6.053-3.918,9.856l5.396,12.514c6.241,14.477,9.292,30.164,8.999,45.847  H280.471c2.889-3.494,4.64-7.952,4.728-12.809h149.003c7.288,0,14.142-3.558,18.336-9.519c4.194-5.96,5.229-13.614,2.768-20.473  l-21.169-59.002c-3.187-8.881-11.668-14.849-21.104-14.849H270.288c-9.313,0-17.514,5.607-20.893,14.287l-22.97,59.001  c-2.688,6.903-1.796,14.674,2.385,20.789c3.505,5.126,8.936,8.51,14.963,9.474c0.02,4.971,1.796,9.535,4.743,13.1H15.528  c0.573-2.287,1.612-4.462,3.125-6.377c3.228-4.087,8.066-6.431,13.274-6.431h153.557c3.073,0,5.835-1.875,6.97-4.731l39.318-98.968  c3.813-9.597,12.95-15.801,23.277-15.803l176.226-0.046c0.002,0,0.004,0,0.007,0c10.012,0,19.042,5.94,23.006,15.135l1.964,4.557  c1.64,3.803,6.051,5.558,9.856,3.918c3.804-1.64,5.558-6.053,3.918-9.856l-1.964-4.557c-4.642-10.765-13.633-18.719-24.396-22.217  l-9.866-26.66c-1.057-2.857-3.781-4.753-6.828-4.753h-29.825H284.37h-29.825c-3.046,0-5.771,1.897-6.828,4.753l-10.731,28.997  c-8.55,4.303-15.437,11.637-19.155,20.994l-37.438,94.237H31.927c-9.827,0-18.956,4.423-25.046,12.134  c-6.09,7.712-8.278,17.617-6,27.176l9.329,39.165c-1.747,0.998-3.318,2.319-4.599,3.963c-2.985,3.83-4.016,8.727-2.829,13.436  l2.843,11.273c1.91,7.572,7.764,13.294,15.039,15.213l2.25,9.445c3.147,13.21,14.829,22.436,28.408,22.436h29.602  c7.931,30.651,35.821,53.356,68.917,53.356s60.986-22.705,68.917-53.356h82.808c7.93,30.651,35.821,53.356,68.916,53.356  s60.986-22.705,68.917-53.356h29.672c14.839,0,27.311-11.116,29.01-25.857l0.686-5.945c5.853-1.703,10.368-6.749,11.166-13.053  l1.946-15.373C512.439,316.255,511.06,311.77,508.092,308.404z M258.769,241.317v-23.059c0-3.157,2.568-5.725,5.725-5.725  s5.725,2.568,5.725,5.725v23.059c0,3.157-2.568,5.725-5.725,5.725S258.769,244.474,258.769,241.317z M420.018,157.766l21.169,59.001  c0.827,2.304,0.493,4.774-0.916,6.776s-3.621,3.15-6.068,3.15H348.26v-73.842h64.774  C416.157,152.851,418.963,154.826,420.018,157.766z M240.403,216.581l22.97-59.001c1.119-2.873,3.833-4.729,6.915-4.729h62.971  v73.842h-48.041v-8.436c0-11.428-9.297-20.725-20.725-20.725s-20.725,9.297-20.725,20.725v7.541  C239.834,223.752,239.5,218.9,240.403,216.581z M427.409,107.147l-14.298,0.004l-5.506-14.878h14.299L427.409,107.147z   M392.079,92.272l5.508,14.883l-113.667,0.03l5.518-14.912L392.079,92.272L392.079,92.272z M259.614,92.272h14.299l-5.52,14.916  l-13.348,0.003c-0.321,0-0.64,0.011-0.959,0.018L259.614,92.272z M25.138,303.106l-0.412-1.729h15.216  c5.708,0,10.991-2.585,14.493-7.094c3.501-4.508,4.7-10.266,3.288-15.797l-2.293-8.984h64.546  c-18.79,6.032-35.6,17.66-47.925,33.604H25.138z M43.19,282.198c0.354,1.383-0.225,2.401-0.6,2.885  c-0.376,0.484-1.22,1.295-2.647,1.295h-18.79l-4.02-16.875h22.815L43.19,282.198z M448.27,303.106  c-12.326-15.944-29.136-27.572-47.925-33.604h92.503l-3.875,33.604H448.27z M340.618,269.502c-18.79,6.032-35.6,17.66-47.926,33.604  h-65.064c-12.326-15.944-29.136-27.572-47.925-33.604H340.618z M17.334,318.085l58.49,0.021c2.427,0,4.705-1.175,6.112-3.153  c15.651-22.005,41.036-35.142,67.904-35.142s52.252,13.137,67.904,35.142c1.407,1.978,3.685,3.153,6.112,3.153h72.61  c2.427,0,4.705-1.175,6.112-3.153c15.651-22.005,41.036-35.142,67.904-35.142s52.253,13.137,67.904,35.142  c1.407,1.978,3.685,3.153,6.112,3.153h52.837c0.071,0-1.917,16.649-1.917,16.649h-59.671  c-10.981-25.171-36.096-42.816-65.265-42.816s-54.284,17.645-65.265,42.816h-90.111c-10.981-25.171-36.096-42.816-65.265-42.816  s-54.285,17.645-65.265,42.816H26.05c-2.782,0-5.2-1.884-5.88-4.582L17.334,318.085z M51.321,365.936  c-6.604,0-12.286-4.487-13.816-10.912l-1.255-5.269h43.689c-0.826,4.33-1.241,15.243-1.204,16.18H51.321V365.936z M149.84,419.292  c-30.976,0-56.176-25.201-56.176-56.176s25.201-56.176,56.176-56.176s56.176,25.201,56.176,56.176S180.815,419.292,149.84,419.292z   M220.944,365.936c0.037-0.937-0.378-11.85-1.204-16.18h80.84c-0.826,4.33-1.241,15.243-1.204,16.18H220.944z M370.481,419.292  c-30.976,0-56.176-25.201-56.176-56.176s25.2-56.176,56.176-56.176s56.176,25.201,56.176,56.176S401.456,419.292,370.481,419.292z   M469.069,365.936h-27.484c0.037-0.937-0.378-11.85-1.204-16.18h43.212l-0.416,3.604  C482.351,360.53,476.286,365.936,469.069,365.936z"/>
<path d="M464.945,161.998l5.879,13.637c1.223,2.836,5.01,5.95,9.856,3.918c3.82-1.602,5.558-6.053,3.918-9.856l-5.879-13.637  c-1.64-3.804-6.054-5.557-9.856-3.918C465.059,153.782,463.305,158.194,464.945,161.998z"/>
<g>
</g>
<g>
</g>
<g>
</g>
<g>
</g>
<g>
</g>
<g>
</g>
<g>
</g>
<g>
</g>
<g>
</g>
<g>
</g>
<g>
</g>
<g>
</g>
<g>
</g>
<g>
</g>
<g>
</g>
</svg>
