<?xml version="1.0" encoding="iso-8859-1"?>
<!-- Generator: Adobe Illustrator 19.0.0, SVG Export Plug-In . SVG Version: 6.00 Build 0)  -->
<svg xmlns="http://www.w3.org/2000/svg" xmlns:xlink="http://www.w3.org/1999/xlink" version="1.1" id="Layer_1" x="0px" y="0px" viewBox="0 0 512.001 512.001" style="enable-background:new 0 0 512.001 512.001;" xml:space="preserve">
<path style="fill:#3E3D42;" d="M177.893,122.416l-34.652,35.407h81.07c6.188,0,11.68-3.963,13.63-9.835l6.129-18.455  c3.087-9.297-3.834-18.888-13.63-18.888h-24.554C195.352,110.644,185.261,114.887,177.893,122.416z"/>
<circle style="fill:#57565C;" cx="239.46" cy="139.801" r="18.06"/>
<path style="fill:#1D1D1F;" d="M233.018,95.847c-7.211,0-13.056-5.845-13.056-13.056V58.419c0-7.211,5.845-13.056,13.056-13.056  s13.056,5.845,13.056,13.056v24.372C246.074,90.002,240.229,95.847,233.018,95.847z"/>
<path style="fill:#3E3D42;" d="M464.462,218.574h-54.835c-12.925,0-23.501,10.575-23.501,23.501v2.611  c0,12.926,10.575,23.501,23.501,23.501h54.835c12.925,0,23.501-10.575,23.501-23.501v-2.611  C487.962,229.149,477.387,218.574,464.462,218.574z"/>
<path style="fill:#2D2D30;" d="M456.936,218.574h-47.309c-12.925,0-23.501,10.575-23.501,23.501v2.611  c0,12.926,10.575,23.501,23.501,23.501h47.309V218.574z"/>
<path style="fill:#3E3D42;" d="M31.871,268.187c0,0,42.078-95.192,129.917-116.091c17.293-4.114,35.458,1.377,47.619,14.342  c16.565,17.66,51.549,41.691,119.271,41.691c0.575,0.575,43.738,0.39,72.941,0.198c14.489-0.095,26.285,11.622,26.285,26.112v26.785  L306.048,397.877h-95.744L31.871,268.187z"/>
<path style="fill:#2D2D30;" d="M275.478,202.282c-34.125-8.221-54.555-23.568-66.071-35.844  c-12.161-12.965-30.326-18.456-47.619-14.342C73.949,172.995,31.871,268.187,31.871,268.187l89.279,64.891  C141.541,297.566,192.343,224.587,275.478,202.282z"/>
<g>
	<path style="fill:#1D1D1F;" d="M90.1,231.895c-2.96-2.721-3.155-7.326-0.435-10.287c11.046-12.021,22.881-22.131,35.176-30.052   c3.379-2.177,7.885-1.202,10.063,2.178c2.177,3.38,1.202,7.886-2.178,10.063c-11.252,7.249-21.796,16.875-32.34,27.663   C96.562,235.374,91.499,233.18,90.1,231.895z"/>
	<path style="fill:#1D1D1F;" d="M140.909,190.455c-1.625-3.678,0.04-7.977,3.718-9.601c7.243-3.2,14.718-5.727,22.218-7.511   c3.909-0.93,7.837,1.486,8.768,5.398c0.93,3.911-1.486,7.837-5.398,8.768c-6.64,1.58-13.004,4.521-19.705,6.665   C144.612,196.06,142.111,193.177,140.909,190.455z"/>
</g>
<path style="fill:#FF3F62;" d="M427.905,261.224v-26.785c0-14.489-11.796-26.207-26.285-26.112  c-29.202,0.192-72.365,0.377-72.941-0.198c-7.913,0-15.362-0.34-22.404-0.947l-62.025,11.392l-44.98-12.393  c-16.603-4.574-31.298,11.778-24.983,27.8l31.666,80.337H380.56L427.905,261.224z"/>
<path style="fill:#FF0C38;" d="M199.269,206.181c-16.603-4.574-31.298,11.778-24.983,27.8l8.368,21.229  c15.689-14.441,33.999-27.961,54.97-38.462L199.269,206.181z"/>
<path style="fill:#2D2D30;" d="M401.619,208.327c-29.202,0.192-72.365,0.377-72.941-0.198c-62.838,0-97.478-20.688-115.382-37.78  l0,0l16.345,41.668c10.635,27.112,40.608,41.181,68.259,32.04l107.322-35.476C404.041,208.425,402.844,208.319,401.619,208.327z"/>
<path style="fill:#1D1D1F;" d="M229.641,212.017c0.972,2.477,2.108,4.842,3.386,7.094c13.074-6.948,27.217-12.742,42.451-16.829  v-0.002c-30.578-7.368-50.16-20.455-62.182-31.931L229.641,212.017z"/>
<path style="fill:#57565C;" d="M303.78,290.087l-30.807,87.77h-33.946l-30.807-87.77c-9.18-26.155-33.877-43.66-61.596-43.66H24.473  c-9.374,0-16.973,7.599-16.973,16.973v13.923c0,9.374,7.599,16.973,16.973,16.973h14.383l131.409,130.564h171.469l131.409-130.564  h14.383c9.374,0,16.973-7.599,16.973-16.973V263.4c0-9.374-7.599-16.973-16.973-16.973h-122.15  C337.657,246.427,312.96,263.932,303.78,290.087z"/>
<circle style="fill:#2D2D30;" cx="106.73" cy="367.411" r="99.23"/>
<path style="fill:#1D1D1F;" d="M106.726,452.078c-46.685,0-84.665-37.981-84.665-84.665s37.981-84.665,84.665-84.665  s84.665,37.981,84.665,84.665S153.411,452.078,106.726,452.078z"/>
<path style="fill:#ACABB1;" d="M106.726,437.518c-38.656,0-70.105-31.449-70.105-70.105s31.449-70.105,70.105-70.105  s70.105,31.449,70.105,70.105S145.382,437.518,106.726,437.518z"/>
<path style="fill:#898890;" d="M56.789,377.857c0-38.656,31.449-70.105,70.105-70.105c7.562,0,14.841,1.218,21.67,3.444  c-11.686-8.72-26.169-13.888-41.838-13.888c-38.656,0-70.105,31.449-70.105,70.105c0,31.094,20.355,57.51,48.435,66.661  C67.912,421.282,56.789,400.845,56.789,377.857z"/>
<path style="fill:#787680;" d="M106.726,398.69c-17.246,0-31.277-14.031-31.277-31.277s14.031-31.277,31.277-31.277  s31.277,14.031,31.277,31.277C138.003,384.659,123.972,398.69,106.726,398.69z"/>
<path style="fill:#57565C;" d="M106.726,367.413c0-11.551,6.299-21.652,15.638-27.069c-4.604-2.67-9.944-4.208-15.638-4.208  c-17.246,0-31.277,14.031-31.277,31.277s14.031,31.277,31.277,31.277c5.695,0,11.034-1.537,15.638-4.208  C113.025,389.065,106.726,378.964,106.726,367.413z"/>
<circle style="fill:#2D2D30;" cx="405.27" cy="367.411" r="99.23"/>
<path style="fill:#1D1D1F;" d="M405.274,452.078c-46.685,0-84.665-37.981-84.665-84.665s37.981-84.665,84.665-84.665  s84.665,37.981,84.665,84.665S451.959,452.078,405.274,452.078z"/>
<path style="fill:#ACABB1;" d="M405.274,437.518c-38.656,0-70.105-31.449-70.105-70.105s31.449-70.105,70.105-70.105  s70.105,31.449,70.105,70.105S443.93,437.518,405.274,437.518z"/>
<path style="fill:#787680;" d="M405.274,398.69c-17.246,0-31.277-14.031-31.277-31.277s14.031-31.277,31.277-31.277  s31.277,14.031,31.277,31.277S422.52,398.69,405.274,398.69z"/>
<path style="fill:#57565C;" d="M420.912,394.482c-4.604,2.67-9.944,4.208-15.638,4.208c-17.246,0-31.277-14.031-31.277-31.277  s14.031-31.277,31.277-31.277c5.695,0,11.034,1.537,15.638,4.208c-9.339,5.416-15.638,15.518-15.638,27.069  C405.274,378.964,411.573,389.065,420.912,394.482z"/>
<path style="fill:#898890;" d="M355.338,377.857c0-38.656,31.449-70.105,70.105-70.105c7.562,0,14.841,1.218,21.67,3.444  c-11.686-8.72-26.169-13.888-41.838-13.888c-38.656,0-70.105,31.449-70.105,70.105c0,31.094,20.355,57.51,48.435,66.661  C366.46,421.282,355.338,400.845,355.338,377.857z"/>
<path style="fill:#FF3F62;" d="M287.874,377.857h-62.575c-12.925,0-23.501,10.575-23.501,23.501l0,0  c0,12.925,10.575,23.501,23.501,23.501h62.575c12.925,0,23.501-10.575,23.501-23.501l0,0  C311.375,388.433,300.8,377.857,287.874,377.857z"/>
<path style="fill:#FF0C38;" d="M245.559,401.358L245.559,401.358c0-12.926,10.575-23.501,23.501-23.501H225.3  c-12.925,0-23.501,10.575-23.501,23.501l0,0c0,12.925,10.575,23.501,23.501,23.501h43.76  C256.134,424.859,245.559,414.284,245.559,401.358z"/>
<path d="M106.726,289.808c-42.792,0-77.605,34.813-77.605,77.605c0,42.791,34.813,77.604,77.605,77.604s77.605-34.813,77.605-77.604  S149.518,289.808,106.726,289.808z M106.726,430.018c-34.521,0-62.605-28.084-62.605-62.604c0-34.521,28.084-62.605,62.605-62.605  s62.605,28.084,62.605,62.605C169.331,401.933,141.247,430.018,106.726,430.018z"/>
<path d="M106.726,328.636c-21.382,0-38.777,17.395-38.777,38.777c0,11.223,4.873,21.893,13.37,29.275  c3.127,2.718,7.865,2.384,10.581-0.743c2.717-3.127,2.384-7.864-0.743-10.581c-5.216-4.532-8.208-11.075-8.208-17.952  c0-13.111,10.666-23.777,23.777-23.777s23.777,10.666,23.777,23.777c0,13.11-10.666,23.776-23.777,23.776  c-4.142,0-7.5,3.358-7.5,7.5s3.358,7.5,7.5,7.5c21.382,0,38.777-17.395,38.777-38.776S128.108,328.636,106.726,328.636z"/>
<path d="M346.341,328.753c1.396,1.147,6.659,3.248,10.557-1.031c2.816-3.092,5.646-6.209,8.888-8.852  c3.21-2.617,3.691-7.342,1.074-10.552s-7.341-3.691-10.552-1.074c-4.011,3.27-7.711,6.955-10.998,10.953  C342.68,321.397,343.142,326.123,346.341,328.753z"/>
<path d="M405.274,289.808c-10.114,0-19.959,1.927-29.263,5.728c-3.834,1.566-5.673,5.944-4.107,9.779  c1.566,3.834,5.943,5.675,9.779,4.107c7.495-3.061,15.432-4.613,23.591-4.613c34.521,0,62.605,28.084,62.605,62.605  c0,34.52-28.084,62.604-62.605,62.604s-62.605-28.084-62.605-62.604c0-8.289,1.601-16.343,4.758-23.941  c1.589-3.825-0.223-8.214-4.048-9.804c-3.822-1.589-8.214,0.223-9.804,4.048c-3.919,9.431-5.906,19.422-5.906,29.697  c0,42.791,34.813,77.604,77.605,77.604s77.605-34.813,77.605-77.604C482.879,324.622,448.065,289.808,405.274,289.808z"/>
<path d="M405.274,406.189c21.382,0,38.777-17.395,38.777-38.776c0-21.382-17.395-38.777-38.777-38.777s-38.777,17.395-38.777,38.777  C366.497,388.794,383.892,406.189,405.274,406.189z M405.274,343.636c13.111,0,23.777,10.666,23.777,23.777  c0,13.11-10.666,23.776-23.777,23.776s-23.777-10.666-23.777-23.776C381.497,354.302,392.163,343.636,405.274,343.636z"/>
<path d="M512,277.323V263.4c0-13.494-10.979-24.473-24.473-24.473h-52.123c0,0,0.595-8.092-1.045-12.853h30.102  c3.88,0,7.631,1.427,10.563,4.019c1.427,1.261,7.855,2.742,10.587-0.651c2.598-3.226,2.452-7.843-0.651-10.587  c-5.676-5.018-12.956-7.781-20.498-7.781h-38.52c-0.154-0.159-0.302-0.323-0.459-0.479c-6.399-6.358-14.91-9.83-23.913-9.768  c-58.418,0.384-72.395-0.198-72.891-0.198c-58.884,0-91.872-18.345-109.791-35.307c0,0,6.612,0.845,12.625-1.231  c2.504,0.822,5.174,1.272,7.949,1.272c14.094,0,25.561-11.467,25.561-25.561c0-10.206-6.014-19.03-14.683-23.124l0.271-0.114  c-3.058-7.276-9.697-12.242-17.364-13.228c11.228-0.125,20.327-9.288,20.327-20.544V58.419c0-11.334-9.222-20.556-20.556-20.556  s-20.556,9.222-20.556,20.556v24.372c0,3.623,0.95,7.025,2.603,9.984l-5.944,10.369h-3.235c-12.473,0-24.629,5.112-33.353,14.026  l-33.544,34.275c-49.786,19.584-82.724,61.258-99.417,87.482H24.473C10.979,238.927,0,249.905,0,263.399v13.923  c0,12.887,10.015,23.472,22.669,24.399C8.473,319.847,0,342.658,0,367.413c0,58.849,47.877,106.726,106.726,106.726  c34.453,0,65.139-16.415,84.666-41.829v0.05h129.217v-0.05c19.526,25.414,50.213,41.829,84.666,41.829  c58.849,0,106.726-47.877,106.726-106.726c0-24.754-8.473-47.566-22.669-65.691C501.985,300.795,512,290.21,512,277.323z   M420.405,238.927h-55.029c-30.856,0-58.454,19.562-68.673,48.676l-6.744,19.215h-67.918l-6.744-19.215  c-4.93-14.046-13.912-25.858-25.347-34.333l-8.687-22.039c-1.901-4.823-0.967-10.004,2.498-13.86s8.519-5.336,13.515-3.959  l28.355,7.812c10.927,20.629,32.362,33.116,55.064,33.116c6.487,0,13.082-1.021,19.559-3.162l105.593-34.905  C421.53,220.168,420.405,238.927,420.405,238.927z M244.343,370.357l-17.037-48.54h57.388l-17.037,48.54H244.343z M358.859,216.007  l-63.313,20.929c-23.862,7.888-49.745-4.261-58.923-27.658l-6.663-16.986c21.601,12.872,53.123,23.313,98.568,23.337  C332.245,216.013,357.349,216.011,358.859,216.007z M239.462,150.363c-5.823,0-10.561-4.738-10.561-10.561  s4.738-10.561,10.561-10.561s10.561,4.738,10.561,10.561S245.286,150.363,239.462,150.363z M227.462,58.419  c0-3.063,2.493-5.556,5.556-5.556s5.556,2.493,5.556,5.556v24.372c0,3.063-2.493,5.556-5.556,5.556s-5.556-2.493-5.556-5.556V58.419  z M226.422,102.242c1.24,0.422,2.532,0.724,3.865,0.903h-4.383L226.422,102.242z M183.253,127.662  c4.584-4.684,10.568-7.812,16.965-8.989l-3.276,5.714c-2,3.488-0.692,7.77,2.695,9.937c3.944,2.523,8.591-0.349,9.937-2.695  l7.73-13.484h8.606c-7.206,4.525-12.01,12.539-12.01,21.658c0,3.749,0.818,7.309,2.275,10.52h-15.488  c-9.998-5.478-21.497-7.901-32.96-6.796L183.253,127.662z M163.525,159.392c26.975-6.391,42.352,14.193,43.384,15.212l11.392,29.042  l-17.04-4.695c-10.438-2.877-21.419,0.34-28.656,8.394c-7.237,8.053-9.267,19.313-5.296,29.387l2.347,5.956  c-7.298-2.442-15.054-3.76-23.032-3.76H57.569C76.861,210.983,112.122,171.571,163.525,159.392z M15,277.323V263.4  c0-5.223,4.25-9.473,9.473-9.473h122.151c24.497,0,46.407,15.53,54.52,38.644l27.303,77.787c0,0-9.113-0.856-15.13,2.438  c0.089-1.783,0.135-3.578,0.135-5.383c0-58.849-47.877-106.726-106.726-106.726c-26.694,0-51.13,9.852-69.864,26.109H24.473  C19.25,286.795,15,282.546,15,277.323z M106.726,459.139C56.148,459.139,15,417.991,15,367.413s41.148-91.726,91.726-91.726  s91.726,41.148,91.726,91.726S157.304,459.139,106.726,459.139z M225.299,417.359c-7.6,0-14.2-5.417-15.693-12.882  c-0.204-1.019,0.193-8.306,0.193-9.357l-0.002,0.001c0-0.001,0-0.002,0.001-0.002l0.002,0.001c2.873-4.981,9.812-9.763,15.5-9.763  h62.576c5.487,0,11.792,1.644,14.322,9.763l0.006-0.005c0.567,2.107,1.192,4.19,1.883,6.243l-0.001-0.001  c-1.028,10.976-8.66,16.001-16.209,16.001L225.299,417.359L225.299,417.359z M405.274,459.139  c-50.578,0-91.726-41.148-91.726-91.726s41.148-91.726,91.726-91.726S497,316.835,497,367.413S455.852,459.139,405.274,459.139z   M497,277.323c0,5.223-4.25,9.473-9.473,9.473h-12.389c-18.735-16.257-43.17-26.109-69.864-26.109  c-58.849,0-106.726,47.877-106.726,106.726c0,1.64,0.043,3.269,0.117,4.891c-3.399-1.263-7.039-1.946-10.79-1.946h-4.321  l27.303-77.787c8.113-23.114,30.023-38.644,54.52-38.644h122.151c5.223,0,9.473,4.25,9.473,9.473L497,277.323L497,277.323z"/>
<g>
</g>
<g>
</g>
<g>
</g>
<g>
</g>
<g>
</g>
<g>
</g>
<g>
</g>
<g>
</g>
<g>
</g>
<g>
</g>
<g>
</g>
<g>
</g>
<g>
</g>
<g>
</g>
<g>
</g>
</svg>
