<?xml version="1.0" encoding="iso-8859-1"?>
<!-- Generator: Adobe Illustrator 19.0.0, SVG Export Plug-In . SVG Version: 6.00 Build 0)  -->
<svg xmlns="http://www.w3.org/2000/svg" xmlns:xlink="http://www.w3.org/1999/xlink" version="1.1" id="Layer_1" x="0px" y="0px" viewBox="0 0 512.001 512.001" style="enable-background:new 0 0 512.001 512.001;" xml:space="preserve">
<path style="fill:#5EAC24;" d="M178.259,165.395L156.693,213.7l41.176,27.25c11.68,7.73,26.673,8.379,38.978,1.688l41.229-22.42  L178.259,165.395z"/>
<polygon style="fill:#4E901E;" points="178.259,165.395 156.693,213.7 196.863,240.283 220.05,188.347 "/>
<path style="fill:#898890;" d="M261.48,355.476h-30.595c-7.425,0-13.5-6.075-13.5-13.5v-68.099c0-7.425,6.075-13.5,13.5-13.5h30.595  c7.425,0,13.5,6.075,13.5,13.5v68.099C274.98,349.401,268.905,355.476,261.48,355.476z"/>
<path style="fill:#787680;" d="M246.183,342.371v-68.89c0-7.207,5.897-13.104,13.104-13.104H230.49  c-7.208,0-13.104,5.897-13.104,13.104v68.89c0,7.208,5.897,13.104,13.104,13.104h28.798  C252.08,355.476,246.183,349.579,246.183,342.371z"/>
<path style="fill:#ACABB1;" d="M323.798,371.548l-66.523,14.157c-11.344,2.414-22.497-4.825-24.911-16.169l-7.907-37.152  c-2.414-11.344,4.825-22.497,16.169-24.911l66.523-14.157c11.344-2.414,22.497,4.825,24.911,16.169l7.907,37.152  C342.381,357.98,335.142,369.133,323.798,371.548z"/>
<circle style="fill:#898890;" cx="264.65" cy="335.909" r="18.47"/>
<path style="fill:#787680;" d="M263.742,331.378c0-5.227,2.181-9.938,5.671-13.298c-1.521-0.405-3.112-0.642-4.76-0.642  c-10.201,0-18.47,8.269-18.47,18.47s8.269,18.47,18.47,18.47c4.973,0,9.478-1.975,12.799-5.172  C269.562,347.103,263.742,339.93,263.742,331.378z"/>
<path style="fill:#3E3D42;" d="M97.306,238.881c-49.599,0-89.806,40.208-89.806,89.806c0,49.599,40.208,89.806,89.806,89.806  s89.806-40.208,89.806-89.806C187.113,279.088,146.905,238.881,97.306,238.881z M97.306,391.443  c-34.604,0-62.756-28.152-62.756-62.756s28.152-62.756,62.756-62.756s62.756,28.152,62.756,62.756S131.91,391.443,97.306,391.443z"/>
<path style="fill:#2D2D30;" d="M97.306,251.37c-42.632,0-77.317,34.684-77.317,77.317s34.685,77.317,77.317,77.317  s77.317-34.684,77.317-77.317S139.939,251.37,97.306,251.37z M97.306,391.443c-34.604,0-62.756-28.152-62.756-62.756  s28.152-62.756,62.756-62.756s62.756,28.152,62.756,62.756S131.91,391.443,97.306,391.443z"/>
<path style="fill:#3E3D42;" d="M339.816,233.14c-46.487,0-84.469-27.863-86.39-29.296c-7.395-5.518-8.916-15.987-3.399-23.382  c5.511-7.386,15.96-8.912,23.352-3.421c0.737,0.539,44.714,32.32,87.646,19.713c8.852-2.6,18.138,2.47,20.737,11.323  c2.6,8.853-2.469,18.138-11.323,20.737C360.023,231.873,349.726,233.14,339.816,233.14z"/>
<path style="fill:#2D2D30;" d="M286.535,185.006c-8.005-4.239-12.914-7.788-13.156-7.965c-7.392-5.492-17.841-3.965-23.352,3.42  c-5.518,7.395-3.996,17.863,3.399,23.382c1.92,1.433,39.903,29.296,86.389,29.296c9.91,0,20.207-1.267,30.623-4.326  c2.895-0.85,5.374-2.424,7.324-4.454c-45.786-0.601-82.963-27.85-84.862-29.268C289.469,192.53,287.32,188.899,286.535,185.006z"/>
<circle style="fill:#D8D7DA;" cx="414.69" cy="328.689" r="33.651"/>
<path style="fill:#6DC82A;" d="M414.694,243.734c11.415,0,22.309,2.269,32.262,6.37l20.681-7.681  c8.833-3.151,9.583-15.3,1.242-19.587c-16.259-8.357-34.682-13.077-54.186-13.077c-58.787,0-107.746,42.876-117.254,98.998  c-1.353,7.987,6.341,14.512,14.003,11.882c6.746-2.315,13.752-4.771,19.606-6.839C338.107,274.03,372.928,243.734,414.694,243.734z"/>
<path style="fill:#5EAC24;" d="M414.694,224.32c-54.916,0-99.236,42.412-103.252,96.319c0.274-0.071,13.752-4.771,19.606-6.839  c7.058-39.77,41.88-70.066,83.645-70.066c11.415,0,22.309,2.269,32.262,6.37l20.681-7.681c1.191-0.425,2.222-1.023,3.116-1.733  C454.551,230.331,435.311,224.32,414.694,224.32z"/>
<path style="fill:#3E3D42;" d="M414.694,238.881c-49.599,0-89.806,40.208-89.806,89.806c0,49.599,40.208,89.806,89.806,89.806  c49.599,0,89.806-40.208,89.806-89.806C504.5,279.088,464.292,238.881,414.694,238.881z M414.693,391.443  c-34.604,0-62.756-28.152-62.756-62.756s28.152-62.756,62.756-62.756s62.756,28.152,62.756,62.756S449.298,391.443,414.693,391.443z  "/>
<path style="fill:#2D2D30;" d="M414.694,251.37c-42.632,0-77.317,34.684-77.317,77.317s34.685,77.317,77.317,77.317  s77.317-34.684,77.317-77.317C492.011,286.054,457.326,251.37,414.694,251.37z M414.694,391.443  c-34.604,0-62.756-28.152-62.756-62.756s28.152-62.756,62.756-62.756s62.756,28.152,62.756,62.756S449.298,391.443,414.694,391.443z  "/>
<path style="fill:#D8D7DA;" d="M97.31,339.51c-1.041,0-2.098-0.151-3.146-0.469c-5.719-1.735-8.948-7.777-7.213-13.495  l62.268-205.255c1.734-5.719,7.779-8.947,13.495-7.213c5.719,1.735,8.948,7.777,7.213,13.495L107.66,331.828  C106.243,336.5,101.951,339.51,97.31,339.51z"/>
<g>
	<path style="fill:#C6C5CA;" d="M97.775,327.528l62.268-205.255c1.023-3.375,3.552-5.871,6.625-7.003   c-1.116-0.971-2.445-1.734-3.952-2.192c-5.717-1.734-11.761,1.494-13.496,7.213L86.952,325.546   c-1.735,5.718,1.494,11.76,7.213,13.495c1.047,0.318,2.105,0.469,3.146,0.469c1.289,0,2.548-0.24,3.729-0.675   C97.919,336.122,96.497,331.74,97.775,327.528z"/>
	<path style="fill:#C6C5CA;" d="M160.585,134.924c-3.367,0-6.695-1.517-8.892-4.403c-3.734-4.906-2.783-11.91,2.123-15.644   c1.32-1.004,32.82-24.565,74.884-21.007c6.144,0.519,10.702,5.92,10.183,12.064c-0.519,6.144-5.917,10.697-12.064,10.183   c-33.61-2.839-59.229,16.333-59.484,16.527C165.317,134.181,162.941,134.924,160.585,134.924z"/>
</g>
<path style="fill:#ACABB1;" d="M161.097,123.29c1.32-1.004,32.82-24.565,74.884-21.007c0.955,0.081,1.866,0.292,2.731,0.593  c-0.923-4.784-4.917-8.575-10.012-9.006c-42.064-3.558-73.565,20.003-74.884,21.007c-4.907,3.734-5.857,10.737-2.123,15.644  c1.381,1.815,3.211,3.087,5.216,3.782C156.127,130.265,157.603,125.949,161.097,123.29z"/>
<path style="fill:#3E3D42;" d="M200.59,118.07c7.841-1.795,16.715-2.757,26.231-1.953c6.147,0.514,11.545-4.039,12.064-10.183  c0.519-6.143-4.039-11.544-10.183-12.064c-11.754-0.994-22.681,0.131-32.357,2.288L200.59,118.07z"/>
<path style="fill:#2D2D30;" d="M235.982,102.283c0.955,0.081,1.866,0.292,2.731,0.593c-0.923-4.784-4.917-8.575-10.012-9.006  c-11.754-0.994-22.681,0.131-32.357,2.288l1.891,9.758C209.17,102.925,221.985,101.099,235.982,102.283z"/>
<path d="M42.044,267.691c2.838-2.205,5.507-4.672,8.452-6.713c3.404-2.359,4.252-7.031,1.894-10.436  c-2.358-3.404-7.03-4.253-10.437-1.893c-3.479,2.411-6.838,5.078-9.981,7.927c-3.069,2.782-3.303,7.525-0.521,10.594  C32.931,268.803,38,270.832,42.044,267.691z"/>
<path d="M470.803,249.231c6.566-2.614,10.906-8.54,11.376-15.642c0.488-7.367-3.295-14.042-9.871-17.423  c-15.629-8.033-32.99-12.716-50.602-13.703c-0.848-3.08-3.662-5.345-7.012-5.345s-6.164,2.266-7.012,5.346  c-23.784,1.328-46.731,9.376-66.126,23.156c-44.9,0.725-82.103-26.637-83.645-27.786c-4.068-3.037-4.908-8.817-1.873-12.886  c3.031-4.06,8.803-4.904,12.914-1.851c1.934,1.414,47.874,34.458,94.188,20.854c1.938-0.57,3.96-0.495,5.842,0.219  c3.87,1.466,8.202-0.481,9.671-4.355c1.468-3.874-0.482-8.203-4.356-9.671c-4.961-1.881-10.281-2.083-15.384-0.584  c-39.177,11.506-80.694-18.271-81.061-18.536c-10.69-7.944-25.87-5.722-33.835,4.956c-3.267,4.379-4.824,9.511-4.793,14.595  l-69.322-38.074l4.302-15.444c6.159-3.912,23.798-13.724,45.788-13.724c2.068,0,4.154,0.087,6.204,0.261  c10.296,0.863,19.31-6.925,20.162-17.025c0.42-4.967-1.12-9.801-4.335-13.61c-3.216-3.81-7.722-6.139-12.689-6.559  c-3.077-0.26-6.211-0.393-9.314-0.393c-40.173,0-69.514,21.969-70.744,22.905c-1.239,0.943-6.024,5.305-7.231,9.205l-25.973,85.615  c-5.975-0.928-11.575-1.375-16.568-1.523c-4.013-0.125-7.374,3.042-7.494,7.061c-0.119,4.019,3.042,7.374,7.061,7.493  c3.877,0.115,8.168,0.432,12.726,1.058l-4.282,14.114c-3.385-0.353-6.798-0.552-10.208-0.552c-12.281,0-24.256,2.26-35.591,6.717  c-3.855,1.516-5.585,5.808-4.235,9.725c2.186,6.343,8.823,4.589,9.724,4.235c9.58-3.767,19.708-5.677,30.103-5.677  c1.921,0,3.843,0.082,5.759,0.215l-3.608,11.893c-0.718-0.022-1.435-0.058-2.151-0.058c-38.74,0-70.257,31.517-70.257,70.256  s31.517,70.256,70.257,70.256c38.739,0,70.256-31.517,70.256-70.256c0-24.426-12.528-46.754-33.042-59.566l3.613-11.909  c25.439,14.55,41.479,41.769,41.479,71.475c0,45.384-36.922,82.307-82.306,82.307S15,374.071,15,328.687  c0-16.985,5.129-33.288,14.831-47.145c2.376-3.393,1.551-8.07-1.842-10.445c-3.394-2.376-8.069-1.551-10.445,1.842  C6.066,289.331,0,308.608,0,328.687c0,53.655,43.651,97.307,97.307,97.307c53.654,0,97.306-43.651,97.306-97.307  c0-10.748-1.778-21.22-5.104-31.074l33.733,69.186c6.38,13.085,19.904,21.541,34.455,21.541c2.73,0,5.473-0.295,8.151-0.877  l62.675-13.619c16.298,30.976,48.806,52.15,86.171,52.15c53.655,0,97.307-43.651,97.307-97.307  C512,295.912,495.71,266.871,470.803,249.231z M467.213,232.598c-0.051,0.771-0.391,2.153-2.187,2.794l-11.267,4.184  c-9.854-4.337-20.556-7.09-31.785-7.924v-14.155c15.232,0.971,29.827,4.993,43.477,12.009  C467.168,230.389,467.255,231.962,467.213,232.598z M264.652,324.938c6.049,0,10.971,4.921,10.971,10.97s-4.922,10.97-10.971,10.97  s-10.97-4.921-10.97-10.97S258.604,324.938,264.652,324.938z M388.543,328.687c0-10.818,6.603-20.123,15.99-24.096  c1.857,3.947,2.881,8.304,2.881,12.811c-0.009,0.84-0.374,17.627-14.368,25.939C390.205,339.158,388.543,334.113,388.543,328.687z   M421.974,317.438c0-4.991-0.839-9.857-2.401-14.438c12.095,2.293,21.271,12.936,21.271,25.687c0,14.42-11.731,26.151-26.151,26.151  c-3.488,0-6.816-0.692-9.862-1.937C417.988,342.629,421.974,326.606,421.974,317.438z M407.414,284.424  c-2.602-2.382-11.398-7.737-11.398-7.737c3.638-1.311,7.454-2.24,11.398-2.761V284.424z M379.771,267.765l-12.041-6.613  c11.454-7.99,25.02-13.139,39.683-14.431v12.087C397.433,259.84,388.075,262.986,379.771,267.765z M353.32,253.237l-13.359-7.337  c18.165-16.393,41.701-26.752,67.453-28.404v14.157C386.994,233.17,368.311,241.02,353.32,253.237z M316.236,249.482  c-3.018,3.749-5.818,7.657-8.384,11.708v-16.313L316.236,249.482z M262.667,220.06l-29.402,15.989  c-9.891,5.378-21.867,4.86-31.256-1.354l-35.876-23.742l15.744-35.266L262.667,220.06z M193.73,247.204  c13.936,8.795,27.369,7.486,28.54,7.395c-7.281,3.181-12.386,10.444-12.386,18.883v32.7l-34.759-71.29L193.73,247.204z   M224.885,273.481c0-3.09,2.514-5.604,5.604-5.604h31.387c3.091,0,5.604,2.514,5.604,5.604v20.608l-29.017,6.175  c-5.197,1.106-9.859,3.614-13.579,7.225L224.885,273.481L224.885,273.481z M261.876,252.877h-30.307  c3.035-0.897,6.009-2.1,8.861-3.651l37.858-20.586l15.003,8.24v51.716l-10.811,2.301v-17.416  C282.48,262.12,273.237,252.877,261.876,252.877z M305.911,312.959c-0.515-0.437-1.339-1.401-1.077-2.949  c3.438-20.291,12.166-38.479,24.633-53.262l12.8,7.03c-11.499,12.817-19.651,28.691-23.074,46.238  c-3.343,1.167-6.794,2.365-10.185,3.529C307.514,314.058,306.427,313.397,305.911,312.959z M332.388,328.687  c0-22.336,8.956-42.611,23.45-57.455l11.028,6.057c-13.784,12.836-22.429,31.122-22.429,51.398c0,9.082,1.751,17.757,4.902,25.732  l-11.928,2.592C334.163,348.176,332.388,338.635,332.388,328.687z M359.438,328.687c0-17.753,8.425-33.567,21.477-43.683  c0,0,8.252,2.661,13.718,7.772c-12.571,7.051-21.089,20.501-21.089,35.911c0,7.017,1.769,13.627,4.879,19.414l-14.179,3.081  C361.164,344.305,359.438,336.696,359.438,328.687z M388.849,360.678c7.07,5.723,16.061,9.16,25.844,9.16  c22.691,0,41.151-18.46,41.151-41.151c0-20.205-14.642-37.044-33.87-40.493v-14.268c27.037,3.577,47.975,26.763,47.975,54.762  c0,30.468-24.788,55.256-55.256,55.256c-16.912,0-32.065-7.645-42.209-19.652C372.484,364.291,388.145,360.863,388.849,360.678z   M168.685,168.442l-11.298,25.308l8.195-27.013L168.685,168.442z M228.069,101.343c2.931,0.406,3.469,2.645,3.341,3.959  c-0.41,4.196-3.857,3.349-3.958,3.341c-2.462-0.208-4.973-0.313-7.461-0.313c-4.688,0-9.181,0.372-13.456,0.997l-1.394-7.192  c4.718-0.709,9.688-1.131,14.877-1.131C222.702,101.004,225.427,100.977,228.069,101.343z M158.357,120.847  c0.741-0.548,13.042-9.773,32.138-15.446l1.398,7.213c-17.294,5.258-28.35,13.653-29.101,14.063  c-2.417,1.322-4.432,0.221-5.131-0.698C156.862,124.928,156.125,122.499,158.357,120.847z M151.121,139.862  c1.915,1.127,4.023,1.907,6.245,2.288l-20.251,66.754c-2.128-0.733-4.244-1.394-6.337-1.984L151.121,139.862z M132.883,222.852  l-32.399,106.799c-0.516,1.701-2.406,2.739-4.141,2.214c-1.146-0.348-2.968-1.616-2.214-4.141l32.42-106.865  C128.64,221.443,130.755,222.106,132.883,222.852z M152.563,328.687c0,30.468-24.788,55.256-55.256,55.256  c-30.469,0-55.257-24.788-55.257-55.256c0-29.663,23.498-53.933,52.857-55.195l-15.132,49.877  c-1.421,4.683-0.934,9.638,1.373,13.954c2.307,4.315,6.156,7.475,10.841,8.896c1.73,0.525,18.761,3.155,22.848-12.213l15.128-49.867  C144.078,294.468,152.563,310.869,152.563,328.687z M142.583,242.546l4.128-13.608c4.668,2.517,9.29,5.532,13.762,9.125  l18.135,37.194C169.694,261.688,157.395,250.34,142.583,242.546z M262.755,373.234c-1.665,0.362-3.366,0.545-5.058,0.545h-0.001  c-7.093,0-13.783-3.251-18.247-8.581l-7.784-34.978c-0.717-3.366-0.079-6.81,1.794-9.696c1.874-2.887,4.76-4.871,8.127-5.587  l12.156-2.587c-8.883,4.13-15.06,13.134-15.06,23.558c0,14.32,11.65,25.97,25.97,25.97s25.971-11.65,25.971-25.97  c0-14.194-11.448-25.757-25.594-25.96l25.565-5.441c-0.194,0.997-0.379,1.996-0.549,2.999c-0.838,4.95,0.365,9.853,3.247,13.763  v45.33L262.755,373.234z M307.852,363.435v-34.702c0.022,0,0.044,0.003,0.066,0.003c4.749-0.049,8.315-1.813,9.497-2.222  c-0.016,0.723-0.028,1.447-0.028,2.173c0,11.033,1.849,21.641,5.248,31.535L307.852,363.435z M414.693,410.994  c-30.12,0-56.499-16.273-70.845-40.48l12.511-2.719c12.626,18.771,34.061,31.148,58.334,31.148  c38.739,0,70.256-31.517,70.256-70.256c0-36.281-27.644-66.224-62.975-69.879v-12.087c41.984,3.7,75.026,39.037,75.026,81.966  C497,374.071,460.077,410.994,414.693,410.994z"/>
<g>
</g>
<g>
</g>
<g>
</g>
<g>
</g>
<g>
</g>
<g>
</g>
<g>
</g>
<g>
</g>
<g>
</g>
<g>
</g>
<g>
</g>
<g>
</g>
<g>
</g>
<g>
</g>
<g>
</g>
</svg>
