<?xml version="1.0" encoding="iso-8859-1"?>
<!-- Generator: Adobe Illustrator 19.0.0, SVG Export Plug-In . SVG Version: 6.00 Build 0)  -->
<svg xmlns="http://www.w3.org/2000/svg" xmlns:xlink="http://www.w3.org/1999/xlink" version="1.1" id="Layer_1" x="0px" y="0px" viewBox="0 0 512.002 512.002" style="enable-background:new 0 0 512.002 512.002;" xml:space="preserve">
<rect x="468.458" y="172.498" transform="matrix(-0.9912 -0.1326 0.1326 -0.9912 919.8392 475.0739)" style="fill:#3E3D42;" width="14.56" height="68.823"/>
<path style="fill:#004FAC;" d="M502.031,182.205l2.382-18.095c0.911-6.918-5.181-12.718-12.046-11.469l-35.744,6.5  c-5.593,1.017-9.658,5.888-9.658,11.573v8.678c0,6.496,5.266,11.762,11.762,11.762h33.099  C496.992,191.154,501.357,187.326,502.031,182.205z"/>
<path style="fill:#00479B;" d="M475.712,165.774c0-3.91,1.163-7.581,3.164-10.679l-22.253,4.047  c-5.593,1.017-9.658,5.888-9.658,11.573v8.677c0,6.496,5.266,11.762,11.762,11.762h20.241c-2.054-3.111-3.257-6.833-3.257-10.84  L475.712,165.774L475.712,165.774z"/>
<path style="fill:#005ECE;" d="M488.535,287.241l7.738-57.627c1.779-13.251-8.527-25.034-21.898-25.034h-32.431l-10.108-17.227  c-18.07-30.796-51.103-49.712-86.809-49.712h-45.008c-28.428,0-55.53,12.022-74.61,33.095l-16.126,17.811  c-12.149,13.418-29.1,21.502-47.172,22.498l-92.928,5.119c-39.657,1.214-53.345,31.328-53.345,31.328  c-8.446,13.356-10.592,29.751-5.869,44.83l3.271,10.445c3.849,12.29,15.234,20.655,28.112,20.655h405.822  C468.075,323.419,485.754,307.956,488.535,287.241z"/>
<g>
	<path style="fill:#004FAC;" d="M106.078,302.87c-7.082-22.616-3.863-47.201,8.802-67.232c0,0,5.186-11.402,17.89-22.979   l-63.586,3.503c-39.657,1.215-53.345,31.328-53.345,31.328c-8.446,13.356-10.592,29.751-5.869,44.83l3.271,10.445   c3.849,12.29,15.234,20.655,28.112,20.655h71.487c-0.707-1.577-1.329-3.206-1.855-4.885L106.078,302.87z"/>
	<path style="fill:#004FAC;" d="M255.897,175.007l-40.674,43.901c-11.143,12.027-17.333,27.818-17.333,44.213v43.858h135.017   l22.271-45.438c5.313-10.839,6.749-23.173,4.07-34.943l-8.339-36.635L255.897,175.007z"/>
</g>
<path style="fill:#00479B;" d="M253.249,224.51l40.364-43.566l-37.716-5.937l-40.674,43.901  c-11.143,12.027-17.333,27.818-17.333,44.213v43.858h38.027v-38.257C235.916,252.327,242.107,236.537,253.249,224.51z"/>
<path style="fill:#003F8A;" d="M477.742,292.32H25.518c-8.553,0-15.55,6.998-15.55,15.55c0,8.552,6.997,15.55,15.55,15.55h452.225  c8.553,0,15.55-6.997,15.55-15.55C493.292,299.317,486.295,292.32,477.742,292.32z"/>
<path style="fill:#003068;" d="M106.078,302.87c-1.089-3.478-1.933-7.003-2.538-10.55H25.518c-8.553,0-15.55,6.998-15.55,15.55  c0,8.552,6.997,15.55,15.55,15.55h87.321c-0.707-1.577-1.329-3.206-1.855-4.885L106.078,302.87z"/>
<path style="fill:#D1E7F8;" d="M424.422,212.042c2.788,4.752,7.886,7.671,13.395,7.671h10.894c5.948,0,11.651-2.374,15.842-6.594  l8.481-8.54h-31.089l-10.108-17.226c-18.071-30.796-51.104-49.712-86.81-49.712H300.02c-28.428,0-55.53,12.022-74.611,33.095  l-16.126,17.811c-12.149,13.418-29.1,21.502-47.172,22.498l-83.481,4.599l10.466,6.91c7.13,4.708,15.587,6.996,24.118,6.526  l64.775-3.569c16.207-0.893,31.407-8.142,42.302-20.175l14.46-15.97c17.11-18.897,41.414-29.678,66.905-29.678h40.36  c32.018,0,61.639,16.963,77.843,44.577L424.422,212.042z"/>
<path style="fill:#B9D8F4;" d="M132.77,212.658l-54.14,2.983l10.466,6.91c7.13,4.708,15.587,6.996,24.118,6.526l5.664-0.312  C121.753,224.439,126.28,218.573,132.77,212.658z"/>
<path style="fill:#2D2D30;" d="M255.897,175.007l-17.342,18.701c-5.828,6.285-1.371,16.497,7.2,16.497h94.108  c6.101,0,11.047-4.946,11.047-11.047v-22.286c0-9.491-7.694-17.184-17.184-17.184h-42.728  C277.675,159.687,264.955,165.239,255.897,175.007z"/>
<path style="fill:#FFEB99;" d="M11.222,256.654h30.831c9.321,0,17.915-5.032,22.477-13.16l1.841-3.28  c3.205-5.709-0.898-12.761-7.445-12.798l-25.014-0.139c-12.969,9.015-18.076,20.211-18.076,20.211  C13.989,250.412,12.461,253.486,11.222,256.654z"/>
<circle style="fill:#C6C5CA;" cx="379.936" cy="197.177" r="9.707"/>
<circle style="fill:#FFFFFF;" cx="300.697" cy="250.516" r="19.985"/>
<circle style="fill:#3E3D42;" cx="138.769" cy="323.325" r="50.938"/>
<path style="fill:#2D2D30;" d="M138.769,359.703c-20.06,0-36.379-16.319-36.379-36.379c0-20.06,16.319-36.378,36.379-36.378  s36.379,16.319,36.379,36.378C175.147,343.383,158.828,359.703,138.769,359.703z"/>
<path style="fill:#C6C5CA;" d="M138.769,345.142c-12.03,0-21.818-9.788-21.818-21.818c0-12.03,9.788-21.818,21.818-21.818  s21.818,9.787,21.818,21.818C160.587,335.355,150.799,345.142,138.769,345.142z"/>
<path style="fill:#ACABB1;" d="M138.769,323.419c0-8.092,4.431-15.163,10.992-18.93c-3.23-1.892-6.985-2.983-10.992-2.983  c-12.03,0-21.818,9.787-21.818,21.818c0,12.031,9.788,21.818,21.818,21.818c3.939,0,7.633-1.054,10.826-2.888  C143.126,338.464,138.769,331.443,138.769,323.419z"/>
<circle style="fill:#3E3D42;" cx="363.386" cy="323.415" r="50.938"/>
<path style="fill:#2D2D30;" d="M363.389,359.798c-20.06,0-36.379-16.319-36.379-36.379c0-20.06,16.319-36.379,36.379-36.379  s36.379,16.319,36.379,36.379C399.768,343.479,383.448,359.798,363.389,359.798z"/>
<path style="fill:#C6C5CA;" d="M363.389,345.237c-12.03,0-21.818-9.788-21.818-21.818c0-12.03,9.788-21.818,21.818-21.818  s21.818,9.788,21.818,21.818C385.207,335.449,375.419,345.237,363.389,345.237z"/>
<path style="fill:#ACABB1;" d="M363.389,323.514c0-8.092,4.431-15.163,10.992-18.93c-3.23-1.892-6.985-2.983-10.992-2.983  c-12.03,0-21.818,9.787-21.818,21.818c0,12.03,9.788,21.818,21.818,21.818c3.939,0,7.633-1.054,10.826-2.888  C367.746,338.559,363.389,331.538,363.389,323.514z"/>
<path d="M138.768,294.007c-16.166,0-29.317,13.152-29.317,29.318c0,16.166,13.151,29.318,29.317,29.318s29.318-13.152,29.318-29.318  C168.086,307.158,154.934,294.007,138.768,294.007z M138.768,337.642c-7.895,0-14.317-6.423-14.317-14.318  s6.423-14.318,14.317-14.318c7.896,0,14.318,6.423,14.318,14.318S146.664,337.642,138.768,337.642z"/>
<path d="M363.388,294.102c-16.166,0-29.317,13.152-29.317,29.318c0,16.166,13.151,29.318,29.317,29.318  c5.109,0,10.146-1.341,14.564-3.878c3.592-2.063,4.832-6.646,2.77-10.239c-2.063-3.592-6.646-4.831-10.238-2.77  c-2.149,1.234-4.604,1.887-7.096,1.887c-7.895,0-14.317-6.423-14.317-14.318s6.423-14.318,14.317-14.318  c7.896,0,14.318,6.423,14.318,14.318c0,4.142,3.357,7.5,7.5,7.5c4.143,0,7.5-3.358,7.5-7.5  C392.707,307.253,379.554,294.102,363.388,294.102z"/>
<path d="M131.438,220.244l11.91-0.656c4.136-0.228,7.304-3.766,7.075-7.901c-0.228-4.136-3.751-7.309-7.901-7.076l-11.91,0.656  c-4.136,0.228-7.26,3.763-7.075,7.901C123.883,220.898,131.298,220.251,131.438,220.244z"/>
<path d="M507.594,151.045c-3.385-3.86-8.252-6.074-13.354-6.074c-1.07,0-2.152,0.098-3.215,0.292l-35.743,6.5  c-9.165,1.666-15.817,9.636-15.817,18.951v8.678c0,7.918,4.806,14.73,11.651,17.688h-4.877l-7.935-13.522  c-19.333-32.949-55.074-53.416-93.277-53.416h-45.008c-30.486,0-59.707,12.961-80.17,35.562l-16.126,17.811  c-10.569,11.674-25.037,18.762-40.74,19.958c-4.13,0.315-7.223,3.918-6.908,8.048c0.314,4.13,3.912,7.219,8.049,6.909  c19.549-1.49,37.561-10.314,50.718-24.848l16.126-17.81c17.625-19.465,42.793-30.629,69.051-30.629h45.008  c32.905,0,63.688,17.629,80.34,46.008l10.108,17.227c1.347,2.294,3.809,3.704,6.469,3.704h32.432c4.209,0,8.213,1.817,10.984,4.986  c2.771,3.169,4.04,7.378,3.479,11.55l-7.583,56.473c-1.146-0.176-2.319-0.267-3.513-0.267h-70.532  c-10.717-12.152-26.385-19.839-43.822-19.839c-0.525,0-1.043,0.026-1.564,0.04l0.088-0.179c6.048-12.338,7.699-26.511,4.648-39.909  l-8.151-35.812v-12.252c0-13.611-11.073-24.684-24.684-24.684h-42.73c-15.358,0-30.156,6.458-40.6,17.72l-17.342,18.701  c-0.001,0.001-0.002,0.003-0.004,0.004l0,0l-23.332,25.199c-12.466,13.456-19.331,30.968-19.331,49.31v21.699h-7.717  c-10.719-12.207-26.422-19.934-43.904-19.934s-33.186,7.727-43.904,19.934H25.517c-3.3,0-6.438,0.702-9.279,1.957  c-1.761-7.52-1.602-15.282,0.387-22.623h25.428c12.017,0,23.136-6.51,29.017-16.988l1.842-3.281  c2.819-5.021,2.773-10.991-0.122-15.968c-0.958-1.648-2.17-3.072-3.565-4.249c0.064-0.002,0.124-0.008,0.188-0.01  c0.062-0.002,40.938-2.253,40.938-2.253c4.137-0.228,7.305-3.766,7.076-7.901c-0.228-4.136-3.776-7.311-7.9-7.076l-40.667,2.24  c-41.274,1.309-57.375,30.696-59.598,35.189c-9.444,15.177-11.798,33.631-6.451,50.704l1.41,4.501  c-1.127,2.715-1.752,5.689-1.752,8.807c0,12.71,10.34,23.05,23.05,23.05H80.84c3.737,28.646,28.281,50.843,57.929,50.843  s54.192-22.198,57.929-50.843h108.751c3.695,28.691,28.261,50.938,57.941,50.938s54.246-22.248,57.941-50.938h56.413  c12.71,0,23.05-10.34,23.05-23.05c0-5.77-2.136-11.047-5.652-15.094c0.345-1.498,8.566-62.165,8.566-62.165  c1.136-8.46-1.437-16.997-7.056-23.422c-3.466-3.963-7.885-6.879-12.764-8.535h7.94c8.896,0,16.479-6.651,17.64-15.47l2.382-18.094  C512.517,160.01,510.967,154.891,507.594,151.045z M343.41,176.871v22.287c0,1.956-1.591,3.547-3.547,3.547h-39.17v-35.518h33.033  C339.066,167.187,343.41,171.531,343.41,176.871z M261.395,180.106c6.503-7.013,15.325-11.459,24.737-12.611v35.209h-22.847v-2.682  c0-4.021-3.259-7.28-7.28-7.28c-4.021,0-7.28,3.26-7.28,7.28v2.682h-2.972c-2.915,0-2.554-2.977-1.7-3.897L261.395,180.106z   M205.389,263.121c0-14.55,5.446-28.442,15.336-39.118l11.656-12.589c3.221,3.958,8.028,6.29,13.373,6.29h2.972v3.988  c0,4.021,3.259,7.28,7.28,7.28s7.28-3.26,7.28-7.28v-3.988h76.576c3.316,0,6.424-0.885,9.12-2.416l2.953,12.976  c2.291,10.063,1.051,20.709-3.492,29.978l-5.028,10.259c-9.271,3.382-17.442,9.055-23.85,16.321H205.389V263.121z M309.946,299.819  c-2.232,5.036-3.769,10.442-4.498,16.1H196.721c-0.719-5.657-2.245-11.063-4.467-16.1H309.946z M36.251,234.791l22.635,0.126  c1.997,0.207-0.896,4.907-0.896,4.907c-3.23,5.755-9.337,9.33-15.937,9.33H23.428C24.996,246.398,28.983,240.325,36.251,234.791z   M17.468,307.87c0-4.439,3.611-8.05,8.05-8.05h59.764c-2.222,5.037-3.748,10.443-4.467,16.1H25.517  C21.079,315.919,17.468,312.308,17.468,307.87z M138.768,366.763c-23.952,0-43.438-19.487-43.438-43.438  c0-23.952,19.487-43.439,43.438-43.439s43.438,19.487,43.438,43.439C182.206,347.276,162.721,366.763,138.768,366.763z   M363.388,366.858c-23.952,0-43.438-19.487-43.438-43.438c0-23.952,19.487-43.439,43.438-43.439s43.438,19.487,43.438,43.439  C406.827,347.371,387.341,366.858,363.388,366.858z M477.743,315.919H421.33c-0.729-5.659-2.266-11.064-4.498-16.1h60.911  c4.438,0,8.05,3.611,8.05,8.05C485.793,312.308,482.181,315.919,477.743,315.919z M496.977,163.131l-2.382,18.096  c-0.183,1.384-1.372,2.427-2.769,2.427h-33.099c-2.351,0-4.263-1.912-4.263-4.262v-8.678c0-2.061,1.472-3.825,3.5-4.193  c0,0,36.103-6.55,36.275-6.55c0.782,0,1.538,0.352,2.075,0.964C496.693,161.364,497.114,162.094,496.977,163.131z"/>
<path d="M67.484,263.603c-4.021,0-7.28,3.26-7.28,7.28c0,4.02,3.259,7.28,7.28,7.28h14.122c4.021,0,7.28-3.26,7.28-7.28  c0-4.02-3.259-7.28-7.28-7.28H67.484z"/>
<g>
</g>
<g>
</g>
<g>
</g>
<g>
</g>
<g>
</g>
<g>
</g>
<g>
</g>
<g>
</g>
<g>
</g>
<g>
</g>
<g>
</g>
<g>
</g>
<g>
</g>
<g>
</g>
<g>
</g>
</svg>
