<?xml version="1.0" encoding="iso-8859-1"?>
<!-- Generator: Adobe Illustrator 19.0.0, SVG Export Plug-In . SVG Version: 6.00 Build 0)  -->
<svg xmlns="http://www.w3.org/2000/svg" xmlns:xlink="http://www.w3.org/1999/xlink" version="1.1" id="Layer_1" x="0px" y="0px" viewBox="0 0 511.999 511.999" style="enable-background:new 0 0 511.999 511.999;" xml:space="preserve">
<path style="fill:#2D2D30;" d="M478.498,335.597h-19.761c-14.3,0-26-11.7-26-26v-12.383c0-14.3,11.7-26,26-26h19.761  c14.3,0,26,11.7,26,26v12.383C504.498,323.897,492.798,335.597,478.498,335.597z"/>
<path style="fill:#1D1D1F;" d="M484.378,271.74c-1.654-0.344-3.366-0.526-5.118-0.526h-21.284  c-13.881,0-25.238,11.357-25.238,25.238v13.907c0,13.881,11.357,25.238,25.238,25.238h21.284c1.752,0,3.464-0.182,5.118-0.526  V271.74z"/>
<rect x="221.016" y="212.133" transform="matrix(-0.9353 0.3539 -0.3539 -0.9353 567.4093 342.638)" style="fill:#2D2D30;" width="62.722" height="22.13"/>
<g>
	<path style="fill:#3E3D42;" d="M295.416,241.676L295.416,241.676c-6.037,2.285-12.846-0.786-15.131-6.823l-14.242-37.635   c-2.285-6.037,0.786-12.846,6.823-15.131l0,0c6.037-2.285,12.846,0.786,15.131,6.823l14.242,37.635   C304.524,232.583,301.453,239.392,295.416,241.676z"/>
	<path style="fill:#3E3D42;" d="M448.498,331.433L448.498,331.433c-6.086,0-11.066-4.98-11.066-11.066V132.946   c0-6.086,4.98-11.066,11.066-11.066l0,0c6.086,0,11.066,4.98,11.066,11.066v187.422   C459.564,326.454,454.584,331.433,448.498,331.433z"/>
</g>
<path style="fill:#2D2D30;" d="M287.875,284.626l17.798-15.199c8.392-7.167,18.588-11.896,29.48-13.673l39.672-6.472  c11.403-1.86,21.76-7.747,29.193-16.592l34.232-40.736c7.248-8.625,21.314-3.5,21.314,7.766v124.475H287.875V284.626z"/>
<path style="fill:#1D1D1F;" d="M331.828,300.489c8.392-7.167,18.588-11.896,29.48-13.673l39.673-6.472  c11.402-1.86,21.76-7.747,29.193-16.592l29.39-34.974V199.72c0-11.266-14.066-16.391-21.314-7.766l-34.232,40.736  c-7.433,8.845-17.79,14.732-29.193,16.592l-39.672,6.472c-10.892,1.777-21.088,6.506-29.48,13.673l-17.798,15.199v39.569h26.156  v-8.506L331.828,300.489z"/>
<path style="fill:#FF0C38;" d="M226.174,226.95l18.991,10.734c7.554,4.27,12.961,11.524,14.895,19.983l7.695,33.666h-41.581  L226.174,226.95L226.174,226.95z"/>
<path style="fill:#FF3F62;" d="M41.296,331.433v-46.102c0-7.493,1.961-14.855,5.689-21.354l13.338-23.255  c5.247-9.148,13.678-16.045,23.686-19.374L222.7,175.215c10.547-3.508,21.039,5.463,19.21,16.427l-11.01,66.029  c-1.199,7.188-0.842,14.549,1.046,21.587l13.993,52.176L41.296,331.433L41.296,331.433z"/>
<path style="fill:#FF0C38;" d="M105.847,245.597l17.164-29.927c1.996-3.481,4.359-6.7,7.018-9.63l-46.02,15.308  c-10.007,3.329-18.439,10.225-23.686,19.374l-13.338,23.255c-3.728,6.5-5.689,13.862-5.689,21.355v46.102h57.23v-58.355  C98.526,263.436,101.05,253.961,105.847,245.597z"/>
<path style="fill:#D1E7F8;" d="M298.502,275.286h-74.878c-11,0-20,9-20,20v26.967c0,11,9,20,20,20h74.878c11,0,20-9,20-20v-26.967  C318.502,284.286,309.502,275.286,298.502,275.286z"/>
<path style="fill:#B9D8F4;" d="M252.378,322.84v-28.139c0-10.678,8.736-19.414,19.414-19.414h-48.754  c-10.678,0-19.414,8.736-19.414,19.414v28.139c0,10.678,8.736,19.414,19.414,19.414h48.754  C261.114,342.254,252.378,333.518,252.378,322.84z"/>
<path style="fill:#D1E7F8;" d="M239.238,207.666l-66.19,29.133c-8.591,3.781-6.93,16.437,2.346,17.872l54.895,8.497  c0,0,0.167-3.144,0.61-5.497L239.238,207.666z"/>
<path style="fill:#B9D8F4;" d="M235.762,228.508l3.475-20.842l-66.19,29.132c-8.591,3.781-6.93,16.437,2.346,17.872L235.762,228.508  z"/>
<circle style="fill:#3E3D42;" cx="153.05" cy="335.601" r="54.52"/>
<path style="fill:#898890;" d="M153.049,360.999c-14.007,0-25.402-11.395-25.402-25.402c0-14.007,11.395-25.402,25.402-25.402  s25.402,11.395,25.402,25.402C178.451,349.604,167.056,360.999,153.049,360.999z"/>
<path style="fill:#787680;" d="M153.049,335.597c0-9.382,5.116-17.586,12.701-21.985c-3.739-2.169-8.076-3.417-12.701-3.417  c-14.007,0-25.402,11.395-25.402,25.402c0,14.007,11.395,25.402,25.402,25.402c4.625,0,8.962-1.249,12.701-3.417  C158.165,353.182,153.049,344.978,153.049,335.597z"/>
<circle style="fill:#3E3D42;" cx="368.55" cy="335.601" r="54.52"/>
<path style="fill:#898890;" d="M368.554,360.999c-14.007,0-25.402-11.395-25.402-25.402c0-14.007,11.395-25.402,25.402-25.402  c14.007,0,25.403,11.395,25.403,25.402C393.957,349.604,382.561,360.999,368.554,360.999z"/>
<path style="fill:#787680;" d="M368.554,335.597c0-9.382,5.116-17.586,12.701-21.985c-3.739-2.169-8.076-3.417-12.701-3.417  c-14.007,0-25.402,11.395-25.402,25.402c0,14.007,11.395,25.402,25.402,25.402c4.625,0,8.962-1.249,12.701-3.417  C373.67,353.182,368.554,344.978,368.554,335.597z"/>
<path style="fill:#57565C;" d="M469.624,308.77h-19.956c-10.884,0-21.514,3.826-29.579,11.135  c-13.639,12.36-31.722,19.901-51.535,19.901c-19.812,0-37.895-7.54-51.534-19.901c-8.065-7.309-18.695-11.135-29.579-11.135h-53.278  c-10.884,0-21.514,3.826-29.579,11.135c-13.639,12.36-31.722,19.901-51.535,19.901c-19.812,0-37.895-7.54-51.534-19.901  c-8.065-7.309-18.695-11.135-29.579-11.135H24.94c-10.832,0-19.043,9.773-17.176,20.443l3.286,18.778  c1.46,8.344,8.706,14.431,17.176,14.431h441.398c8.149,0,14.755-6.606,14.755-14.754v-24.144  C484.378,315.376,477.772,308.77,469.624,308.77z"/>
<path style="fill:#3E3D42;" d="M86.032,326.724c-0.935-5.342-0.045-10.518,2.171-14.96c-5.147-1.976-10.672-2.994-16.267-2.994  H24.94c-10.832,0-19.043,9.773-17.176,20.443l3.286,18.778c1.46,8.344,8.705,14.431,17.176,14.431H94.54  c-1.942-2.807-3.32-6.053-3.94-9.597L86.032,326.724z"/>
<path d="M335.143,263.255c0.401,0,0.808-0.032,1.217-0.099l9.684-1.58c4.088-0.667,6.862-4.522,6.195-8.61  c-0.667-4.089-4.526-6.858-8.61-6.195l-9.684,1.58c-4.088,0.667-6.862,4.522-6.195,8.61  C328.351,260.642,331.533,263.255,335.143,263.255z"/>
<path d="M479.26,263.713h-12.196V132.946c0-10.237-8.329-18.566-18.566-18.566s-18.566,8.329-18.566,18.566v57.249l-31.656,37.671  c-6.274,7.467-15.032,12.444-24.658,14.015l-9.906,1.616c-4.088,0.667-6.862,4.522-6.195,8.61c0.667,4.088,4.522,6.86,8.61,6.195  l9.906-1.616c13.167-2.148,25.145-8.957,33.727-19.169l34.232-40.736c1.859-2.211,4.162-1.684,5.066-1.354  c0.904,0.33,3.006,1.407,3.006,4.295l0,0v101.55h-2.396c-9.162,0-17.961,2.31-25.617,6.614  c-10.38-20.819-31.729-34.312-55.497-34.312c-16.372,0-31.573,6.389-42.848,17.153c-1.134-7.627-5.477-14.22-11.611-18.356  c1.75-1.254,3.567-2.414,5.454-3.444c3.636-1.984,4.975-6.54,2.991-10.176c-1.984-3.636-6.54-4.976-10.176-2.991  c-4.111,2.243-8.001,4.923-11.562,7.964l-4.757,4.063h-25.978l-2.695-11.791c-1.329-5.813-3.998-11.182-7.704-15.718l12.816-4.85  c0,0,7.765,19.537,25.588,13.264c10.005-3.522,14.937-14.879,11.183-24.8l-14.242-37.635c-2.813-7.431-10.055-12.424-18.021-12.424  c-2.321,0-4.635,0.333-6.779,1.241c-17.834,7.552-10.87,25.626-10.87,25.626l-12.102,4.58l2.068-12.403  c1.295-7.766-1.504-15.457-7.488-20.574c-5.984-5.117-14.018-6.689-21.488-4.204L81.641,214.231  c-11.771,3.915-21.652,11.998-27.824,22.759L40.48,260.245c-4.373,7.623-6.684,16.297-6.684,25.086v15.939H24.94  c-7.384,0-14.343,3.242-19.093,8.896s-6.744,13.067-5.471,20.34l3.286,18.778c2.093,11.958,12.424,20.638,24.564,20.638h73.167  c11.443,17.199,30.795,27.697,51.657,27.697c20.728,0,40.216-10.535,51.655-27.697h112.191  c11.441,17.172,30.899,27.697,51.659,27.697c20.981,0,40.118-10.31,51.662-27.697h49.407c12.271,0,22.255-9.983,22.255-22.254v-7.12  c11.949-5.026,20.12-16.881,20.12-30.191V296.45C511.998,278.4,497.311,263.713,479.26,263.713z M444.932,180.29v-47.344  c0-1.933,1.633-3.566,3.566-3.566s3.566,1.633,3.566,3.566V180.7C449.682,180.118,447.272,179.988,444.932,180.29z M368.554,288.573  c18.962,0,35.901,11.319,43.249,28.523c-3.791,3.036-7.857,5.653-12.138,7.811c-4.448-12.91-16.71-22.213-31.111-22.213  s-26.662,9.304-31.11,22.214c-4.021-2.027-8.854-4.938-12.446-7.741C324.998,317.167,335.831,288.573,368.554,288.573z   M385.606,330.158c-5.529,1.406-11.249,2.148-17.053,2.148c-5.803,0-11.523-0.742-17.052-2.148  c2.308-7.22,9.077-12.464,17.052-12.464C376.529,317.694,383.298,322.939,385.606,330.158z M211.124,306.521v-11.82  c0-6.569,5.345-11.914,11.914-11.914h76.05c6.569,0,11.914,5.345,11.914,11.914v12.09c-7.159-3.599-15.208-5.521-23.561-5.521  h-53.278C226.014,301.27,218.15,303.091,211.124,306.521z M223.812,254.577l-47.271-7.317c-0.346-0.054-1.399-0.217-1.584-1.621  c-0.184-1.404,0.792-1.833,1.112-1.975l53.488-23.542L223.812,254.577z M237.743,267.787c-0.119-2.964,0.063-5.935,0.554-8.882  l2.512-15.067c0,0,9.563,5.788,11.939,15.501l1.931,8.448H237.743z M275.521,189.103c0.474-0.18,3.852-0.978,5.461,2.462  l14.242,37.635c1.148,3.175-1.417,5.065-2.463,5.461c-0.474,0.18-3.388,1.463-5.461-2.462l-14.242-37.636  C272.248,191.25,274.474,189.498,275.521,189.103z M264.65,214.728l2.524,6.67l-21.311,8.065l-2.428-1.372l0.949-5.694  L264.65,214.728z M48.796,285.331c0-6.174,1.624-12.268,4.695-17.623l13.337-23.255c4.336-7.56,11.278-13.238,19.547-15.989  l138.691-46.133c3.511-1.167,6.068,0.569,7.005,1.37c0.937,0.801,3.049,3.058,2.44,6.707l-2.005,12.026l-62.48,27.5  c-6.932,3.051-10.928,10.146-9.941,17.656c0.986,7.51,6.677,13.333,14.162,14.492l42.177,6.529  c-10.542,2.674-18.617,11.587-20.061,22.561c-11.323-11.036-26.724-17.599-43.313-17.599c-17.965,0-35.034,7.782-46.828,21.352  c-2.717,3.126-2.386,7.863,0.741,10.581c3.125,2.718,7.863,2.385,10.581-0.741c8.944-10.29,21.886-16.192,35.507-16.192  c31.449,0,43.075,28.66,43.075,28.66c-3.742,2.978-7.748,5.549-11.965,7.674c-4.448-12.91-16.709-22.214-31.11-22.214  s-26.662,9.304-31.11,22.214c-5.529-2.787-10.711-6.321-15.388-10.56c-9.306-8.434-21.599-13.078-34.616-13.078h-23.14  L48.796,285.331L48.796,285.331z M170.101,330.158c-5.529,1.406-11.249,2.148-17.052,2.148c-5.803,0-11.523-0.742-17.052-2.148  c2.308-7.22,9.076-12.464,17.052-12.464C161.024,317.694,167.793,322.939,170.101,330.158z M153.049,382.62  c-12.098,0-23.516-4.672-32.107-12.697h64.184C176.515,377.936,165.063,382.62,153.049,382.62z M368.554,382.62  c-12.032,0-23.475-4.682-32.082-12.697h64.242C392.122,378.012,380.753,382.62,368.554,382.62z M476.878,347.668  c0,4-3.254,7.254-7.255,7.254H28.226c-4.838,0-8.955-3.459-9.789-8.224l-3.286-18.778c-0.507-2.898,0.288-5.853,2.18-8.105  c1.893-2.253,4.666-3.545,7.608-3.545h46.996c9.286,0,18.001,3.265,24.542,9.192c15.543,14.086,35.633,21.844,56.571,21.844  s41.028-7.758,56.571-21.844c6.541-5.928,15.257-9.192,24.542-9.192h53.278c9.286,0,18.001,3.265,24.542,9.192  c15.543,14.086,35.633,21.844,56.57,21.844c20.938,0,41.028-7.757,56.572-21.844c6.541-5.928,15.257-9.192,24.542-9.192h19.956  c4,0,7.255,3.254,7.255,7.254v24.144H476.878z M496.998,310.358c0,4.774-1.946,9.199-5.138,12.439  c-0.386-11.935-10.209-21.527-22.236-21.527h-2.56v-22.557h12.196c9.781,0,17.738,7.958,17.738,17.738L496.998,310.358  L496.998,310.358z"/>
<g>
</g>
<g>
</g>
<g>
</g>
<g>
</g>
<g>
</g>
<g>
</g>
<g>
</g>
<g>
</g>
<g>
</g>
<g>
</g>
<g>
</g>
<g>
</g>
<g>
</g>
<g>
</g>
<g>
</g>
</svg>
