<?xml version="1.0" encoding="iso-8859-1"?>
<!-- Generator: Adobe Illustrator 19.0.0, SVG Export Plug-In . SVG Version: 6.00 Build 0)  -->
<svg xmlns="http://www.w3.org/2000/svg" xmlns:xlink="http://www.w3.org/1999/xlink" version="1.1" id="Layer_1" x="0px" y="0px" viewBox="0 0 512 512" style="enable-background:new 0 0 512 512;" xml:space="preserve">
<rect x="386.99" y="224.27" style="fill:#3E3D42;" width="90.98" height="90.98"/>
<path style="fill:#2D2D30;" d="M452.694,133.294H230.308c-13.957,0-25.271,11.314-25.271,25.271v222.386  c0,13.957,11.314,25.271,25.271,25.271h222.386c13.957,0,25.271-11.314,25.271-25.271V158.566  C477.965,144.609,466.651,133.294,452.694,133.294z"/>
<g>
	<path style="fill:#96C8EF;" d="M296.013,133.294h-65.705c-13.957,0-25.271,11.314-25.271,25.271v65.705h90.976V133.294z"/>
	<rect x="296.01" y="224.27" style="fill:#96C8EF;" width="90.98" height="90.98"/>
	<path style="fill:#96C8EF;" d="M452.694,133.294h-65.705v90.976h90.976v-65.705C477.965,144.608,466.651,133.294,452.694,133.294z"/>
	<path style="fill:#96C8EF;" d="M205.036,315.247v65.705c0,13.957,11.314,25.271,25.271,25.271h65.705v-90.976H205.036z"/>
	<path style="fill:#96C8EF;" d="M386.989,406.223h65.705c13.957,0,25.271-11.314,25.271-25.271v-65.705h-90.976V406.223z"/>
</g>
<path style="fill:#5AAAE7;" d="M205.036,307.153v73.799c0,13.957,11.314,25.271,25.271,25.271l75.81-99.07H205.036z"/>
<polygon style="fill:#3D9AE2;" points="205.036,352.1 271.724,352.1 306.118,307.153 205.036,307.153 "/>
<path style="fill:#D1E7F8;" d="M287.589,42.318H65.203c-13.957,0-25.271,11.314-25.271,25.271v222.386  c0,13.957,11.314,25.271,25.271,25.271h222.386c13.957,0,25.271-11.314,25.271-25.271V67.589  C312.859,53.632,301.546,42.318,287.589,42.318z"/>
<path style="fill:#B9D8F4;" d="M162.671,42.318H65.203c-13.957,0-25.271,11.314-25.271,25.271v222.386  c0,13.957,11.314,25.271,25.271,25.271h97.468V42.318z"/>
<path style="fill:#2D2D30;" d="M130.908,42.318H65.203c-13.957,0-25.271,11.314-25.271,25.271v65.705h90.976V42.318z"/>
<g>
	<rect x="130.91" y="133.29" style="fill:#3E3D42;" width="90.98" height="90.98"/>
	<path style="fill:#3E3D42;" d="M287.589,42.318h-65.705v90.976h90.976V67.589C312.859,53.632,301.546,42.318,287.589,42.318z"/>
</g>
<path style="fill:#2D2D30;" d="M39.931,224.271v65.705c0,13.957,11.314,25.271,25.271,25.271h65.705v-90.976L39.931,224.271  L39.931,224.271z"/>
<path style="fill:#3E3D42;" d="M221.884,315.247h65.705c13.957,0,25.271-11.314,25.271-25.271v-65.705h-90.976L221.884,315.247  L221.884,315.247z"/>
<path style="fill:#1D1D1F;" d="M50.04,7.5L50.04,7.5c-8.803,0-16.005,7.202-16.005,16.005v464.99  c0,8.803,7.202,16.005,16.005,16.005l0,0c8.803,0,16.005-7.202,16.005-16.005V23.505C66.045,14.702,58.843,7.5,50.04,7.5z"/>
<rect x="130.91" y="133.29" style="fill:#2D2D30;" width="31.763" height="90.98"/>
<path d="M34.035,419.783c4.142,0,7.5-3.358,7.5-7.5v-16.987c0-4.142-3.358-7.5-7.5-7.5s-7.5,3.358-7.5,7.5v16.987  C26.535,416.425,29.893,419.783,34.035,419.783z"/>
<path d="M452.694,125.794H337.539c-4.142,0-7.5,3.358-7.5,7.5s3.358,7.5,7.5,7.5h41.95v75.976h-59.129V67.589  c0-18.07-14.701-32.771-32.771-32.771H73.545V23.505C73.545,10.544,63,0,50.04,0S26.535,10.544,26.535,23.505v350.193  c0,4.142,3.358,7.5,7.5,7.5c4.142,0,7.5-3.358,7.5-7.5V23.505c0-4.689,3.815-8.505,8.505-8.505c4.689,0,8.505,3.815,8.505,8.505  v464.99c0,4.689-3.815,8.505-8.505,8.505c-4.689,0-8.505-3.815-8.505-8.505v-54.856c0-4.142-3.358-7.5-7.5-7.5s-7.5,3.358-7.5,7.5  v54.856c0,12.96,10.544,23.505,23.505,23.505c12.96,0,23.505-10.544,23.505-23.505V322.747h123.992v58.205  c0,18.07,14.701,32.771,32.771,32.771h222.387c18.07,0,32.771-14.701,32.771-32.771V158.565  C485.465,140.496,470.764,125.794,452.694,125.794z M394.489,140.794h58.206c9.799,0,17.771,7.972,17.771,17.771v58.205h-75.977  V140.794z M470.465,231.771v75.977h-75.977v-75.977H470.465z M379.489,231.771v75.977h-64.387  c3.321-5.124,5.259-11.224,5.259-17.771v-58.206H379.489z M205.046,307.747c-0.003,0-0.006,0-0.01,0s-0.006,0-0.01,0h-66.619V231.77  h75.976v75.977H205.046z M138.408,140.794h75.976v75.976h-75.976V140.794z M123.408,216.771H73.545v-75.976h49.863V216.771z   M138.408,125.794V49.818h75.976v75.976H138.408z M229.384,140.794h75.977v75.976h-75.977V140.794z M229.384,231.771h75.977v58.206  c0,9.799-7.972,17.771-17.771,17.771h-58.205L229.384,231.771L229.384,231.771z M288.575,342.42v56.303H245.49L288.575,342.42z   M303.575,322.818l0.054-0.07h75.86v75.976h-75.914V322.818z M305.359,67.589v58.205h-75.977V49.818h58.205  C297.388,49.818,305.359,57.791,305.359,67.589z M123.408,49.818v75.976H73.545V49.818H123.408z M73.545,231.771h49.863v75.977  H73.545V231.771z M212.537,380.952v-58.205h72.205l-57.878,75.635C218.709,396.773,212.537,389.573,212.537,380.952z   M452.694,398.723h-58.206v-75.976h75.977v58.205C470.465,390.751,462.493,398.723,452.694,398.723z"/>
<g>
</g>
<g>
</g>
<g>
</g>
<g>
</g>
<g>
</g>
<g>
</g>
<g>
</g>
<g>
</g>
<g>
</g>
<g>
</g>
<g>
</g>
<g>
</g>
<g>
</g>
<g>
</g>
<g>
</g>
</svg>
