<?xml version="1.0" encoding="iso-8859-1"?>
<!-- Generator: Adobe Illustrator 19.0.0, SVG Export Plug-In . SVG Version: 6.00 Build 0)  -->
<svg xmlns="http://www.w3.org/2000/svg" xmlns:xlink="http://www.w3.org/1999/xlink" version="1.1" id="Layer_1" x="0px" y="0px" viewBox="0 0 512.001 512.001" style="enable-background:new 0 0 512.001 512.001;" xml:space="preserve">
<circle style="fill:#ACABB1;" cx="97.31" cy="328.14" r="30.14"/>
<path style="fill:#E0E0E2;" d="M97.306,243.742c40.584,0,74.56,28.797,82.591,67.028l11.253-3.249  c8.627-2.491,13.151-11.875,9.85-20.226c-16.326-41.307-56.652-70.604-103.693-70.604c-20.207,0-39.173,5.409-55.531,14.853  c-6.859,3.96-9.407,12.614-5.924,19.727l6.371,13.007C57.017,251.498,76.267,243.742,97.306,243.742z"/>
<path style="fill:#3E3D42;" d="M97.306,238.332c-49.599,0-89.806,40.208-89.806,89.806c0,49.599,40.208,89.806,89.806,89.806  s89.806-40.208,89.806-89.806C187.113,278.539,146.905,238.332,97.306,238.332z M97.306,390.894  c-34.604,0-62.756-28.152-62.756-62.756s28.152-62.756,62.756-62.756s62.756,28.152,62.756,62.756S131.91,390.894,97.306,390.894z"/>
<path style="fill:#2D2D30;" d="M173.652,328.138c0-42.098-34.249-76.346-76.346-76.346S20.96,286.041,20.96,328.138  s34.249,76.346,76.346,76.346S173.652,370.235,173.652,328.138z M97.306,390.894c-34.604,0-62.756-28.152-62.756-62.756  s28.152-62.756,62.756-62.756s62.756,28.152,62.756,62.756S131.91,390.894,97.306,390.894z"/>
<circle style="fill:#ACABB1;" cx="414.69" cy="328.14" r="30.14"/>
<polygon style="fill:#D8D7DA;" points="159.574,191.043 200.818,317.998 272.951,347.573 357.394,275.439 249.609,263.458 "/>
<path style="fill:#898890;" d="M269.774,354.787c-5.482,0-11.012-0.834-16.404-2.553l-33.883-10.808  c-17.631-5.623-31.843-19.397-38.017-36.844l-41.706-117.864l20.402-7.219l41.705,117.863c3.929,11.103,12.972,19.868,24.193,23.447  l33.883,10.808c12.183,3.886,25.568,0.231,34.085-9.316l46.948-52.622l16.148,14.406l-46.948,52.622  C299.751,348.396,284.949,354.787,269.774,354.787z"/>
<g>
	<path style="fill:#C6C5CA;" d="M248.445,317.998c-2.8,0-5.598-1.08-7.717-3.234l-31.211-31.744   c-4.517-4.594-10.547-7.334-16.979-7.716l-17.608-1.044c-5.966-0.354-10.515-5.477-10.161-11.442   c0.355-5.966,5.52-10.509,11.441-10.16l17.609,1.044c11.792,0.7,22.847,5.724,31.129,14.146l31.211,31.745   c4.19,4.261,4.131,11.112-0.13,15.301C253.923,316.965,251.183,317.998,248.445,317.998z"/>
	<circle style="fill:#C6C5CA;" cx="276.69" cy="295.51" r="41.966"/>
</g>
<path style="fill:#ACABB1;" d="M267.077,297.945c0-18.535,12.022-34.253,28.689-39.809c-5.726-2.929-12.207-4.592-19.081-4.592  c-23.177,0-41.965,18.789-41.965,41.965c0,23.177,18.789,41.966,41.965,41.966c4.642,0,9.102-0.765,13.276-2.156  C276.381,328.37,267.077,314.248,267.077,297.945z"/>
<path style="fill:#2D2D30;" d="M281.247,291.669l35.555,5.861c18.402,3.033,36.92-4.712,47.683-19.943l69.056-97.725l-62.849,5.771  L281.247,291.669z"/>
<path style="fill:#1D1D1F;" d="M370.692,185.633l-89.446,106.036l35.555,5.861c1.063,0.175,2.127,0.311,3.19,0.414l56.983-72.667  c2.724-3.474,6.353-6.121,10.494-7.654l26.26-9.723l19.812-28.038L370.692,185.633z"/>
<path style="fill:#3E3D42;" d="M414.694,238.332c-49.599,0-89.806,40.208-89.806,89.806c0,49.599,40.208,89.806,89.806,89.806  c49.599,0,89.806-40.208,89.806-89.806C504.5,278.539,464.292,238.332,414.694,238.332z M414.693,390.894  c-34.604,0-62.756-28.152-62.756-62.756s28.152-62.756,62.756-62.756s62.756,28.152,62.756,62.756S449.298,390.894,414.693,390.894z  "/>
<path style="fill:#2D2D30;" d="M491.04,328.138c0-42.098-34.249-76.346-76.346-76.346s-76.346,34.249-76.346,76.346  s34.249,76.346,76.346,76.346S491.04,370.235,491.04,328.138z M414.694,390.894c-34.604,0-62.756-28.152-62.756-62.756  s28.152-62.756,62.756-62.756s62.756,28.152,62.756,62.756S449.298,390.894,414.694,390.894z"/>
<path style="fill:#D8D7DA;" d="M419.199,318.912l-112.926-69.176c-4.415,5.046-9.509,10.9-14.414,16.548l116.036,71.081  c5.095,3.122,11.756,1.522,14.878-3.574c0.571-0.933,0.984-1.919,1.247-2.926C425.191,326.375,423.361,321.462,419.199,318.912z"/>
<path style="fill:#C6C5CA;" d="M413.719,328.335l-114.713-70.271c-2.362,2.712-4.776,5.489-7.147,8.22l116.036,71.081  c5.095,3.122,11.756,1.522,14.878-3.574c0.571-0.933,0.984-1.918,1.247-2.926c0.186-0.713,0.288-1.437,0.325-2.16  C421.092,330.387,417.07,330.388,413.719,328.335z"/>
<path style="fill:#FF7956;" d="M156.233,158.994l83.924,87.359c8.555,8.906,22.5,9.79,32.112,2.036l80.324-64.795  c7.125-5.748,15.67-9.466,24.733-10.761l82.337-11.769c5.135-0.734,6.98,6.542,2.115,8.343l-81.05,30.009  c-7.505,2.779-14.092,7.584-19.03,13.881l-57.394,73.192c-6.358,8.108-16.091,12.844-26.395,12.844h-19.035  c-7.813,0-15.273-3.249-20.595-8.968l-96.614-103.832L156.233,158.994z"/>
<path style="fill:#D8D7DA;" d="M97.31,338.961c-1.041,0-2.098-0.151-3.146-0.469c-5.719-1.735-8.948-7.777-7.213-13.495  l62.268-205.255c1.734-5.719,7.779-8.947,13.495-7.213c5.719,1.735,8.948,7.777,7.213,13.495L107.66,331.279  C106.243,335.95,101.951,338.961,97.31,338.961z"/>
<path style="fill:#C6C5CA;" d="M95.689,333.609l62.268-205.255c1.607-5.302,6.92-8.455,12.241-7.507  c-0.735-3.818-3.503-7.111-7.482-8.319c-5.717-1.734-11.762,1.494-13.495,7.213L86.952,324.997  c-1.735,5.718,1.494,11.76,7.213,13.495c0.417,0.126,0.836,0.219,1.255,0.294C95.098,337.117,95.161,335.349,95.689,333.609z"/>
<path style="fill:#FFBCAB;" d="M378.653,172.644l-1.328,0.19c-9.063,1.295-17.608,5.013-24.733,10.761l-80.324,64.795  c-9.612,7.753-23.556,6.869-32.112-2.036l-49.572-51.601l0,0l12.266,57.541l35.426,38.073c5.322,5.72,12.783,8.968,20.595,8.968  h19.035c10.304,0,20.036-4.736,26.395-12.845l57.394-73.192c0.941-1.199,26.51-42.019,26.51-42.019L378.653,172.644z"/>
<circle style="fill:#C6C5CA;" cx="173.14" cy="117.17" r="23.11"/>
<circle style="fill:#ACABB1;" cx="181.69" cy="124.69" r="15.582"/>
<path d="M467.735,255.276c-2.71,3.133-2.366,7.87,0.768,10.579c3.426,2.963,6.444,6.397,9.527,9.717  c3.803,4.095,9.161,2.139,10.562,0.975c3.187-2.647,3.623-7.376,0.976-10.562c-3.42-4.115-7.206-7.977-11.254-11.476  C475.181,251.799,470.445,252.143,467.735,255.276z"/>
<path d="M501.885,284.893c-1.843-3.709-6.348-5.223-10.054-3.379c-3.71,1.843-5.223,6.344-3.38,10.054  c5.673,11.416,8.549,23.72,8.549,36.57c0,45.384-36.923,82.307-82.307,82.307s-82.306-36.922-82.306-82.307  c0-8.834,1.397-17.45,4.116-25.71l10.619,6.505c-1.773,6.225-2.685,12.663-2.685,19.206c0,38.739,31.517,70.256,70.256,70.256  s70.256-31.517,70.256-70.256s-31.517-70.256-70.256-70.256c-18.167,0-35.621,7.121-48.668,19.662l-10.608-6.498  c15.488-16.088,36.776-25.214,59.276-25.214c13.342,0,26.589,3.263,38.308,9.437c3.666,1.933,8.2,0.525,10.132-3.14  c1.931-3.665,0.524-8.201-3.14-10.131c-13.866-7.305-29.531-11.167-45.3-11.167c-2.761,0-5.506,0.118-8.23,0.347l31.863-45.09  l26.056-9.647c5.777-2.139,8.872-8.026,7.358-13.999c-1.514-5.972-7.027-9.68-13.14-8.802l-82.337,11.769  c-10.395,1.485-20.208,5.755-28.38,12.348l-80.324,64.794c-6.633,5.352-16.091,4.751-21.995-1.394l-59.53-61.968  c0.695,0.167,1.342,0.483,1.878,0.973c3.06,2.792,7.804,2.577,10.596-0.482c2.793-3.059,2.577-7.803-0.482-10.596  c-3.8-3.469-8.745-5.247-13.896-5.015c-3.495,0.159-6.791,1.249-9.639,3.103l-6.998-7.284l3.696-12.182  c0.646,0.041,3.214-0.328,3.901-0.899c2.094,0.627,4.31,0.968,6.605,0.968c12.728,0,23.082-10.354,23.082-23.082  c0-2.406-0.371-4.727-1.058-6.91c0.017-0.204-0.399-6.556-1.249-9.395c-3.841-12.855-15.902-21.833-29.33-21.833  c-16.596,0-30.14,13.279-30.588,29.77c-0.2,0.392-0.374,0.803-0.507,1.239l-28.149,92.787c-5.477-0.767-11.037-1.16-16.588-1.16  c-20.813,0-41.312,5.483-59.282,15.857c-10.216,5.897-14.129,18.865-8.908,29.521l1.404,2.867C11.739,275.188,0,300.317,0,328.138  c0,53.655,43.651,97.307,97.307,97.307c51.065,0,93.067-39.541,97.002-89.614c6.666,5.653,14.427,10.037,22.898,12.74l33.884,10.809  c6.052,1.93,12.338,2.856,18.683,2.908c25.993,0.213,48.245-23.101,48.245-23.101c5.504,48.471,46.756,86.258,96.675,86.258  c53.655,0,97.307-43.651,97.307-97.307C512,312.951,508.597,298.401,501.885,284.893z M81.148,336.773  c2.307,4.315,6.156,7.475,10.841,8.896c1.731,0.525,3.522,0.792,5.321,0.792c8.124,0,15.167-5.227,17.526-13.005l3.864-12.735  c0.813,2.352,1.242,4.852,1.242,7.417c0,12.481-10.154,22.636-22.636,22.636S74.67,340.62,74.67,328.138  c0-7.363,3.49-13.931,8.974-18.073l-3.87,12.755C78.354,327.502,78.842,332.458,81.148,336.773z M168.984,226.906l6.459,18.255  c-2.313,0.018-4.535,0.469-6.589,1.287l-11.238-31.759L168.984,226.906z M89.32,291.357c-17.163,3.679-29.649,18.818-29.649,36.78  c0,20.752,16.884,37.636,37.636,37.636s37.636-16.883,37.636-37.636c0-9.867-3.806-19.153-10.564-26.134l5.586-18.414  c14.112,10.332,22.598,26.739,22.598,44.548c0,30.468-24.788,55.256-55.256,55.256c-30.469,0-55.257-24.788-55.257-55.256  c0-29.663,23.498-53.933,52.857-55.196L89.32,291.357z M144.3,236.335c2.108,1.073,4.185,2.212,6.205,3.421  c0.027,0.016,0.057,0.027,0.084,0.043l3.229,9.126c-3.579-2.558-7.336-4.867-11.238-6.923L144.3,236.335z M175.375,266.772  c-1.828-0.108-3.227-1.684-3.119-3.509c0.107-1.797,1.688-3.219,3.511-3.12l17.609,1.044c3.039,0.18,6.053,0.708,8.961,1.563  c0,0,25.161,27.588,25.137,27.834l-12.609-12.824c-5.822-5.92-13.594-9.452-21.883-9.944L175.375,266.772z M229.49,314.03  c-19.24-5.155-21.508-21.875-21.508-21.875 M243.08,303.13c4.87,2.406,10.276,3.705,15.793,3.705h19.035  c6.936,0,13.591-1.722,19.484-4.903l12.704,2.095c-3.79,15.103-17.345,25.948-33.409,25.948  C260.301,329.974,246.56,318.478,243.08,303.13z M326.19,270.732l89.091,54.576c2.469,1.442,1.271,4.282,1.097,4.565  c-0.625,1.021-2.461,2.377-4.565,1.097l-89.747-54.978L326.19,270.732z M423.116,312.517l-11.156-6.834  c0.901-0.107,25.369,0.484,25.369,22.455c0,12.481-10.154,22.636-22.636,22.636c-9.032,0-16.843-5.32-20.472-12.989l9.755,5.976  c13.069,6.891,22.636-1.878,25.193-6.053c0.944-1.542,1.653-3.207,2.108-4.949C433.327,324.897,430.047,316.763,423.116,312.517z   M414.693,272.882c30.468,0,55.256,24.788,55.256,55.256s-24.788,55.256-55.256,55.256s-55.256-24.788-55.256-55.256  c0-3.717,0.379-7.388,1.107-10.984l16.534,10.128c-0.006,0.285-0.021,0.57-0.021,0.855c0,20.752,16.884,37.636,37.636,37.636  s37.636-16.883,37.636-37.636c0-20.752-16.884-37.635-37.636-37.635c-6.701,0-13.305,1.821-19.049,5.186l-16.282-9.974  C389.236,277.492,401.736,272.882,414.693,272.882z M385.092,235.431c-16.284,5.191-31.041,14.64-42.723,27.621l-6.86-4.203  l32.09-40.923c4.086-5.21,9.526-9.178,15.733-11.476l30.118-11.151L385.092,235.431z M234.748,251.55  c11.336,11.799,29.491,12.953,42.229,2.677l80.324-64.795c6.071-4.897,13.362-8.07,21.085-9.174l52.912-7.563l-53.175,19.688  c-8.81,3.261-16.53,8.893-22.328,16.287L298.4,281.862c-4.97,6.337-12.439,9.972-20.493,9.972h-19.035  c-5.71,0-11.215-2.397-15.105-6.577l-86.203-92.645l4.936-16.269L234.748,251.55z M181.693,132.775  c-4.456,0-8.081-3.625-8.081-8.082s3.625-8.082,8.081-8.082s8.082,3.625,8.082,8.082  C189.775,129.149,186.149,132.775,181.693,132.775z M173.139,101.556c1.35,0,2.671,0.184,3.941,0.52  c-9.992,2.036-17.651,10.549-18.4,20.946c-0.736-1.81-1.15-3.785-1.15-5.856C157.529,108.558,164.531,101.556,173.139,101.556z   M151.332,138.618c1.675,1.702,3.547,3.207,5.579,4.483l-56.427,186.001c-0.516,1.7-2.399,2.74-4.141,2.214  c-1.146-0.348-2.968-1.69-2.214-4.141L151.332,138.618z M45.524,238.04c15.693-9.06,33.599-13.848,51.782-13.848  c4.069,0,8.138,0.261,12.167,0.732l-1.959,6.459c-3.385-0.353-6.799-0.551-10.208-0.551c-20.311,0-39.186,6.259-54.805,16.944  C40.878,244.214,42.175,239.973,45.524,238.04z M97.307,410.444C51.923,410.444,15,373.522,15,328.138s36.923-82.306,82.307-82.306  c1.922,0,3.844,0.082,5.76,0.214l-3.609,11.896c-0.717-0.022-1.435-0.059-2.151-0.059c-38.74,0-70.257,31.517-70.257,70.256  s31.517,70.256,70.257,70.256c38.739,0,70.256-31.517,70.256-70.256c0-24.415-12.53-46.752-33.042-59.567l3.612-11.907  c10.327,5.914,19.32,14.032,26.268,23.79c0.286,0.402,0.613,0.756,0.958,1.084l9.039,25.545c1.211,3.421,2.712,6.707,4.444,9.851  c0.502,3.694,0.77,7.454,0.77,11.204C179.612,373.522,142.69,410.444,97.307,410.444z M255.648,345.089l-33.883-10.809  c-15.41-4.915-27.831-16.952-33.227-32.2l-7.048-19.918l7.196,0.427l6.112,17.276c4.707,13.302,15.542,23.803,28.984,28.09  l23.99,7.652c8.139,5.885,18.124,9.367,28.913,9.367c3.687,0,7.278-0.41,10.739-1.168c-5.546,2.264-11.532,3.481-17.652,3.481  C264.977,347.287,260.224,346.547,255.648,345.089z"/>
<g>
</g>
<g>
</g>
<g>
</g>
<g>
</g>
<g>
</g>
<g>
</g>
<g>
</g>
<g>
</g>
<g>
</g>
<g>
</g>
<g>
</g>
<g>
</g>
<g>
</g>
<g>
</g>
<g>
</g>
</svg>
