<?xml version="1.0" encoding="iso-8859-1"?>
<!-- Generator: Adobe Illustrator 19.0.0, SVG Export Plug-In . SVG Version: 6.00 Build 0)  -->
<svg xmlns="http://www.w3.org/2000/svg" xmlns:xlink="http://www.w3.org/1999/xlink" version="1.1" id="Layer_1" x="0px" y="0px" viewBox="0 0 512.001 512.001" style="enable-background:new 0 0 512.001 512.001;" xml:space="preserve">
<g>
	<path style="fill:#3E3D42;" d="M416.803,285.565c-47.303,0-85.787,38.484-85.787,85.787s38.484,85.786,85.787,85.786   s85.787-38.484,85.787-85.786C502.59,324.049,464.106,285.565,416.803,285.565z M416.803,427.069   c-30.722,0-55.717-24.995-55.717-55.717s24.995-55.717,55.717-55.717s55.717,24.995,55.717,55.717   C472.52,402.074,447.526,427.069,416.803,427.069z"/>
	<path style="fill:#3E3D42;" d="M105.767,260.639c-54.175,0-98.25,44.074-98.25,98.249s44.075,98.25,98.25,98.25   s98.249-44.075,98.249-98.25S159.942,260.639,105.767,260.639z M105.767,427.069c-37.594,0-68.18-30.585-68.18-68.18   c0-37.594,30.585-68.18,68.18-68.18s68.18,30.585,68.18,68.18C173.947,396.483,143.361,427.069,105.767,427.069z"/>
</g>
<g>
	<path style="fill:#2D2D30;" d="M416.803,301.602c-38.46,0-69.75,31.29-69.75,69.75s31.29,69.749,69.75,69.749   s69.75-31.29,69.75-69.749C486.553,332.893,455.263,301.602,416.803,301.602z M416.803,427.069   c-30.722,0-55.717-24.995-55.717-55.717s24.995-55.717,55.717-55.717s55.717,24.995,55.717,55.717   C472.52,402.074,447.526,427.069,416.803,427.069z"/>
	<path style="fill:#2D2D30;" d="M105.767,276.676c-45.332,0-82.213,36.881-82.213,82.212c0,45.332,36.881,82.213,82.213,82.213   s82.213-36.88,82.213-82.213C187.98,313.557,151.099,276.676,105.767,276.676z M105.767,427.069   c-37.594,0-68.18-30.585-68.18-68.18c0-37.594,30.585-68.18,68.18-68.18s68.18,30.585,68.18,68.18   C173.947,396.483,143.361,427.069,105.767,427.069z"/>
</g>
<g>
	<circle style="fill:#ACABB1;" cx="416.806" cy="371.351" r="37.357"/>
	<circle style="fill:#ACABB1;" cx="105.765" cy="358.892" r="37.357"/>
</g>
<path style="fill:#57565C;" d="M218.8,162.048l19.497-19.389c5.987-5.953,14.852-7.954,22.816-5.149l37.453,13.194  c12.123,4.271,25.076,5.648,37.826,4.024l83.116-10.589c9.31-1.186,18.631,2.099,25.14,8.86l8.713,9.05l-149.556,49.17  L218.8,162.048z"/>
<path style="fill:#3E3D42;" d="M304.998,178.504l65.55-28.128l-34.157,4.351c-12.75,1.625-25.703,0.247-37.826-4.024l-37.453-13.194  c-7.963-2.806-16.829-0.804-22.816,5.149l-19.497,19.389l66.904,38.699L304.998,178.504z"/>
<path style="fill:#FF3F62;" d="M213.464,251.584l-65.584-40.367H70.868c-9.483,0-18.667,3.312-25.968,9.364l-27.061,22.434  c-5.661,4.693-0.56,13.731,6.383,11.31l32.723-11.407c7.796-2.717,16.08-3.748,24.304-3.023l57.087,5.034l51.255,25.636  c7.384,3.694,13.899,8.914,19.113,15.314l21.888,26.867c4.645,5.701,13.725,0.678,11.364-6.286l-11.286-33.289  C227.625,264.189,221.54,256.555,213.464,251.584z"/>
<path style="fill:#FF0C38;" d="M230.67,273.17c-3.045-8.981-9.13-16.616-17.206-21.586l-65.584-40.367h-41.889l-8.146,30.141  l40.492,3.57l51.255,25.636c7.384,3.694,13.899,8.914,19.113,15.314l21.888,26.866c4.644,5.701,13.725,0.678,11.364-6.286  L230.67,273.17z"/>
<path style="fill:#D8D7DA;" d="M218.531,172.31h-11.263c-7.718,0-14.033-6.315-14.033-14.033v-11.324  c0-7.718,6.315-14.033,14.033-14.033h11.263c7.718,0,14.033,6.315,14.033,14.033v11.324  C232.563,165.996,226.249,172.31,218.531,172.31z"/>
<path style="fill:#FF728B;" d="M372.927,265.109l55.055-21.679c20.179-7.946,33.445-27.427,33.445-49.114v-25.671l-69.28,23.094  L372.927,265.109z"/>
<path style="fill:#D8D7DA;" d="M417.791,387.849c-3.035,0-6.107-0.837-8.856-2.591l-91.639-58.458  c-7.681-4.899-9.935-15.097-5.036-22.778c4.899-7.681,15.099-9.935,22.778-5.036l91.639,58.458  c7.681,4.899,9.935,15.097,5.036,22.778C428.567,385.155,423.236,387.849,417.791,387.849z"/>
<path style="fill:#C6C5CA;" d="M421.299,370.858c-3.035,0-6.107-0.837-8.856-2.591l-91.639-58.458  c-3.177-2.027-5.41-4.966-6.607-8.254c-0.708,0.749-1.361,1.569-1.936,2.47c-4.899,7.681-2.645,17.878,5.036,22.778l91.639,58.458  c2.748,1.754,5.82,2.591,8.856,2.591c5.446,0,10.777-2.695,13.922-7.627c2.871-4.5,3.269-9.86,1.575-14.517  C430.12,369.056,425.748,370.858,421.299,370.858z"/>
<path style="fill:#898890;" d="M184.766,239.806c-0.458,0.868,15.67,55.321,15.67,55.321l81.192,37.37l56.083-37.37L184.766,239.806  z"/>
<path style="fill:#ACABB1;" d="M212.9,255.515c2.199-1.646,59.195,29.124,59.195,29.124l51.931-56.611l-101.78-33.055L212.9,255.515  z"/>
<circle style="fill:#D8D7DA;" cx="288.399" cy="284.64" r="43.963"/>
<path style="fill:#ACABB1;" d="M287.681,341.951c-7.445,0-14.985-1.489-22.198-4.584l-62.196-26.691  c-11.397-4.891-19.426-15.112-21.478-27.343l-10.545-62.832l21.69-3.64l10.544,62.833c0.809,4.818,3.971,8.846,8.462,10.772  l62.196,26.69c14.56,6.247,31.334,1.734,40.792-10.975l40.336-54.201l17.644,13.13l-40.336,54.201  C321.717,333.922,304.96,341.951,287.681,341.951z"/>
<g>
	<path style="fill:#D8D7DA;" d="M168.138,213.78l5.657,33.403c1.246,7.356,4.948,14.073,10.503,19.053l21.815,19.56   c4.515,4.048,11.721,1.529,12.73-4.451l12.385-73.441L168.138,213.78z"/>
	<path style="fill:#D8D7DA;" d="M101.1,372.138c-7.317-2.024-11.608-9.596-9.584-16.913l73.678-266.417   c2.024-7.318,9.596-11.607,16.913-9.584c7.317,2.024,11.608,9.596,9.584,16.913l-73.678,266.417   C114.424,374.859,102.326,372.476,101.1,372.138z"/>
</g>
<path style="fill:#C6C5CA;" d="M106.267,357.876l73.678-266.417c1.166-4.215,4.177-7.415,7.914-8.993  c-1.576-1.485-3.521-2.624-5.753-3.242c-7.317-2.023-14.89,2.267-16.913,9.585L91.515,355.224  c-2.023,7.317,2.267,14.89,9.584,16.913c0.698,0.192,4.912,1.043,9.078-0.521C106.536,368.236,104.852,362.996,106.267,357.876z"/>
<path style="fill:#FF728B;" d="M118.014,362.553v-96.638c0-5.223-7.483-6.092-8.68-1.007l-20.697,87.933  c0,0-5.591,16.992,11.547,21.718C100.182,374.559,113.653,377.859,118.014,362.553z"/>
<path style="fill:#FF3F62;" d="M109.445,352.841l8.568-36.402v-50.523c0-5.223-7.483-6.092-8.68-1.007l-20.697,87.933  c0,0-5.591,16.992,11.547,21.718c0,0,7.691,1.878,13.331-3.806C105.773,364.008,109.445,352.841,109.445,352.841z"/>
<path style="fill:#FF728B;" d="M230.058,151.752l56.26,21.7c16.545,6.382,34.557,7.924,51.947,4.451  c35.274-7.044,100.279-19.412,159.97-27.471c6.097-0.823,8.723,7.477,3.268,10.321c-20.511,10.691-47.989,25.087-65.769,34.41  c-11.724,6.147-21.504,15.426-28.263,26.808l-14.661,24.693c-6.453,10.868-15.483,19.98-26.292,26.531l-46.058,27.914  c-6.651,4.031-13.972,6.833-21.615,8.273l-17.784,3.351c-7.754,1.461-13.362-7.237-8.831-13.697l18.689-26.65  c4.742-6.762,3.304-16.06-3.26-21.074l-33.94-25.926c-4.568-3.489-10.273-5.15-15.999-4.657l-78.604,6.768  c-10.625,0.915-18.474-9.704-14.484-19.593l15.04-37.269c2.995-7.422,9.077-13.171,16.656-15.745l11.767-3.995  C201.754,146.259,216.603,146.562,230.058,151.752z"/>
<path style="fill:#FF3F62;" d="M461.426,194.316v-25.671l-69.28,23.094l-19.22,73.37l42.087-16.572l9.696-16.33  c4.865-8.195,11.898-14.865,20.334-19.289c4.223-2.214,9.474-4.968,15.306-8.023C461.052,201.457,461.426,197.919,461.426,194.316z"/>
<path style="fill:#96C8EF;" d="M498.236,150.433c-41.223,5.566-84.976,13.186-119.725,19.689L290.92,272.386l-18.689,26.65  c-4.53,6.46,1.078,15.157,8.831,13.697l17.784-3.351c7.643-1.44,14.965-4.242,21.615-8.273l46.058-27.914  c10.809-6.551,19.839-15.663,26.292-26.531l14.661-24.692c6.759-11.382,16.537-20.661,28.262-26.808  c17.78-9.323,45.259-23.719,65.769-34.41C506.959,157.91,504.333,149.609,498.236,150.433z"/>
<path style="fill:#78B9EB;" d="M323.26,286.941l18.689-26.65l84.603-98.778c-17.039,2.91-33.35,5.859-48.042,8.608l-87.591,102.265  l-18.688,26.65c-4.53,6.46,1.078,15.157,8.831,13.697l17.783-3.351c7.643-1.44,14.965-4.242,21.615-8.273l4.166-2.525  C321.543,295.814,320.45,290.947,323.26,286.941z"/>
<circle style="fill:#C6C5CA;" cx="194.942" cy="78.722" r="23.862"/>
<circle style="fill:#ACABB1;" cx="203.772" cy="86.5" r="16.087"/>
<path style="fill:#FF3F62;" d="M304.998,178.504c-6.355-1.03-12.616-2.712-18.68-5.052l-56.26-21.7  c-13.454-5.19-28.304-5.493-41.959-0.857l-11.767,3.995c-7.58,2.573-13.661,8.321-16.656,15.745l-15.04,37.269  c-3.99,9.889,3.859,20.508,14.484,19.593l44.654-3.844L305,178.506L304.998,178.504z"/>
<path style="fill:#78B9EB;" d="M230.058,151.752c-13.455-5.19-28.304-5.493-41.959-0.857l-11.768,3.995  c-7.58,2.573-13.661,8.322-16.656,15.745l-15.041,37.269c0,0,142.374-34.185,141.683-34.452L230.058,151.752z"/>
<path d="M10.79,332.595c0.845,0.307,7.663,1.541,9.627-4.508c1.418-4.367,3.476-8.554,5.686-12.593  c1.993-3.642,0.656-8.21-2.987-10.203c-3.641-1.992-8.21-0.656-10.203,2.987c-2.577,4.711-4.809,9.653-6.632,14.69  C4.866,326.871,6.886,331.181,10.79,332.595z"/>
<path d="M416.803,278.048c-22.707,0-44.234,8.131-61.237,22.981l16.875-22.676c4.491-2.901,8.696-6.228,12.554-9.917l45.74-18.011  c19.059-7.504,32.886-23.963,36.987-44.023c0.832-4.067-1.792-8.04-5.86-8.871c-4.067-0.831-8.04,1.792-8.871,5.86  c-3.077,15.058-13.457,27.412-27.765,33.045l-22.97,9.045l11.679-19.671c6.051-10.192,14.796-18.487,25.289-23.989  c19.023-9.974,45.873-24.038,65.754-34.401c5.416-2.824,8.081-8.696,6.631-14.615c-1.435-5.858-6.591-9.948-12.54-9.948  c-0.607,0-32.087,4.435-47.159,6.844c0,0-13.985-15.029-33.353-13.02l-83.116,10.589c-11.529,1.468-23.416,0.204-34.379-3.656  l-37.452-13.195c-9.292-3.273-19.656-1.605-27.448,4.184c-3.773-5.369-9.926-8.932-16.917-9.163  c-1.262-6.638-3.885-12.19-7.853-16.606c9.287-3.177,15.985-11.987,15.985-22.337c0-2.723-0.469-5.337-1.321-7.773h0.261  c0-17.303-14.077-31.38-31.38-31.38c-16.814,0-30.578,13.294-31.343,29.923c-2.673,2.613-4.642,5.905-5.647,9.538l-32.327,116.894  H70.868c-11.21,0-22.135,3.94-30.765,11.095l-27.061,22.434c-5.347,4.433-6.699,11.755-3.284,17.804  c2.59,4.589,7.223,7.209,12.172,7.209c1.576,0,3.183-0.266,4.767-0.818l32.723-11.407c6.836-2.384,13.959-3.268,21.17-2.632  l32.167,2.836l-0.852,3.081c-2.045-0.117-4.095-0.178-6.136-0.178c-30.566,0-59.645,13.266-79.782,36.396  c-2.726,3.132-2.516,8.022,0.734,10.607c4.011,3.189,9.119,0.973,10.606-0.734c16.189-18.595,39.104-29.76,63.488-31.098  l-3.624,15.398c-37.865,4.302-67.121,36.777-67.121,75.198c0,41.74,33.958,75.697,75.698,75.697s75.696-33.958,75.696-75.697  c0-26.773-13.937-51.178-36.7-64.862l4.131-14.938c29.169,15.778,47.604,46.24,47.604,79.8c0,50.03-40.702,90.732-90.731,90.732  c-50.03,0-90.732-40.702-90.732-90.732c0-3.938,0.256-7.9,0.76-11.775c0.536-4.117-2.366-7.889-6.484-8.425  c-4.118-0.541-7.889,2.366-8.425,6.484C0.298,349.689,0,354.303,0,358.889c0,58.32,47.447,105.767,105.767,105.767  s105.766-47.447,105.766-105.767c0-13.943-2.743-27.422-7.793-39.837l58.778,25.223c8.031,3.446,16.496,5.193,25.162,5.193  c12.442,0,24.535-3.739,34.777-10.455l5.604,3.575c-3.013,9.262-4.563,18.905-4.563,28.766c0,51.448,41.856,93.303,93.304,93.303  s93.304-41.856,93.304-93.303C510.108,319.905,468.252,278.048,416.803,278.048z M368.696,368.507l3.254,2.076  c-0.004,0.257-0.023,0.513-0.023,0.769c0,24.745,20.131,44.876,44.876,44.876c24.745,0,44.876-20.132,44.876-44.876  c0-24.744-20.132-44.876-44.876-44.876c-6.383,0-12.675,1.383-18.449,3.986l-3.298-2.103c6.706-3.394,14.169-5.206,21.746-5.206  c26.578,0,48.2,21.622,48.2,48.2s-21.622,48.199-48.2,48.199s-48.2-21.622-48.2-48.199  C368.604,370.402,368.641,369.453,368.696,368.507z M441.252,366.169c-1.384-6.263-5.125-11.611-10.532-15.061l-14.99-9.562  c0.358-0.013,30.915,1.611,30.915,29.806c0,16.455-13.387,29.841-29.841,29.841c-12.991,0-24.063-8.346-28.151-19.956l16.24,10.359  c3.866,2.467,8.327,3.771,12.899,3.771c8.252,0,15.826-4.151,20.259-11.101C441.5,378.858,442.636,372.431,441.252,366.169z   M422.634,363.783c2.022,1.29,3.42,3.29,3.938,5.631c0.517,2.341,0.092,4.744-1.198,6.766c-1.658,2.6-4.493,4.152-7.584,4.152  c-1.701,0-3.365-0.488-4.812-1.411l-78.541-50.101c1.469-1.599,11.051-14.248,11.051-14.248L422.634,363.783z M432.243,188.506  c-12.961,6.796-23.761,17.041-31.234,29.629l-14.661,24.692c-5.802,9.772-14.006,18.05-23.724,23.939l-46.058,27.914  c-5.9,3.576-12.33,6.037-19.11,7.315c0,0-19.039,2.912-19.17,2.66c-0.346-0.665,18.792-27.952,18.792-27.952  c7.082-10.098,4.951-23.875-4.85-31.364l-33.94-25.926c-5.306-4.053-11.905-6.286-18.58-6.286c-0.873,0-1.757,0.038-2.627,0.113  l-78.605,6.767c-2.525,0.215-4.803-0.89-6.206-2.971c-1.277-1.892-1.518-4.196-0.661-6.32l15.041-37.27  c2.178-5.398,6.589-9.567,12.101-11.439l11.767-3.995c5.61-1.904,11.458-2.871,17.381-2.871c6.678,0,13.225,1.219,19.456,3.622  l56.26,21.7c11.64,4.489,23.867,6.766,36.341,6.766c6.626,0,13.283-0.659,19.784-1.957c31.659-6.323,91.251-17.715,147.943-25.789  C469.485,168.989,448.134,180.174,432.243,188.506z M135.608,358.889c0,16.455-13.386,29.841-29.841,29.841  s-29.841-13.386-29.841-29.841c0-8.047,3.161-15.44,8.477-20.871l-3.025,12.854c-0.641,2.156-2.887,11.191,1.591,19.546  c2.063,3.85,6.377,8.95,15.216,11.387c0.07,0.02,20.253,4.096,27.06-17.194c0.006-0.018,5.918-21.398,5.918-21.398  C134.028,347.857,135.608,353.263,135.608,358.889z M139.803,225.447c1.749,2.592,4.007,4.723,6.579,6.321l-20.852,75.4v-41.253  c0-1.251-0.184-2.452-0.527-3.576l11.916-43.087C137.542,221.426,138.503,223.519,139.803,225.447z M110.496,292.778v68.642  c-1.417,7.963-8.549,5.827-8.549,5.827c-2.857-0.826-7.402-3.877-5.994-12.683L110.496,292.778z M161.124,234.869l2.919-0.252  c0,0,2.641,15.395,2.822,16.173l-8.912-4.457L161.124,234.869z M181.207,245.927l-2.135-12.603l40.837-3.515l-8.501,50.372  c-0.032,0.041-0.155,0.083-0.277,0.02l-21.815-19.56C185.045,256.809,182.165,251.584,181.207,245.927z M242.797,260.77  l-11.855-5.965l4.44-26.33l2.986-0.257c3.83-0.328,7.738,0.809,10.791,3.14l12.309,9.403  C253.493,245.66,247.07,252.61,242.797,260.77z M226.255,282.595l2.07-12.275l9.493,4.776c-0.585,3.108-0.898,6.298-0.898,9.543  c0,2.919,0.25,5.819,0.736,8.673l-13.217-5.672C225.323,286.101,225.951,284.401,226.255,282.595z M255.904,301.142  c-2.585-5.086-3.949-10.746-3.949-16.504c0-14.896,9.06-28.226,22.735-33.774l8.406,6.422c3.371,2.575,4.104,7.311,1.668,10.784  l-18.689,26.65c-2.001,2.853-2.997,6.179-2.967,9.515L255.904,301.142z M188.213,136.917l6.321-22.856  c1.718,0.719,3.366,1.669,4.826,2.939c2.421,2.106,4.166,4.979,5.23,8.588C197.477,126.476,191.432,130.831,188.213,136.917z   M258.616,144.6l37.453,13.194c9.601,3.382,19.793,5.105,29.977,5.104c3.776,0,7.553-0.237,11.296-0.714l83.116-10.589  c3.792-0.485,7.615,0.046,11.094,1.449c-38.122,6.417-73.004,13.142-94.758,17.487c-5.534,1.106-11.199,1.666-16.839,1.666  c-10.617,0-21.024-1.937-30.931-5.759l-46.098-17.78C242.926,148.658,249.237,141.439,258.616,144.6z M203.771,95.069  c-4.727,0-8.572-3.845-8.572-8.572c0-4.726,3.845-8.572,8.572-8.572c4.726,0,8.572,3.845,8.572,8.572  C212.343,91.223,208.497,95.069,203.771,95.069z M194.938,62.379c1.77,0,3.472,0.292,5.07,0.815  c-10.981,1.767-19.449,11.135-19.824,22.517c-1.009-2.122-1.591-4.485-1.591-6.987C178.593,69.712,185.925,62.379,194.938,62.379z   M170.387,98.234c2.842,3.569,6.442,6.505,10.556,8.565l-11.91,43.063c-7.363,3.822-13.181,10.155-16.33,17.96l-4.963,12.297  L170.387,98.234z M81.91,232.406c-9.347-0.823-18.58,0.324-27.439,3.413l-27.907,9.729l23.134-19.178  c5.939-4.923,13.456-7.635,21.17-7.635h50.595l-4.633,16.751L81.91,232.406z M166.429,358.889c0,33.45-27.213,60.663-60.662,60.663  c-33.45,0-60.663-27.213-60.663-60.663c0-28.931,20.697-53.649,48.364-59.392l-4.15,17.628  c-17.138,6.71-28.429,23.087-28.429,41.764c0,24.745,20.132,44.876,44.876,44.876s44.876-20.132,44.876-44.876  c0-12.734-5.389-24.704-14.65-33.147l4.571-16.528C156.696,320.497,166.429,338.868,166.429,358.889z M152.992,264.276l0.878-3.173  l18.106,9.056l1.219,7.259C167.057,272.343,160.294,267.925,152.992,264.276z M268.447,330.458l-62.196-26.691  c-9.037-3.878-15.403-11.983-17.029-21.679l-0.265-1.578l11.479,10.293c2.227,2.842,5.141,5.104,8.56,6.57l62.196,26.69  c5.351,2.296,10.945,3.402,16.469,3.402c23.887,0,34.858-18.868,34.858-18.868c0.615-0.349,15.726-9.476,15.726-9.476l-11.684,15.7  c-9.274,12.463-23.446,19.61-38.879,19.61C281.066,334.433,274.595,333.096,268.447,330.458z M416.803,449.621  c-43.158,0-78.269-35.111-78.269-78.268c0-6.945,0.922-13.758,2.705-20.36l13.439,8.573c-0.733,3.873-1.11,7.82-1.11,11.787  c0,34.868,28.367,63.234,63.235,63.234s63.235-28.367,63.235-63.234c0-34.868-28.367-63.235-63.235-63.235  c-12.821,0-25.387,3.957-35.898,11.213l-13.518-8.624c13.944-11.408,31.232-17.625,49.418-17.625  c43.158,0,78.269,35.111,78.269,78.269C495.073,414.51,459.961,449.621,416.803,449.621z"/>
<g>
</g>
<g>
</g>
<g>
</g>
<g>
</g>
<g>
</g>
<g>
</g>
<g>
</g>
<g>
</g>
<g>
</g>
<g>
</g>
<g>
</g>
<g>
</g>
<g>
</g>
<g>
</g>
<g>
</g>
</svg>
