<?xml version="1.0" encoding="iso-8859-1"?>
<!-- Generator: Adobe Illustrator 19.0.0, SVG Export Plug-In . SVG Version: 6.00 Build 0)  -->
<svg xmlns="http://www.w3.org/2000/svg" xmlns:xlink="http://www.w3.org/1999/xlink" version="1.1" id="Layer_1" x="0px" y="0px" viewBox="0 0 512.001 512.001" style="enable-background:new 0 0 512.001 512.001;" xml:space="preserve">
<path style="fill:#2D2D30;" d="M42.809,447.905l11.283,17.997c6.415,10.232,17.936,16.11,29.985,15.298l339.046-22.831  c12.988-0.875,24.229-9.349,28.644-21.596l9.43-26.155L42.809,447.905z"/>
<g>
	<path style="fill:#1D1D1F;" d="M54.093,465.902c6.415,10.232,17.936,16.11,29.985,15.298l77.944-5.249l-12.486-33.413l-1.183-4.039   l-105.546,9.406L54.093,465.902z"/>
	<polygon style="fill:#1D1D1F;" points="131.316,216.09 111.277,393.709 305.291,369.837 268.402,222.466  "/>
</g>
<path style="fill:#3E3D42;" d="M92.644,225.426v21.407c0,11.049,8.244,20.361,19.212,21.7l104.257,12.728  c3.169,0.387,5.648,2.917,5.969,6.094l1.023,10.116c0.386,3.822-2.453,7.211-6.283,7.499l-142.65,10.75  c-4.834,0.364-9.64-0.997-13.566-3.841l-12.898-9.347c-5.737-4.157-13.844-0.851-15.039,6.132l-10.467,61.172l253.981-9.831  l-13.207-121.259L92.644,225.426z"/>
<g>
	<path style="fill:#2D2D30;" d="M136.346,311.035l-62.175,4.686c-4.834,0.364-9.64-0.997-13.566-3.841l-12.898-9.347   c-5.737-4.157-13.844-0.851-15.039,6.132l-10.466,61.171l52.337-2.026l60.959-21.959   C135.255,333.772,135.624,322.019,136.346,311.035z"/>
	<path style="fill:#2D2D30;" d="M92.644,246.833c0,11.049,8.244,20.361,19.212,21.7l28.686,3.502   c2.647-17.806,5.331-29.049,5.331-29.049l-7.013-13.945l-46.215-3.615L92.644,246.833L92.644,246.833z"/>
</g>
<path style="fill:#57565C;" d="M287.342,30.728c-170.42,0-199.594,128.944-204.378,182.166  c-1.123,12.497,7.947,23.601,20.407,25.078l123.856,14.679c13.974,1.656,24.928,12.785,26.364,26.783l2.477,24.147  c1.793,17.486-11.105,33.043-28.621,34.52l-160.491,13.53c-4.3,0.362-8.605-0.642-12.301-2.869l-10.995-6.627  c-7.486-4.512-17.157,0.008-18.498,8.645l-9.795,63.068c-3.103,19.98,13.196,37.648,33.361,36.162l399.834-29.449  c24.266-1.787,43.042-21.997,43.042-46.328V234.99C491.603,122.646,399.15,30.728,287.342,30.728z"/>
<g>
	<path style="fill:#3E3D42;" d="M135.498,345.853l-68.543,5.778c-4.3,0.362-8.605-0.642-12.301-2.869l-10.995-6.627   c-7.486-4.512-17.157,0.008-18.498,8.645l-9.795,63.068c-3.103,19.98,13.196,37.648,33.361,36.162l101.458-7.473   C140.299,409.553,136.016,376.937,135.498,345.853z"/>
	<path style="fill:#3E3D42;" d="M82.963,212.871c-1.123,12.498,7.947,23.601,20.407,25.078l42.501,5.037   c16.911-68.373,45.939-122.029,45.939-122.029V48.243C104.959,85.334,86.662,171.725,82.963,212.871z"/>
	<path style="fill:#3E3D42;" d="M287.342,30.728c-153.404,0-241.031,65.776-275.647,99.188c-8.046,7.766-3.892,21.369,7.123,23.299   l334.106,58.548l138.68,148.244V234.99C491.603,122.646,399.15,30.728,287.342,30.728z"/>
	<path style="fill:#3E3D42;" d="M268.076,385.561c-2.282-3.457-1.33-8.109,2.126-10.391l52.167-34.443   c3.456-2.283,8.109-1.332,10.391,2.126c2.282,3.457,1.33,8.109-2.126,10.391l-52.167,34.443   C274.251,390.549,269.518,387.745,268.076,385.561z"/>
	<path style="fill:#3E3D42;" d="M339.192,338.605c-2.282-3.457-1.331-8.109,2.126-10.391l12.189-8.048   c3.456-2.283,8.107-1.332,10.391,2.126c2.282,3.457,1.331,8.109-2.126,10.391l-12.189,8.048   C345.251,343.549,340.634,340.79,339.192,338.605z"/>
</g>
<path style="fill:#2D2D30;" d="M98.365,112.343c78.958-59.804,180.144-77.031,207.574-80.746  c-6.131-0.565-12.332-0.869-18.597-0.869c-153.404,0-241.031,65.776-275.647,99.188c-8.046,7.766-3.892,21.369,7.123,23.299  l98.041,17.18l41.125-23.03c0,0-35.948-12.526-57.166-19.792C94.202,125.307,92.791,116.565,98.365,112.343z"/>
<path style="fill:#FF3F62;" d="M491.603,374.233V273.924L247.031,435.405l201.53-14.844  C472.828,418.774,491.603,398.565,491.603,374.233z"/>
<polygon style="fill:#FF0C38;" points="491.603,273.924 247.031,435.405 345.975,428.117 491.603,331.965 "/>
<path style="fill:#FF3F62;" d="M75.034,163.066l197.897,53.065c13.977,3.748,25.756,13.159,32.496,25.964l17.505,33.255  c3.31,6.288,11.244,8.47,17.303,4.759l32.446-19.871c9.167-5.614,12.439-17.358,7.495-26.903l-21.788-42.067  C358.389,191.269,329.013,103.142,75.034,163.066z"/>
<path style="fill:#FF0C38;" d="M294.005,183.839l-136.022-36.473c-24.572,3.333-52.098,8.422-82.948,15.701l197.897,53.065  c13.977,3.748,25.756,13.159,32.496,25.964l17.505,33.255c3.31,6.288,11.244,8.47,17.303,4.759l20.491-12.549l-29.011-53.59  C323.894,199.11,310.225,188.188,294.005,183.839z"/>
<circle style="fill:#3E3D42;" cx="343.013" cy="238.743" r="13.321"/>
<path style="fill:#FF3F62;" d="M480.613,169.209C452.955,88.882,376.273,30.73,287.342,30.73  c-82.205,0-145.513,18.89-191.906,41.565C356.877,22.325,480.578,169.167,480.613,169.209z"/>
<path style="fill:#FF0C38;" d="M305.919,31.591c-6.124-0.563-12.319-0.862-18.577-0.862c-82.205,0-145.513,18.89-191.906,41.565  c33.861-6.472,65.405-9.635,94.676-10.251c51.892-20.381,98.528-28.103,115.827-30.446  C305.932,31.596,305.926,31.592,305.919,31.591z"/>
<path style="fill:#FF3F62;" d="M24.121,357.475l-8.755,56.373c-3.103,19.98,13.196,37.648,33.361,36.162l66.603-4.905  C88.162,386.283,43.284,364.411,24.121,357.475z"/>
<path style="fill:#2D2D30;" d="M422.604,81.964l15.42,19.588c5.608,7.124,4.951,17.328-1.525,23.673l-17.311,16.963l61.424,27.021  l22.477-48.286c3.971-8.531-0.785-18.571-9.901-20.903L422.604,81.964z"/>
<path style="fill:#1D1D1F;" d="M419.189,142.188l57.525-21.163c4.434-1.631,4.849-7.739,0.677-9.955l-54.787-29.106l15.42,19.587  c5.608,7.124,4.951,17.327-1.525,23.673L419.189,142.188z"/>
<path d="M509.826,104.938c-2.878-6.076-8.264-10.517-14.777-12.183l-69.655-17.819c-38.582-33.357-87.5-51.708-138.053-51.708  c-67.928,0-130.33,12.696-185.47,37.735C55.765,81.9,24.551,107.08,6.485,124.518c-5.766,5.566-7.892,13.78-5.547,21.438  c2.343,7.652,8.697,13.264,16.584,14.646l55.887,9.794l8.746,2.345c-3.221,12.856-5.461,26.108-6.663,39.482  c-0.887,9.876,2.927,19.025,9.65,25.245v9.365c0,14.819,11.093,27.349,25.803,29.145l5.983,0.73l-3.217,28.511l-40.105,3.022  c-3.064,0.235-6.116-0.634-8.602-2.436l-12.898-9.347c-4.807-3.484-10.959-4.226-16.455-1.983  c-5.497,2.241-9.376,7.072-10.377,12.924L7.955,412.697c-1.832,11.796,1.76,23.593,9.854,32.367  c5.879,6.372,13.541,10.495,21.855,11.943l8.074,12.877c7.41,11.819,20.299,18.889,34.115,18.889  c0.906,0,163.605-10.925,163.605-10.925c4.133-0.278,7.257-3.854,6.979-7.987c-0.278-4.132-3.85-7.26-7.987-6.979L83.574,473.717  c-9.302,0.629-18.17-3.894-23.127-11.799l-3.146-5.018l389.584-28.694l-2.172,6.025c-3.404,9.443-12.076,15.981-22.092,16.656  l-117.62,7.92c-4.133,0.278-7.393,3.865-6.979,7.987c0.812,8.089,7.815,6.991,7.987,6.979l117.62-7.92  c15.957-1.074,29.771-11.49,35.195-26.534l5.258-14.581c20.5-7.747,35.022-27.646,35.022-50.504V234.99  c0-22.284-3.515-44.246-10.43-65.322l21.216-45.578C512.727,117.994,512.703,111.013,509.826,104.938z M417.393,87.849l0.158-0.179  l14.58,18.521c3.052,3.876,2.899,9.304-0.245,12.992c-37.513-24.517-80.007-42.403-126.402-53.146  c-46.788-10.833-96.644-14.083-148.834-9.747c36.578-10.889,79.935-18.063,130.69-18.063  C335.077,38.228,381.264,55.851,417.393,87.849z M15.281,141.565c-0.333-1.088-0.842-3.875,1.622-6.253  c16.784-16.2,43.064-37.301,80.174-55.693c155.068-29.579,260.944,10.017,323.885,50.332l-7.022,6.881  c-1.778,1.743-2.576,4.253-2.129,6.703c0.447,2.45,2.08,4.517,4.358,5.52l58.381,25.682c6.334,19.444,9.553,39.7,9.553,60.253  v34.899l-41.129,27.156l-53.133-56.797c-0.308-3.531-1.288-7.049-3.004-10.361l-21.587-41.679  c-2.59-6.565-25.054-53.519-137.082-53.519c-43.102,0-94.692,6.98-153.337,20.728l-54.719-9.59  C16.75,145.237,15.614,142.65,15.281,141.565z M368.765,253.842c0,0-34.051,20.58-34.936,20.58l0,0  c-1.406,0-3.263-0.674-4.259-2.565l-17.505-33.254c-7.689-14.608-21.245-25.439-37.19-29.715L106.65,163.779  c45.846-9.358,86.615-14.09,121.52-14.09c55.728,0,86.367,12.167,102.257,22.374c16.188,10.399,20.558,20.854,20.866,21.633  c0.126,0.406,22.227,43.09,22.227,43.09C376.637,242.808,374.55,250.301,368.765,253.842z M270.99,223.376  c11.92,3.196,22.054,11.293,27.802,22.213l17.505,33.254c3.435,6.525,10.152,10.578,17.532,10.579c0,0,0,0,0.001,0  c3.638,0,7.208-1.009,10.324-2.917l32.446-19.871c3.768-2.308,6.802-5.397,9.024-8.938l44.653,47.732l-185.746,122.64  l-124.648,9.181c-26.096-52.886-66.268-75.754-87.427-84.572c0,0,1.376-7.296,7.331-4.119l10.996,6.627  c5.082,3.063,10.895,4.418,16.802,3.918l160.492-13.529c10.493-0.885,19.974-5.837,26.695-13.943  c6.721-8.106,9.831-18.34,8.756-28.815l-2.477-24.147c-1.807-17.62-15.354-31.381-32.942-33.465l-123.856-14.679  c-8.514-1.009-14.584-8.458-13.821-16.958c1.125-12.516,3.216-24.912,6.216-36.938L270.99,223.376z M131.819,278.525l82.852,10.115  l0.9,8.902l-86.636,6.529L131.819,278.525z M41.314,308.365c0.485-0.196,1.223-0.316,1.99,0.24l12.899,9.347  c5.355,3.881,11.941,5.739,18.53,5.247l142.65-10.75c3.886-0.293,7.405-2.1,9.909-5.087c2.503-2.988,3.666-6.769,3.273-10.646  l-1.023-10.115c-0.678-6.711-5.827-11.968-12.522-12.785l-104.257-12.728c-12.597-1.873-12.62-16.044-12.62-16.044  c0.771,0.15,126.201,15.055,126.201,15.055c10.564,1.252,18.7,9.517,19.785,20.1l2.477,24.147  c0.661,6.438-1.251,12.729-5.382,17.711c-4.131,4.983-9.958,8.026-16.408,8.57L66.324,344.157c-2.742,0.233-5.44-0.397-7.799-1.818  l-10.995-6.627c-3.486-2.102-7.463-3.042-11.403-2.805l3.931-22.977C40.218,308.995,40.83,308.563,41.314,308.365z M28.834,434.893  c-4.975-5.393-7.183-12.644-6.057-19.894l7.3-47.005c19.051,8.569,51.012,28.359,73.555,70.452l-55.456,4.085  C40.853,443.067,33.808,440.286,28.834,434.893z M484.103,374.233c0,20.294-15.854,37.358-36.092,38.849l-172.838,12.73  l208.931-137.948L484.103,374.233L484.103,374.233z M496.291,117.758l-19.378,41.629l-37.688-16.579l27.68-10.183l-5.179-14.077  l-15.243,5.608c12.351-15.275-4.296-29.441-4.296-29.441l49.142,12.572c2.98,0.762,4.374,2.878,4.938,4.071  C496.835,112.551,497.589,114.969,496.291,117.758z"/>
<path d="M283.956,460.224l-18.769,1.264c-4.133,0.278-7.392,3.865-6.979,7.987c0.793,7.908,7.815,6.991,7.987,6.979l18.769-1.264  c4.133-0.278,7.257-3.854,6.979-7.987C291.664,463.071,288.1,459.937,283.956,460.224z"/>
<path d="M322.196,238.747c0,11.481,9.34,20.821,20.821,20.821s20.821-9.34,20.821-20.821c0-11.481-9.34-20.821-20.821-20.821  S322.196,227.266,322.196,238.747z M348.839,238.747c0,3.21-2.611,5.821-5.821,5.821c-3.21,0-5.821-2.611-5.821-5.821  c0-3.21,2.611-5.821,5.821-5.821C346.228,232.926,348.839,235.537,348.839,238.747z"/>
<g>
</g>
<g>
</g>
<g>
</g>
<g>
</g>
<g>
</g>
<g>
</g>
<g>
</g>
<g>
</g>
<g>
</g>
<g>
</g>
<g>
</g>
<g>
</g>
<g>
</g>
<g>
</g>
<g>
</g>
</svg>
